<?xml version="1.0" encoding="utf-8"?>
<!-- Generator: Adobe Illustrator 24.2.0, SVG Export Plug-In . SVG Version: 6.00 Build 0)  -->
<svg version="1.1" id="Layer_1" xmlns="http://www.w3.org/2000/svg" xmlns:xlink="http://www.w3.org/1999/xlink" x="0px" y="0px"
	 viewBox="0 0 752.5 346.1" style="enable-background:new 0 0 752.5 346.1;" xml:space="preserve">
<style type="text/css">
	.st0{fill:#FFFFFF;}
</style>
<path class="st0" d="M734.5,146.2c-2-19.3-6.8-37.6-16.3-54.4C689.6,41.3,645.4,17.1,588,17c-40.9-0.1-76.9,15.4-109.8,38.6
	c-29.4,20.7-53.7,46.7-77,73.8c-23,26.8-44.7,54.7-69.3,80.1c-28,29-58.7,54.1-96.8,69c-43.1,16.8-86.2,18.1-128.8-1.7
	c-22.1-10.3-40.1-25.8-54.4-45.7c-10-13.9-16.6-29.4-21.7-45.7c-1.8-0.1-1.4,0.9-0.9,2c0.3,1.6,0.2,3.2,0.6,4.9
	c3.1,12,7.5,23.5,13.2,34.5c14.6,28.1,36.3,49,64.1,63.4c32.6,16.9,67.3,22.1,103.7,17.2c23.3-3.1,45.2-10,66.4-19.8
	c22-10.2,42.1-23.3,61.1-38.2c14.7-11.5,28.8-23.8,41.9-37.1l3.9-3.3c-1.1,1.1-3.3,2-1.9,4.4c4.5,5,9.6,9.5,14.6,14.1
	c17.6,16,36.3,30.6,56.5,43.4c34.8,22,72.3,35.7,113.6,38.1c15.9,0.9,31.7-0.9,47.2-4.4c23.9-5.5,45.7-15.6,64.9-30.9
	c17.7-14.1,31.8-31.2,41.4-51.6C731.8,198.2,737.2,173,734.5,146.2z M672.4,187.5c-13.5,37.9-42.9,57-81.3,63.6
	c-30.9,5.3-60.2-1.4-88.5-13.3c-31.8-13.3-59.4-33.3-86.3-54.3c-3.3-2.6-4.1-3.7-0.6-7c7.9-7.4,15.1-15.5,22.8-23.1
	c22.4-21.9,45.5-43.2,72.9-58.8c18.1-10.3,37.3-18.1,58.3-20.7c5.3-0.5,10.4-0.6,15.5-0.8c26.7,0.2,50.6,8.1,69.1,27.9
	C677.6,125.9,683.8,155.6,672.4,187.5z"/>
<path class="st0" d="M33.8,195.9c0,0-5.5-16.6-6.7-28.5c-0.6-6.2-0.8-3.1-0.8-3.1s0,19,5.2,34"/>
<path class="st0" d="M91.1,122.1c0,0-5.8,16.5-7.2,28.3c-0.7,6.2-0.9,3.1-0.9,3.1s-0.2-17.3,5.3-32.2"/>
<path class="st0" d="M407.5,185.9"/>
<path class="st0" d="M85.2,132.1c4.4-22.8,16.5-40.8,34.8-54.7c21.5-16.4,46.3-22.7,73-22.2c33.1,0.6,63.1,11.9,91.6,27.8
	c22.3,12.4,42.5,27.9,62.7,43.4c0.5,0.5,1.6,0.8,0.9,2c-7.5,7.6-15.1,15-22.4,22.7c-2.5,2.6-3.9,2.4-6.3-0.1
	c-20.1-19.9-41.1-38.7-65.3-53.4c-19.7-12-40.7-20.5-63.8-23.5c-20.4-2.6-40.3-0.5-58.6,8.7c-21.8,10.9-37.6,27.8-44.7,51.8
	c-0.2,0.6-0.6,1.2-0.9,1.7C83.3,139.3,85,133.6,85.2,132.1z"/>
<path class="st0" d="M91.1,122.1c0,0-5.8,16.5-7.2,28.3c-0.7,6.2-0.9,3.1-0.9,3.1s-0.2-17.3,5.3-32.2"/>
</svg>
