<?xml version="1.0" encoding="UTF-8"?>
<svg id="Layer_1" xmlns="http://www.w3.org/2000/svg" xmlns:xlink="http://www.w3.org/1999/xlink" version="1.1" viewBox="0 0 576.3 147.2">
  <!-- Generator: Adobe Illustrator 29.3.1, SVG Export Plug-In . SVG Version: 2.1.0 Build 151)  -->
  <defs>
    <style>
      .st0 {
        fill: none;
        stroke: #fff;
        stroke-width: 2.6px;
      }

      .st1 {
        fill: #fff;
      }

      .st2 {
        fill: #2a2e2d;
      }

      .st3 {
        display: none;
      }
    </style>
  </defs>
  <g id="bg" class="st3">
    <rect class="st2" x="-25.7" y="0" width="624.5" height="147.2"/>
  </g>
  <g id="Logo">
    <path class="st1" d="M3.3,110.7V32.4h24.2v54h16.7v24.2H3.3Z"/>
    <path class="st1" d="M49.4,110.7V32.4h24.2v78.2h-24.2Z"/>
    <path class="st1" d="M141.6,93c-7.2,7.2-15.9,10.7-26,10.7s-18.8-3.6-25.9-10.7-10.7-15.8-10.7-25.9,3.6-18.8,10.7-25.9c7.2-7.2,15.8-10.7,25.9-10.7s18.8,3.6,26,10.7c7.2,7.2,10.8,15.8,10.8,25.9s-3.6,18.8-10.8,25.9ZM124.5,58.3c-2.4-2.4-5.4-3.7-8.8-3.7s-6.3,1.2-8.7,3.7c-2.4,2.4-3.6,5.4-3.6,8.8s1.2,6.4,3.6,8.8c2.4,2.4,5.3,3.7,8.7,3.7s6.4-1.2,8.8-3.7c2.4-2.4,3.7-5.4,3.7-8.8s-1.2-6.4-3.7-8.8Z"/>
    <path class="st1" d="M179.8,77.1v33.6h-24.3V27.1l54.4,42.9v-37.6h24.3v87.7l-54.4-43.1h0Z"/>
    <path class="st0" d="M368.8,126.8c-7.2,4.5-15,6.7-23.3,6.7s-3.4,0-5.1-.3c-1.7-.2-3.4-.4-5.1-.8-1.7-.4-3.4-.8-5.1-1.4-1.7-.6-3.4-1.2-5.1-1.9-2.9-1.2-4.8-2.1-5.8-2.5s-1.7-.8-2.3-1.2c-.5-.4-1.3-.8-2.3-1.2-1-.4-2.9-1.3-5.8-2.5-1.7-.7-3.4-1.3-5.1-1.7-1.7-.4-3.5-.6-5.1-.6-3.3,0-6.3.8-9.1,2.5-2.8,1.7-4.9,4.3-6.4,7.9l-24.1-9.9c1.5-3.5,3.3-6.6,5.3-9.4s4.3-5.2,6.8-7.2c-7.6-4.2-13.7-10.1-18.5-17.7-4.7-7.6-7.1-16-7.1-25.2,0-13.6,4.8-25.1,14.4-34.6,9.6-9.5,21.1-14.3,34.6-14.3s25.1,4.8,34.6,14.3,14.3,21.1,14.3,34.6-1.8,15.5-5.4,22.3c-3.6,6.9-8.4,12.5-14.5,17,1.2.5,2,.9,2.5,1.2.5.3,1,.5,1.3.7.6.4,1.4.8,2.3,1.3s2.8,1.4,5.7,2.6c1.7.7,3.4,1.2,5,1.5s3.3.5,4.9.5c3.4,0,6.5-.8,9.2-2.5,2.8-1.6,5-3.8,6.5-7.5l24,9.7c-3.7,8.6-9.2,15.2-16.4,19.7h.2Z"/>
    <path class="st0" d="M408.5,68.1c0,7.7-2.8,14.4-8.3,19.9s-12.2,8.3-20,8.3-14.4-2.8-20-8.3-8.4-12.2-8.4-19.9v-34.9h21.4v34.9c0,2.2.7,3.9,2.2,5s3.1,1.7,4.8,1.7,3.2-.5,4.6-1.6,2.1-2.8,2.1-5v-34.9h21.5v34.9h0Z"/>
    <path class="st0" d="M464.3,78.6h-29.4v2.3h21.3v21.4h-42.7V33.3h42.7v21.5h-21.3v2.3h29.4v21.5Z"/>
    <path class="st0" d="M518.9,40.8l-15.1,15.2c-.7-.7-1.4-1.3-2.3-1.7-.9-.4-1.8-.7-2.7-.8h-.9c-1.1,0-2.2.2-3.2.6-1.1.4-2,1-2.8,1.9-.8.8-1.4,1.7-1.8,2.7-.4,1-.6,2.1-.6,3.2s.2,2.2.6,3.2c.4,1.1,1,2,1.8,2.8l3.7,3.7c1.9,1.9,3.3,4,4.2,6.3s1.4,4.7,1.4,7.1-.5,4.8-1.4,7.1c-.9,2.3-2.3,4.4-4.1,6.3-1.9,1.9-4,3.3-6.3,4.1-2.3.9-4.7,1.3-7.1,1.3h-1.1c-2.2,0-4.4-.6-6.6-1.5s-4.1-2.2-5.8-3.9l11.8-11.7c-.3-.2-.5-.4-.8-.7-.2-.2-.5-.5-.8-.8-.1,0-.3-.3-.4-.4s-.3-.3-.4-.4c-.2-.3-.4-.5-.7-.8-.3-.3-.5-.5-.7-.8-2.9-3-5.1-6.2-6.6-9.9-1.5-3.6-2.2-7.4-2.2-11.2s.7-7.6,2.2-11.3,3.7-7,6.6-9.9c3-2.9,6.3-5.1,9.9-6.5,3.7-1.4,7.4-2.2,11.2-2.2s7.6.7,11.2,2.2c3.7,1.4,6.9,3.6,9.8,6.5v.3Z"/>
    <path class="st0" d="M572.1,54.6h-15v47.7h-21.4v-47.7h-15v-21.4h51.4s0,21.4,0,21.4Z"/>
    <path class="st0" d="M253.1,274.4"/>
  </g>
</svg>