<?xml version="1.0" encoding="utf-8"?>
<!-- Generator: Adobe Illustrator 24.2.0, SVG Export Plug-In . SVG Version: 6.00 Build 0)  -->
<svg version="1.1" id="Layer_1" xmlns="http://www.w3.org/2000/svg" xmlns:xlink="http://www.w3.org/1999/xlink" x="0px" y="0px"
	 viewBox="0 0 1750.2 326.4" style="enable-background:new 0 0 1750.2 326.4;" xml:space="preserve">
<style type="text/css">
	.st0{fill:#31BDDD;}
	.st1{fill:#2778BA;}
	.st2{fill:#2B3C5E;}
	.st3{fill:#6C439A;}
	.st4{fill:#ED187A;}
	.st5{fill:#EF544F;}
	.st6{fill:#FBAA26;}
	.st7{fill:#91C63C;}
	.st8{fill:#27AF49;}
</style>
<path class="st0" d="M27.1,243.4V21.9h68.6v153h47.2v68.6H27.1z"/>
<path class="st1" d="M157.8,243.4V21.9h68.6v221.5H157.8z"/>
<path class="st2" d="M418.9,193.3c-20.4,20.3-44.9,30.4-73.6,30.4c-28.7,0-53.1-10.1-73.4-30.4c-20.3-20.3-30.4-44.7-30.4-73.4
	c0-28.7,10.1-53.1,30.4-73.4C292.2,26.2,316.7,16,345.4,16c28.7,0,53.2,10.1,73.6,30.4c20.4,20.3,30.6,44.7,30.6,73.4
	C449.5,148.5,439.3,173,418.9,193.3z M370.3,95c-6.9-6.9-15.2-10.4-24.9-10.4c-9.7,0-17.9,3.5-24.7,10.4
	c-6.8,6.9-10.2,15.2-10.2,24.9c0,9.7,3.4,18,10.2,24.9c6.8,6.9,15,10.3,24.7,10.3c9.7,0,18-3.4,24.9-10.3
	c6.9-6.9,10.3-15.2,10.3-24.9C380.6,110.2,377.2,101.9,370.3,95z"/>
<path class="st3" d="M524.2,148.3v95.1h-68.9V6.7l153.9,121.6V21.9h68.9v248.4L524.2,148.3z"/>
<path class="st4" d="M1100.4,291.6c-17.4,10.8-36.2,16.2-56.4,16.2c-4.1,0-8.2-0.2-12.3-0.6c-4.1-0.4-8.2-1.1-12.3-1.9
	c-4.1-0.9-8.2-2-12.3-3.4c-4.1-1.4-8.2-3-12.3-4.7c-6.9-3-11.5-5.1-13.9-6.1c-2.4-1.1-4.2-2.1-5.5-2.9c-1.3-0.9-3.1-1.8-5.5-2.9
	c-2.4-1.1-7-3.1-13.9-6.1c-4.1-1.7-8.2-3.1-12.5-4c-4.2-1-8.4-1.5-12.5-1.5c-8,0-15.3,2-22,6.1c-6.7,4.1-11.9,10.5-15.5,19.1
	l-58.2-23.9c3.7-8.4,7.9-16,12.8-22.6c4.9-6.7,10.3-12.5,16.3-17.5c-18.3-10.1-33.2-24.4-44.6-42.9c-11.4-18.4-17.1-38.8-17.1-61
	c0-32.8,11.6-60.7,34.8-83.8c23.2-23.1,51-34.6,83.6-34.6c32.8,0,60.7,11.5,83.8,34.6c23.1,23.1,34.6,51,34.6,83.8
	c0,19.4-4.4,37.4-13.1,54c-8.7,16.6-20.4,30.3-35.1,41.1c2.8,1.3,4.9,2.3,6.1,2.9c1.3,0.6,2.4,1.2,3.2,1.6c1.5,0.9,3.4,1.9,5.7,3.1
	c2.3,1.2,6.8,3.3,13.7,6.3c4.1,1.7,8.1,3,12.1,3.7c4,0.8,7.9,1.1,11.8,1.1c8.2,0,15.6-2,22.3-6c6.7-4,11.9-10.4,15.5-19.2l58.2,24.6
	C1130.9,265,1117.7,280.8,1100.4,291.6z M956.3,95.6c-9.7-9.7-21.5-14.6-35.3-14.6c-13.6,0-25.2,4.9-34.9,14.6
	c-9.7,9.7-14.6,21.5-14.6,35.3c0,13.6,4.9,25.2,14.6,34.9c9.7,9.7,21.3,14.6,34.9,14.6c13.8,0,25.6-4.9,35.3-14.6
	c9.7-9.7,14.6-21.3,14.6-34.9C970.8,117.1,966,105.3,956.3,95.6z"/>
<path class="st5" d="M1205,197.6c-17.7,17.8-39,26.7-64,26.7c-24.8,0-46.1-8.9-64-26.7c-17.9-17.8-26.8-39.1-26.8-63.9V21.9h68.6
	v111.9c0,7.1,2.4,12.5,7.1,16c4.7,3.6,9.9,5.3,15.5,5.3c5.4,0,10.3-1.7,14.7-5.2c4.4-3.4,6.6-8.8,6.6-16.2V21.9h68.9v111.9
	C1231.5,158.6,1222.7,179.9,1205,197.6z"/>
<path class="st6" d="M1310.4,167.4v7.4h68.2v68.6h-137.1V22.2h137.1v68.9h-68.2v7.4h94.4v68.9H1310.4z"/>
<path class="st7" d="M1531.6,95c-2.2-2.4-4.6-4.2-7.4-5.5c-2.8-1.3-5.7-2.2-8.7-2.6c-0.4,0-0.9,0-1.5,0c-0.5,0-1,0-1.5,0
	c-3.4,0-6.9,0.6-10.3,1.9c-3.5,1.3-6.5,3.3-9.1,6.1c-2.6,2.6-4.5,5.5-5.8,8.7c-1.3,3.2-1.9,6.7-1.9,10.3c0,3.5,0.6,6.9,1.9,10.4
	c1.3,3.4,3.2,6.5,5.8,9.1l12,12c6,6,10.5,12.8,13.4,20.2c2.9,7.4,4.4,15,4.4,22.8c0,7.8-1.5,15.4-4.5,22.8
	c-3,7.4-7.4,14.2-13.3,20.2c-6,6-12.8,10.5-20.2,13.3c-7.4,2.8-15,4.2-22.8,4.2c-0.6,0-1.2,0-1.8,0c-0.5,0-1.1,0-1.8,0
	c-7.1-0.4-14.1-2.1-21-4.9c-6.9-2.8-13.2-7-18.8-12.6l37.8-37.5c-0.9-0.6-1.7-1.3-2.4-2.1c-0.8-0.8-1.6-1.6-2.4-2.4
	c-0.4-0.4-0.9-0.9-1.3-1.3c-0.4-0.4-0.9-0.9-1.3-1.3c-0.6-0.9-1.4-1.7-2.3-2.6c-0.9-0.9-1.6-1.7-2.3-2.6c-9.3-9.5-16.3-20.1-21-31.7
	c-4.7-11.6-7.1-23.6-7.1-35.9c0-12.3,2.4-24.4,7.1-36.2c4.7-11.9,11.8-22.4,21-31.7c9.5-9.3,20.1-16.2,31.9-20.9
	c11.7-4.6,23.8-7,36.1-7c12.3,0,24.3,2.3,36.1,7c11.7,4.6,22.3,11.6,31.5,20.9L1531.6,95z"/>
<path class="st8" d="M1702.4,90.4v153h-68.6v-153h-48.2V21.9h164.9v68.6H1702.4z"/>
</svg>
