<?xml version="1.0" encoding="utf-8"?>
<!-- Generator: Adobe Illustrator 24.2.0, SVG Export Plug-In . SVG Version: 6.00 Build 0)  -->
<svg version="1.1" xmlns="http://www.w3.org/2000/svg" xmlns:xlink="http://www.w3.org/1999/xlink" x="0px" y="0px"
	 viewBox="0 0 499.8 272.4" style="enable-background:new 0 0 499.8 272.4;" xml:space="preserve">
<style type="text/css">
	.st0{display:none;}
	.st1{display:inline;fill:#EA5E48;}
	.st2{display:inline;fill:#2A2E2D;}
	.st3{display:inline;fill:#6B6866;}
	.st4{display:inline;fill:#31302F;}
	.st5{display:inline;fill:#7D7A78;}
	.st6{display:inline;fill:#605F5C;}
	.st7{display:inline;}
	.st8{fill:#FDFDFC;}
	.st9{fill:#FFFFFF;}
	.st10{fill:none;stroke:#FFFFFF;stroke-width:1.95;}
	.st11{fill:none;stroke:#FFFFFF;stroke-width:2.64;}
	.st12{display:inline;fill:#E95E48;}
	.st13{fill:#1E1E1C;}
</style>
<g id="bg" class="st0">
	<polyline class="st1" points="-36.7,-384.4 124.3,-517.4 -36.7,-517.4 	"/>
	<rect x="-36.7" y="-517.4" class="st2" width="595.3" height="841.9"/>
</g>
<g id="moon" class="st0">
	<path class="st2" d="M29.9-89.7c-0.1,0.5-2.8,17.3-2.8,17.5c0.1,0.2,3.9,17,3.9,17l21.9,10.9c0,0,18.3,13.7,18.8,13.7
		c0.5,0,27.7-1.4,27.8-1.6c0.1-0.2,14.7-43,14.7-43"/>
	<circle class="st2" cx="267" cy="-130.6" r="241.7"/>
	<path class="st3" d="M267.5-378.7c1.5,0.2,2.7,0.3,3.8,0.3c5.9,0.2,11.8,0.8,17.7,1.3c9,0.8,17.8,2.3,26.6,4
		c5.8,1.1,11.5,2.8,17.2,4.2c9.8,2.3,19.1,6.3,28.3,10.2c3.5,1.5,7,3,10.6,4.6c11.1,4.9,21.5,11.2,31.4,18.2
		c5.2,3.6,10.6,6.8,15.3,11c6.9,6,13.5,12.3,20.1,18.6c8.2,8,15.6,16.7,22.9,25.6c2,2.5,3.6,5.3,5.5,7.9
		c9.7,13.2,17.3,27.5,24.2,42.3c2.7,5.7,4.6,11.7,6.7,17.6c5,14.7,8.6,29.8,11,45.1c1.3,8.5,2.2,17,2.1,25.7c-0.1,8.4,0,16.9,0,25.3
		c0,5.5-1,10.8-1.5,16.3c-0.3,3-0.7,5.9-1,8.9c-0.2,1.9-0.6,3.8-1.3,5.6c-0.6,1.4-0.5,2.9-1.1,4.2c-1-0.5-1.9-1.3-3-1.7
		c-1.6-0.7-2.4-0.3-2.7,1.5c-1,5.7-2.4,11.4-3.5,17.2c-0.1,0.7-0.3,1.4-0.4,2c-0.1,0.5-0.2,1.2-0.9,1.2c-0.6,0.1-1-0.4-1.3-0.8
		c-0.1-0.1-0.2-0.2-0.3-0.4c-2.1-2.8-2.1-2.8-4.8-0.3c-0.8,0.8-1.8,2.1-2.9,1.5c-1.3-0.8-0.4-2.2-0.1-3.3c1.8-6.7,3.5-13.4,5.4-20
		c0.5-1.8,0.1-3.3-0.7-5c-1.9-4-5.4-5.5-9.2-6.6c-2.6-0.8-4.2-2.4-5.3-4.9c-6.1-13.1-12.1-26.4-18.2-39.5
		c-2.5-5.4-5.9-10.4-9.3-15.4c-3.6-5.2-5.5-10.8-6.3-17c-0.5-4.1-1.4-8.2-2-12.3c-0.2-1.5-0.8-2.3-2.5-2.6c-2.7-0.4-5.2-0.2-7.6,0.9
		c-2.6,1.1-5.3,2-8,3c-2.2,0.8-2.5,0.6-2.9-1.7c-0.7-4.8-1.1-9.6-1.3-14.4c-0.5-11.4-2.1-22.7-5.2-33.6c-2.3-7.9,0.1-15,2-22.3
		c0.4-1.7,1.4-1.7,2.5,0c3,4.2,5.9,8.4,8.8,12.7c1.8,2.7,1.8,2.7,4.8,1.2c1.6-0.8,3.1-1.8,4.6-2.6c2.5-1.2,2.5-1.4,0.7-3.6
		c-3.2-3.7-6.3-7.4-9.5-11c-0.2-0.2-0.5-0.4-0.6-0.7c-2.1-3.4-5.1-5.3-9.1-5c-5.8,0.4-10.4-2.6-15-5.6c-4.3-2.8-8.7-5.4-13.5-8.3
		c1.7,3.9,3.3,7.3,4.8,10.8c0.8,1.8,1.6,3.7,2.4,5.5c0.3,0.7,0.9,1.7,0.1,2.3c-0.8,0.6-1.6-0.1-2.3-0.5c-5.3-3.3-10.7-6.7-16-10.1
		c-1.5-0.9-2.9-1.1-4.6-0.6c-5.8,1.6-11.6,3.1-17.3,4.9c-2.4,0.7-4.3,0.3-6.4-1.1c-5.7-3.8-10.1-8.7-13.5-14.5
		c-1.3-2.3-3.1-3.9-5.6-4.8c-2.6-0.9-5.1-2.2-7.7-3.1c-3.2-1.1-5.5-3.3-7.7-5.7c-1.3-1.5-1-2.5,1-2.7c1.8-0.2,3.7-0.3,5.5-0.5
		c1.2-0.2,1.8-0.7,1.8-1.9c-0.1-4.4-0.4-8.7-1-13.1c-0.2-1.4-1.3-2-2.3-2.7c-5.7-4-11.5-8-17.2-12c-0.4-0.3-0.8-0.5-1.1-0.8
		c-4.1-4.1-9.4-4.8-14.8-5.2c-7.9-0.7-15.7-1.7-23.6-2.6c-4.1-0.5-8.1,0.2-12.2,0.5c-5.2,0.4-10.4,0.7-15.6,1.2
		c-5.3,0.5-10.5,0.8-15.8,1.2c-3.1,0.3-6.3,0.4-9.4,0.6c-2.1,0.1-3.7,0.8-5.1,2.2c-2.2,2.1-4.5,4-6.8,5.9c-0.6,0.5-1.2,1.1-2,0.7
		c-0.7-0.4-0.7-1.2-0.7-1.9c0.1-4.7-0.1-9.4-0.5-14c-0.2-2.1,0.8-3.2,2.7-4c6.2-2.6,12.5-5.2,18.7-7.9c0.3-0.1,0.7-0.2,1-0.8
		c-2.2-1.1-4.6-1.7-6.8-2.7c-5.3-2.5-10.8-3.7-16.7-3.2c-3.7,0.3-7.5,0.1-11.3,0c-2.4-0.1-4.5,0.5-6.6,1.6
		c-16.5,8.3-32.9,16.5-49.5,24.7c-3.2,1.6-5.9,3.7-8.5,6.2c-7.1,6.6-14.2,13.1-21.3,19.7c-6,5.5-12.1,10.9-17.8,16.6
		c-3.1,3.1-4.7,7.4-7.2,10.9c-8.2,11.4-13,24.5-18.2,37.4c-0.9,2.2-0.8,2.4,1.5,3c6.7,1.8,6,1.1,4.9,7.8
		c-1.8,11.2-4.3,22.3-6.6,33.4c-0.6,3.1-2.3,5.7-3.8,8.3c-5.4,9.4-10.2,19.1-14.9,28.8c-1.4,3-1.9,6.1-2.2,9.3
		c-0.1,1,0.4,1.8,0.9,2.6c1.8,3,3.8,6,5.7,9c1.9,3.1,1.6,3.7-2,4.5c-3.6,0.8-7.2-0.1-10.7-0.5c-1.3-0.1-2-1.1-2.5-2.2
		c-0.6-1.4-1.2-2.8-1.4-3.6c1.2,4.7,2,10.2,3,15.7c0.4,2.6,1.3,4.7,3.7,6c0.1,0.1,0.3,0.2,0.4,0.3c5.1,6,10.8,3,16.4,1.2
		c1.4-0.5,1.8-2,2.4-3.2c1.7-3.2,2-3.4,5.3-2.1c4.7,1.8,9.5,3.6,14.1,5.6c3.1,1.4,3.3,2.2,1.5,5c-0.8,1.2-1.5,2.3-2.2,3.5
		c-0.7,1.1-0.5,2,0.5,2.8c2.8,2.2,5.5,4.4,8.2,6.7c1.2,1,2,0.8,2.8-0.4c1.1-1.7,2.4-3.2,3.4-4.9c1.9-3.2,4.8-5.4,7.8-7.4
		c1.6-1.1,7-0.8,8.3,0.5c1.4,1.4,1.6,3.2,1,5.1c-1.2,3.8-2.5,7.6-3.8,11.4c-0.7,2.1-0.8,4.2-0.4,6.3c2,10.7,3.8,21.5,7.2,31.9
		c1.2,3.8-0.3,6.9-1.8,10.1c-0.6,1.4-1.8,1.2-2.9,0.6c-2.7-1.4-5.4-3-8-4.5c-0.7-0.4-1.5-0.9-2.4-0.5c-1.8,0.8-2.1,2.5-0.6,3.8
		c2.7,2.3,5.4,4.6,8,6.9c0.6,0.5,1.5,1.1,1.4,2c-0.2,1-1.3,0.9-2.1,1.2c-0.3,0.1,0.1,0-0.2,0.1c-7.6,1.7-7.6,1.7-13.7-3.1
		c-0.7-0.6-1.4-1.2-2.2-1.7c-0.6-0.4-1.1-1.4-1.9-0.9c-0.7,0.4-0.6,1.4-0.5,2.1c0.1,2.3-0.5,4.6-0.5,6.9c0,0.7,0,1.6-0.8,1.7
		c-0.8,0.1-1.1-0.6-1.5-1.2c-0.3-0.5-0.6-1.1-0.9-1.6C65.5-49,60.1-61.4,54.7-73.8c-1.4-3.2-3.1-5.7-6.5-6.9
		c-2.3-0.8-4.4-2.1-6.6-3.3c-1.7-0.9-3.1-1-4.6,0.4c-1.7,1.6-3.5,3-5.3,4.5c-1.3,1.1-1.4,2.2-1,3.6c1.6,5.2,3.2,10.4,4.6,15.7
		c0.2,0.9,0.8,1.9,0.1,2.6c-0.9,0.9-1.9,0.2-2.8-0.1c-1.3-0.4-2.7-0.7-3.8-1.6c-1.2-4-3.1-7.8-3.5-12c-0.5-4.4-2-8.5-2.8-12.8
		c-0.7-3.3-1-6.7-1.4-10c-0.8-6.4-1.5-12.8-2.2-19.1c-0.1-1.1-0.3-2.1-0.1-3.2c0.2-0.2,0.5,0.4,0.6,0.1c1.1-8.1,0.3-13.9-0.8-21.2
		c-0.6-3.7-0.5-3.1-0.6-3.5c-0.4-2.9-0.1-5.9-0.2-8.9c0.4-4.3,0.6-8.6,1.2-12.8c0.7-4.5,1.4-9.1,2.1-13.6c2.3-15.4,7-30.2,12.5-44.7
		c4.1-10.8,9.1-21.1,14.8-31.1c3.7-6.5,7.6-12.8,11.5-19.2c2.4-3.9,5.5-7.4,8.3-11c7-9,14.5-17.6,22.7-25.6
		c11.6-11.4,24.1-21.8,38-30.4c5.8-3.6,11.3-7.6,17.4-10.7c9.5-4.9,19.2-9.5,29.3-13.4c11.7-4.4,23.6-7.9,35.7-10.7
		c12.3-2.9,24.8-5,37.5-5.4c3.7-0.1,7.3,0.2,11-0.4C262.8-378.7,264.6-378.7,267.5-378.7z"/>
	<path class="st2" d="M241.2,113.1c-0.7,0-1.4-0.1-2-0.3c-2.6-1.2-5.3-1.1-8.1-1.2c-5.4-0.1-10.7-1.1-15.9-2.5
		c-0.5-0.1-1-0.3-1.6-0.4c-6.9-0.7-13.3-3.3-19.9-5.5c-3-1-6.1-1.6-9.1-2.2c-1.7-0.3-3.3-0.6-4.8-1.5c-0.9-0.6-1.9-0.9-3-1.2
		c-1.5-0.4-2.9-1-4-2.1c-0.9-0.9-2-1.4-3.2-1.8c-5.5-1.8-7-0.8-12.2-3.2c-1.6-0.7-6.4-4.1-8.7-5.3c-1.9-0.4-3.5-1.6-4.9-2.8
		c-2.5-2.1-5.3-3.6-8.3-4.8c-0.9-0.4-1.7-0.9-2.5-1.6c-1.2-1.2-2.6-2.1-4.1-3c-4.2-2.7-8.5-5-12.3-8.4c-3.4-3-6.8-6.2-10.8-8.6
		c-1-0.6-1.8-1.4-2.7-2.2c-1.7-1.4-3.4-2.9-4.9-4.5c-0.7-0.8-1.5-1.3-2.5-1.6c-2.9-3-5.8-5.9-8.6-8.9c-1.6-1.7-3.3-3.5-5.2-4.9
		c-1.4-1.1-2.6-2.4-3.3-4c-0.6-1.2-1.4-2.2-2.2-3.2c-1.8-2.1-3.6-4.2-5.2-6.4c-2-2.7-4.5-5-6.3-7.8c-1.1-1.7-2.5-3.3-3.4-5.2
		c-0.4-1-1.2-1.8-1.9-2.6c-0.6-0.7-1-1.5-1.3-2.4c-0.7-1.8-1.9-3.2-3.1-4.7c-1-1.3-1.9-2.7-2.8-4.2c-2.7-4.8-5.3-9.7-8.1-14.4
		c-2.2-3.7-3.8-7.8-5.8-11.7c-1.6-3.3-2.8-6.8-4.1-10.2c-1.1-3.1-1.8-6.3-3.2-9.3c-1.1-2.3-1.7-4.9-2.5-7.3c2.2,0,4,1.4,6.1,1.7
		c0.5-0.4,0.3-0.8,0.2-1.2c-1.7-5.6-3.4-11.3-5-16.9c-0.1-0.4-0.2-0.7-0.3-1.1c-0.4-1.1-0.2-1.7,0.8-2.5c2.4-1.8,4.6-3.8,6.8-5.8
		c0.9-0.8,1.8-1,2.9-0.4c3.8,2,7.7,3.8,11.5,5.7c0.8,0.4,1.2,1,1.6,1.8c4.7,10.1,8.9,20.4,13.7,30.4c1.7,3.6,3.6,7.1,5.2,10.8
		c0.3,0.8,0.8,1.5,1.3,2.2c0.7-4,0.6-8,1.4-12c1.7,0.6,2.6,2,3.9,2.9c1.9,1.4,3.7,3,5.5,4.5c0.6,0.5,1,0.7,1.8,0.5
		c3-0.5,6-1,9.4-1.8c-4-3.5-7.9-6.8-11.7-10c0-0.6,0.4-0.9,0.6-1.2c2-2.9,2.4-3,5.5-1.2c2.6,1.5,5.2,3,7.8,4.5
		c1.1,0.6,1.5,0.5,1.9-0.6c0.7-1.9,1.3-3.8,2-5.6c0.3-0.7,0.2-1.3,0-2c-1.5-5.4-3-10.8-4.2-16.2c-1.3-5.7-2.1-11.6-3.3-17.3
		c-0.6-2.8-0.3-5.3,0.6-7.9c1.2-3.4,2.3-6.8,3.5-10.2c0.5-1.4,0.3-2.7-0.1-4c-0.2-0.7-0.6-1.1-1.4-1.3c-1.5-0.2-3-0.6-4.5-0.8
		c-0.8-0.1-1.5,0-2.2,0.5c-3.1,2.2-6.2,4.5-8.2,7.9c-1.1,1.8-2.4,3.6-3.6,5.3c-0.9,1.2-1.3,1.3-2.4,0.3c-3.2-2.5-6.3-5.1-9.5-7.6
		c-1.4-1.2-1.4-1.3-0.4-2.8c1.1-1.7,2.1-3.4,3.2-5c0.9-1.4,0.9-1.7-0.7-2.4c-3.2-1.4-6.5-2.7-9.8-4c-2.5-1-5-1.8-7.5-2.8
		c-0.9-0.4-1.4-0.1-1.8,0.7c-0.6,1.3-1.3,2.6-1.9,3.9c-0.4,0.9-1,1.4-2,1.7c-3.1,0.8-6.2,1.7-9.3,2.5c-1,0.3-1.9,0.1-2.8-0.6
		c-2.2-1.8-4.5-3.4-6.8-5.1c-0.9-0.7-1.4-1.5-1.6-2.7c-1.1-6.2-2.3-12.5-3.5-18.7c-0.1-0.5-0.3-1,0.2-1.7c0.8,1.8,1.5,3.4,2.1,5.1
		c0.6,1.6,1.6,2.6,3.4,2.4c1.5-0.1,3.1,0.3,4.5,0.6c2.5,0.5,4.7-0.4,7-0.6c0.9-0.1,0.9-0.7,0.5-1.4c-1.1-1.8-2.1-3.5-3.2-5.3
		c-1.3-2-2.5-4-3.8-6c-0.4-0.6-0.8-1.1-0.7-1.9c0.5-2.9,0.3-5.9,1.7-8.7c2.5-4.9,4.6-10,7.1-15c2.4-4.8,5.2-9.4,7.8-14.1
		c1.2-2.1,2.3-4.1,3.5-6.2c0.9-1.8,1.1-3.8,1.5-5.7c1.6-7.3,3.1-14.7,4.5-22c0.9-4.4,1.5-8.9,2.3-13.3c0.2-1-0.2-1.2-1-1.4
		c-1.8-0.5-3.5-1-5.3-1.5c-2.1-0.6-2.1-0.6-1.3-2.6c1.2-2.9,2.4-5.8,3.6-8.7c2.2-5.5,4.5-10.9,6.9-16.3c1-2.2,2.4-4.2,3.7-6.3
		c3.2-5.1,6.4-10.3,9.6-15.4c1-1.6,2.1-2.9,3.5-4.1c3.1-2.7,6-5.7,9.1-8.5c4.9-4.5,9.9-9,14.8-13.5c3.2-3,6.3-6.1,9.6-9
		c2.9-2.5,5.5-5.4,8.5-7.7c0.7-0.5,1.4-0.9,2.1-1.3c17.7-8.9,35.4-17.7,53.1-26.6c1.3-0.7,2.7-1,4.2-1c6.1,0,12.3,0.1,18.4,0
		c2.4-0.1,4.5,0.7,6.6,1.5c4,1.5,8,3,12,4.6c0.2,0.1,0.4,0.3,0.7,0.5c-1.6,1.3-3.6,1.8-5.3,2.5c-5.4,2.4-10.9,4.6-16.3,6.9
		c-1.1,0.5-1.8,1-1.7,2.4c0.3,5.3,0.5,10.7,0.5,16.1c0,0.1,0.2,0.2,0.3,0.5c1.4-0.6,2.3-1.9,3.5-2.8c1.8-1.4,3.5-3,5.2-4.6
		c1.3-1.2,2.7-1.7,4.5-1.8c5.7-0.4,11.4-0.6,17.1-1.2c2.6-0.3,5.2-0.4,7.8-0.6c5.5-0.4,11-0.8,16.4-1.3c5.8-0.5,11.6-1.1,17.4,0.2
		c3.1,0.7,6.4,0.7,9.6,1.1c3.6,0.4,7.1,0.9,10.7,1.3c1.8,0.2,3.6,0.4,5.5,0.5c0.9,0.1,1.7,0.3,2.4,0.8c8.4,5.9,16.8,11.8,25.3,17.6
		c0.6,0.4,1,0.8,1.1,1.6c0.3,4.2,0.6,8.4,0.9,12.6c0,0.5,0,0.9,0,1.4c0,1.9,0,1.9-1.9,2c-2,0.2-3.9,0.6-5.9,0.5
		c-0.6,0-1,0.2-1.8,0.7c2.5,2.2,4.2,5.1,7.7,6.3c3.6,1.2,7.1,2.9,10.7,4.3c1.1,0.5,1.9,1.3,2.6,2.2c2.1,3,4.1,5.9,6.1,8.9
		c0.7,1.1,1.6,2.1,2.6,2.8c2.4,1.8,5,3.6,7.3,5.5c1.1,0.9,2.2,0.6,3.2,0.3c4.6-1.3,9.3-2.6,13.9-3.9c2.1-0.6,4.1-1.1,6.2-1.7
		c1-0.3,1.7,0.1,2.5,0.6c5.8,3.7,11.5,7.3,17.3,10.9c0.4,0.2,0.8,0.4,1.6,0.9c-0.6-2.7-1.9-4.6-2.7-6.7c-0.8-2.1-1.9-4.2-2.8-6.3
		c-1-2.2-1.9-4.4-3-6.9c1.4,0.4,2.3,1.1,3.3,1.7c6.1,3.8,12.2,7.6,18.4,11.3c1.7,1,3.7,0.9,5.6,1.1c2.1,0.2,4.2,0.7,6.4,0.6
		c1,0,1.8,0.4,2.6,1.3c4.9,5.7,9.8,11.4,14.7,17.1c0.8,0.9,0.4,1.3-0.4,1.7c-2.9,1.5-5.7,3-8.6,4.4c-1.5,0.8-1.6,0.8-2.5-0.6
		c-3.2-4.7-6.4-9.3-9.6-14c-0.3-0.5-0.7-1-1.2-1.6c-0.9,1.4-1,2.8-1.3,4.2c-0.8,3.1-1.5,6.2-2.2,9.4c-0.3,1.2-0.3,2.4-0.1,3.7
		c1.7,7.9,3.4,15.8,5.1,23.7c0.1,0.4,0.2,0.8,0.2,1.1c-0.1,3.1,0.4,6.1,0.6,9.2c0.2,4.6,0.9,9.3,1.2,13.9c0.2,2.6,0.2,5.2,0.7,7.8
		c0.8,0.1,1.5-0.3,2.2-0.5c3.1-1.2,6.3-2.4,9.5-3.6c1.7-0.7,3.4-0.7,5.2-0.3c0.2,0,0.4,0.1,0.7,0.2c1,0.2,2.2-0.3,2.8,0.5
		c0.5,0.7,0.4,1.7,0.6,2.6c1.1,6.7,2.3,13.4,3.3,20.1c0.1,0.8,0.3,1.5,0.7,2.1c4.2,6.8,8.5,13.7,12.6,20.6c1.2,2,2,4.1,3,6.2
		c3.2,7,6.4,14.1,9.6,21.1c2.4,5.2,4.8,10.3,7.2,15.4c0.5,1,1.1,1.8,2.2,2.2c2.2,0.8,4.4,1.8,6.7,2.5c1.5,0.5,2.5,1.4,3.3,2.7
		c0.3,0.5,0.5,0.9,0.8,1.4c2.4,3.8,2.4,3.8,1.2,7.9c-1.9,6.9-3.8,13.7-5.6,20.6c-0.1,0.3-0.2,0.6,0.1,1c1.2-0.1,1.8-1.3,2.7-1.9
		c1.1-0.8,1.8-2.6,3.2-2.5c1.4,0.1,1.3,2,2.2,3c0.4,0.4,0.4,1.2,1.3,1.4c1.1-5.5,2.3-11,3.4-16.5c0.3-1.6,0.6-3.3,1-4.9
		c0.3-1.7,0.5-1.8,2.1-1.1c0.9,0.4,1.8,0.8,2.7,1.2c0.7,0.3,1.1,0.8,1.2,1.5c-0.2,0.7-0.3,1.5-0.5,2.2c-2,5.5-2.4,11.4-4.3,16.9
		c-1.9,5.5-3.5,11.1-5.4,16.6c-1.2,3.6-2.5,7.3-4.1,10.8c-1.5,3.4-2.3,7-4.2,10.2c-2.5,4.1-4.2,8.7-6.8,12.7
		c-3,4.7-5.4,9.8-8.4,14.5c-1.7,2.7-3.5,5.4-5.7,7.8c-2.7,2.9-4.6,6.3-7,9.4"/>
	<path class="st4" d="M18.4-128.9c-0.5-2.5,0-5,0-7.5c0-1.3-0.4-4.2,0-4c0.4-0.1,0.9-0.3,1,0.5c0.1,2.1,0.4,4.3,0.5,6.4
		c0.2,3.5,0.2,7,0.7,10.5c0.2,1.5,0.2,3-0.2,4.6c-0.4,1.4-0.5,2.9-0.8,4.5c-0.5-0.6-0.1-1.5-0.7-1.9
		C18.7-120.3,18.5-124.6,18.4-128.9z"/>
	<path class="st5" d="M300.7,111.8c-4.7,0.8-10.6,1.2-16,1.7c-6,0.6-13.2,1.2-20.3,0.9c-2.7-0.3-5.8-0.3-8.5-0.4
		c-5.4-0.2-8.3-0.8-13.7-0.9c-5-0.1-9.9-0.5-14.9-0.9c-5.2-0.5-10.3-1.3-15.4-2.5c-8.9-2-17.8-4-26.7-5.9c-2.9-0.6-5.7-1.7-8.4-3
		c-6-2.9-12-5.8-18.1-8.6c-2-0.9-2.9-2.3-2.9-4.3c0-1.3-0.6-2-1.8-2.4c-1.1-0.4-2.2-1-3.4-1.5c-6-2.3-11.1-6.2-16.5-9.7
		c-11.5-7.4-23-15-34.5-22.5c-0.8-0.5-1.4-1.2-1.9-2c-4.2-7-8.3-14-12.5-21c-0.1-0.2-0.1-0.4-0.3-0.9c3,1.3,5.7,2.6,8.5,3.5
		c4.1,1.4,7.4,4.1,10.5,6.9c2.4,2.2,4.9,4.3,7.3,6.4c0.4,0.3,0.7,0.8,1.4,0.6c-4.9-9.6-12.1-17.4-18.4-26.1
		c4.8,2.7,9.5,5.4,14.6,8.3c0.4-3.1,0-5.9,0.3-9.1c4.5,5.9,8,12,12.4,18c0.7-2.3,1.5-4.3,2-6.3c0.5-2.4,1.7-4.5,3-6.5
		c0.6-1,0.9-2.1,0.9-3.3c0.3-6-1-11.8-2-17.6c-0.5-3-0.6-3-3.7-3c-1.1,0-2.2,0-3.2,0c-1.9,0-1.9,0-2.4-1.8c-1.2-4-2.5-8-3.6-12.1
		c-0.3-1.1-0.7-1.5-1.8-1.7c-4.3-0.7-8.6-1.5-12.9-2.3c-0.2,0-0.5,0-0.7-0.1c-2.6-0.5-2.6-0.5-1.6-2.9c0.3-0.8,0.7-1.6,0.9-2.4
		c0.4-1.4,1.4-1.9,2.7-2.1c3.6-0.4,7.2-0.7,10.7-1c2.4-0.2,2.5-0.2,3.1-2.5c0.9-3.4,1.8-6.8,2.7-10.4c4.7,1.4,9.3,2.8,14.1,4.2
		c0-0.9-0.6-1-0.9-1.3c-3.2-2.3-6.4-4.5-9.7-6.7c-1.3-0.9-2.3-1.8-1.6-3.6c0.2-0.4,0.1-0.9,0.1-1.4c0-1,0.6-1.4,1.4-1.5
		c2.4-0.2,4.9-0.5,7.3-0.9c0.6-0.1,1,0.2,1.4,0.6c2.8,3,5.8,5.8,8.5,8.9c2.8,3.1,5.9,5.9,8.9,8.9c1.4-1.3,2.6-2.8,3.7-4.4
		c1.2-1.6,2.6-2.5,4.5-2.9c4.2-0.8,8.4-1.6,12.6-2.4c0.6-0.1,1.1-0.3,1.8-0.8c-4.7-2.9-9.7-4.6-14.7-7.5c2.5-0.1,4.6-0.3,6.7,0.1
		c2.5,0.5,2.4-0.1,3.5-1.7c1.8-2.8,3.5-5.7,5.2-8.6c0.2-0.4,0.5-0.8,1.1-1.1c2.1,1.8,3.6,4.1,5.5,6.1c2.2,2.5,4.3,5.1,6.4,7.6
		c0.5,0.6,1.2,0.9,2,1.1c2.5,0.7,5,1.5,7.5,2.3c1.1,0.4,2.1,0.1,3.2-0.2c3-0.9,6-1.8,9-2.7c1.2-0.4,2.4-0.4,3.6-0.1
		c4.8,1.2,9.5,2.3,14.3,3.4c2,0.4,1.7,0.7,2.5-1.3c2-4.7,3.9-9.5,6-14.2c0.8-1.8,0.8-3.6,1-5.5c0.5-4.8,0.8-9.6,1-14.4
		c0.1-1,0.4-1.8,0.8-2.6c4.1-7.4,8.1-14.8,12.2-22.2c0.5-1,0.6-1.8,0.3-2.9c-1.3-3.6-2.4-7.3-3.8-10.8c-0.9-2.3-2.6-4.2-4.1-6.2
		c-1.7-2.4-3.1-4.9-3.9-7.8c-1.4-5.2-3-10.3-4.5-15.4c-0.5-1.6-0.4-1.8,1.2-2.4c2-0.7,3.9-1.3,5.9-2c4.7-1.5,9.2-3.3,13.6-5.6
		c3.2-1.7,6.8-2.4,10.2-3.6c0.1,0,0.2,0,0.2,0c2.9-1.8,4.6,0,6.2,2.1c1.7,2.1,3.5,4.1,5.3,6.2c0.7,0.9,1.5,1.2,2.6,1.1
		c5.8-0.5,11.6-0.7,17.4-1.3c1.4-0.2,2.7,0.1,4.5-0.4c-2.3-3.1-4.5-6.1-6.7-8.9c-3.8-5-7.2-10.3-10.6-15.5c-1.1-1.6-1-1.7,0.7-2.6
		c2.4-1.2,4.8-2.5,7.2-3.6c1.6-0.8,3-1.8,4.2-3.2c1.8-2.1,3.9-4,5.7-6.1c1.2-1.5,1.3-1.4,2.7-0.2c3.2,2.6,5.9,5.9,9.1,8.5
		c0.7,0.5,1.1,1.3,1.5,2.1c1.3,2.6,2.7,5.2,3.9,8c0.7,1.5,1.6,1.9,3.2,2c3.7,0.2,7.3,0.2,11,0.8c0.6,0.1,1.2-0.1,1.8-0.4
		c5.9-3.2,11.8-6.4,17.6-9.8c2.2-1.3,4.1-3.1,6.1-4.6c1.3-1,1.4-1,2.3,0.4c2.4,4,4.8,8,7.2,11.9c0.6,0.9,0.7,1.8,0,2.8
		c-1.1,1.8-2.1,3.8-3.1,5.7c-0.3,0.5-0.5,1-0.5,1.5c-0.2,4.9-0.6,9.8-0.5,14.7c0,1,0.4,1.8,0.8,2.6c4.1,8.4,8.2,16.8,12.3,25.1
		c1.4,2.9,2.4,5.9,3.5,8.9c1.4,3.8,2.6,7.7,4.2,11.4c1.2,2.9,2.9,5.7,4.4,8.4c0.7,1.3,1.1,2.7,1.1,4.2c-0.1,2.7,0.1,5.3-0.1,8
		c-0.1,1.9,0.6,3.3,1.8,4.6c0.6,0.6,1.1,1.3,1.8,2.2c1.2-2.7,1.7-5.2,2.4-7.6c1.3-4.4,2.5-8.8,3.7-13.2c0.2-0.5,0.3-1,0.8-1.4
		c6.9-6.2,13.8-12.4,20.7-18.6c1.4,1,2.5,2.4,3.6,3.6c2.7,3,5.3,6,8,9c1.3,1.4,2.5,2.9,3.9,4.3c0.7,0.7,0.8,1.4,0.5,2.3
		c-0.6,1.9-1,3.9-1.7,5.8c-1.1,3-1.6,6.2-1.9,9.3c-0.3,2.5-0.9,5.1-0.6,7.7c0.4,3.5,0.7,7,1.1,10.4c0.4,3.4,0.8,6.8,1.2,10.2
		c0.3,2.5,0.6,4.9,0.9,7.4c0.1,0.9,0.7,1.4,1.2,1.9c2.8,2.4,5.6,4.9,8.4,7.3c0.3,0.3,0.5,0.6,0.8,0.8c1,0.7,1.2,1.6,0.7,2.8
		c-1.3,3.3-2.5,6.7-3.7,10.1c-0.4,1.1-1.1,2-2,2.8c-2.6,2.4-5.1,4.9-7.8,7.3c-1.1,1-1.6,1.9-1.1,3.5c0.4,1.5,0.5,3.2,0.7,4.8
		c0.1,0.9,0.2,1.7,0.7,2.5c1.4-0.9,2.8-1.8,4.2-2.8c2.2-1.4,4.4-2.9,6.6-4.3c4-2.6,7.3-6.2,10.8-9.4c2.5-2.3,5-4.6,7.5-6.9
		c0.8-0.7,1.4-1.6,1.7-2.7c2.2-6.6,4.4-13.3,6.7-19.9c0.7-2.1,0.3-2.2,2.9-1.9c4.1,0.3,8.2,0.7,12.3,1.2c0.8,0.1,1.3-0.1,2-0.4
		c2.2-0.9,4.4-1.9,6.6-2.8c0.4-0.2,0.9-0.5,1.3-0.2c0.5,0.4,0.1,1-0.1,1.5c-1.2,3.4-2.6,6.6-3.4,10.1c-0.7,2.8-1.5,5.6-2.2,8.3
		c-0.1,0.5-0.3,1.1-0.7,1.5c-1,0-1.8-0.8-2.5-1.4c-1.1-0.8-1.9-0.7-2.9,0.1c-3.7,3.1-7.6,6.1-11.4,9.1c-0.6,0.5-1.2,0.9-2,1.4
		c-1.2-2-1.2-4.4-2.6-6.5c-1.3,2.2-2.5,4.2-3.6,6.1c-2.7,4.6-5.3,9.3-8,13.9c-0.8,1.3-0.9,2.3,0.1,3.6c1.1,1.4,1.9,3,2.9,4.5
		c1.5,2.4,1.5,2.4-0.1,4.7c-2.6,3.8-5.3,7.6-7.9,11.5c-3.3,5-6.2,10.4-9.3,15.6c-1.8,3.1-3.5,6.2-6.5,8.3c-2.2,1.6-4.3,3.5-6.3,5.5
		c-3,3.1-6.8,5-10.5,7.1c-2.6,1.5-5.2,3-7.8,4.5c-1.6,0.9-3,2.2-4.3,3.5c-2.9,2.8-6.4,4.8-9.9,6.7c-4.5,2.5-9,5-13.5,7.6
		c-5.4,3.1-11.3,4.8-17.1,6.9c-3.5,1.3-7.1,2.5-10.6,3.9c-2.9,1.2-5.5,3.1-8.2,4.7"/>
	<path class="st5" d="M316.5,101.7"/>
	<path class="st6" d="M180.1-202.4c2.7-0.9,5.2-1.7,7.6-2.6c1.8-0.6,1.8-0.7,1.4-2.4c-0.9-3.9-1.7-7.8-2.7-11.6
		c-0.7-2.8-2.1-5.4-3.3-8.1c-0.9-2.2-1.8-4.4-2.8-6.5c-0.4-0.9-0.5-1.5,0.5-2.3c3.4-2.6,6.7-5.3,10.1-8c0.5-0.4,1.2-0.6,1.9-0.8
		c5.3-1.1,10.6-2.3,15.9-3.5c1.1-0.3,1.9,0,2.4,1.1c1.2,2.7,2.8,5.3,3.8,8.1c0.5,1.3,1.3,2.3,2.7,2.9c3,1.5,6,3.1,9,4.7
		c0.8,0.5,1.5,0.4,2.3-0.2c3.3-2.4,6.7-4.6,10-7c0.9-0.6,1.7-0.9,2.7-0.5c5.6,1.8,11.2,3.6,16.8,5.3c1.1,0.3,1.6,0.8,1.1,1.9
		c-0.2,0.4-0.2,0.9-0.4,1.3c-1.4,4.4-2.8,8.7-4.2,13.1c-0.2,0.5-0.2,1.1-0.5,1.5c-2.4,3.8-4.8,7.5-7.2,11.2c-0.4,0.6-1.1,0.8-1.8,1
		c-1,0.3-2.1,0.5-3.1,0.9c-2.1,1-3.9,0.6-5.9-0.4c-1.5-0.8-3-1.5-4.6-2.1c-0.9-0.3-1.6-0.2-2.4,0.2c-0.9,0.5-1.8,0.9-2.5,1.6
		c-3,2.7-6.8,2.9-10.5,3.1c-2.1,0.1-4.1,0.5-6.2,0.6c-1.8,0.1-2.1,0.5-1.9,2.4c0.1,2-0.4,4-0.5,5.9c-0.2,3.2,1,6,1.8,8.9
		c1.2,4.4,2.4,8.7,3.6,13c0.1,0.2,0.1,0.4-0.2,0.7c-1.4-1.6-2.6-3.3-3.8-5c-0.9-1.3-1.9-2.6-2.8-3.9c-0.5-0.8-1-1-1.9-0.6
		c-2.4,0.9-4.8,1.6-7.2,2.4c-0.5,0.2-1,0.4-1.5,0.5c-0.7,0.1-1.1-0.1-0.9-1c0.6-2.8,1.1-5.7,1.8-8.5c0.8-3.7,0.8-3.7-2.6-5.4
		c-0.8-0.4-1.6-0.9-2.5-1.2c-3.1-1.2-5.2-3.5-7.1-6C183-199.2,181.4-200.4,180.1-202.4z"/>
	<path class="st6" d="M316.4-246.5c-0.8-5.4-1.5-10.4-2.2-15.5c-0.1-0.9-0.6-1.5-1.2-2.1c-2.3-2.3-4.6-4.6-6.8-6.8
		c-0.5-0.5-0.9-1-1.5-1.7c1.9-0.3,3.4,0.2,4.9,0.6c2.1,0.5,3.6,0.1,4.9-1.9c2.5-3.7,5.3-7.1,8-10.6c1-1.4,1.2-1.3,2,0
		c2.1,3.5,3.2,7.2,3.2,11.3c0,2.6,0.5,5.2,0.7,7.7c0,0.4,0.1,0.8,0.1,1.1c-0.4,2.8,0.8,5,2.4,7.2c1.9,2.6,3.5,5.4,5.4,8
		c0.8,1.1,1,2,0.1,3.2c-3,4.5-5.9,9.1-8.9,13.7c-1.5,2.2-1.8,4.9-2.6,7.3c-0.8,2.3-1.5,4.7-2.1,7c-0.3,1.2-1,1.5-2.2,1.4
		c-2.3-0.4-4.7-0.6-7-1.1c-0.7-0.1-1.3-0.1-2,0c-5,1.2-10.1,2.3-15.2,3.6c-1.1,0.3-2.1,0.2-3.1-0.3c-2.1-1.1-4.2-2.3-6.3-3.3
		c-0.9-0.4-1.3-1.3-1.9-2c-2.1-2.8-4.2-5.6-6.3-8.5c-1.2-1.6-1.2-1.8,0.4-2.7c3.6-2.1,7.3-4.3,10.9-6.4c1.7-1,3.4-2,5.1-3.1
		c1.5-0.9,1.5-1,0.4-2.3c-3-3.8-6.1-7.6-9.2-11.5c-1.4-1.7-2.8-3.4-4.2-5.2c-0.9-1.2-0.9-1.5,0.6-2.2c3.1-1.5,6.2-2.9,9.3-4.5
		c1.1-0.6,1.9-0.1,2.7,0.5c3.8,2.8,7.5,5.8,11.4,8.5c2.8,2,4.7,4.8,6.9,7.3C314.3-248.6,315.1-247.5,316.4-246.5z"/>
	<path class="st5" d="M92.9,41.6l2.9,6.9c0,0,16.4,14.1,19.9,16.8c3.4,2.7,18.1,12.4,21.7,14.6c3.5,2.2,18.6,10.9,22,12.5
		c3.4,1.6,19.4,3.2,19.4,3.2l-8.2-22.4l-55-22.7"/>
	<polyline class="st2" points="193.2,-358.2 181.4,-360.7 160.1,-362.2 53.8,-292.6 68.7,-262.7 	"/>
	<path class="st5" d="M413.9,34.4"/>
	<path class="st5" d="M264.5,114.4c62.4,0,119.4-23.7,162.3-62.5c0,0,9.2-8.6,14.7-25.6c5.5-17-25.6-0.9-25.6-0.9l-17.7,13"/>
	<path class="st5" d="M256.7-20.1c0,0-12.3-50.8-25.3-52s-58.8,0-58.8,0L167-52.8l21.5,15.1"/>
	<path class="st5" d="M114.4,41.6c0,0-8.1,0.3-8,0.6c0.1,0.3,3.2,5.9,3.2,5.9h7.6"/>
</g>
<g id="Text" class="st0">
	<g class="st7">
		<path class="st8" d="M185.1-448.7l0.6-2.6l2.9,0.3l-1.4-2.2l2.3-1.5l0.9,2.8l2.1-2.8l1.7,1.5l-2.3,2.2l3-0.3l-0.6,2.6l-2.9-0.3
			l1.4,2.2l-2.3,1.4l-0.9-2.8l-2.1,2.8l-1.7-1.4l2.3-2.2L185.1-448.7z M190.1-450.8c-0.2,0-0.4,0.1-0.6,0.2
			c-0.2,0.2-0.3,0.4-0.4,0.6c-0.1,0.6,0.1,0.8,0.7,0.8c0.5,0,0.9-0.3,1-0.8c0-0.2,0-0.4-0.1-0.6
			C190.6-450.7,190.4-450.8,190.1-450.8z"/>
		<path class="st8" d="M199.5-448.7l0.6-2.6l2.9,0.3l-1.4-2.2l2.3-1.5l0.9,2.8l2.1-2.8l1.7,1.5l-2.3,2.2l3-0.3l-0.6,2.6l-2.9-0.3
			l1.4,2.2l-2.3,1.4l-0.9-2.8l-2.1,2.8l-1.7-1.4l2.3-2.2L199.5-448.7z M204.6-450.8c-0.2,0-0.4,0.1-0.6,0.2
			c-0.2,0.2-0.3,0.4-0.4,0.6c-0.1,0.6,0.1,0.8,0.7,0.8c0.5,0,0.9-0.3,1-0.8c0-0.2,0-0.4-0.1-0.6C205-450.7,204.8-450.8,204.6-450.8z
			"/>
		<path class="st8" d="M219.6-440.7h-5.4l-2.9,6.4l-1.9-0.5l9.1-19.6h2.4l0.8,19.5l-2,0.5L219.6-440.7z M219.5-442.4l-0.3-9.2
			l-4.2,9.2H219.5z"/>
		<path class="st8" d="M239.4-434.6l4.2-19.7l2,0l-1.8,8.3h6.1l1.8-8.3l2,0l-4.2,19.7l-2,0l2.1-9.7h-6.1l-2.1,9.7L239.4-434.6z"/>
		<path class="st8" d="M255.7-434.6l0.4-1.8h2.2l2.5-11.9h-2.2l0.4-1.8h6.3l-0.4,1.8l-2.1,0l-2.5,11.9l2.1,0l-0.4,1.8H255.7z"/>
		<path class="st8" d="M280.2-442.8l-1.4,6.8c-1.7,1.2-3.3,1.7-5.1,1.7c-1.5,0-2.6-0.4-3.3-1.3c-0.7-0.9-1.1-2.1-1.1-3.8
			c0-0.9,0.2-2.3,0.6-4c0.4-1.7,1.2-3.3,2.5-4.7c1.3-1.4,2.9-2.1,4.7-2.1c1,0,1.8,0.3,2.6,0.8c0.7,0.5,1.3,1.2,1.7,2.2l-1.9,1.1
			c-0.6-1.5-1.5-2.2-2.9-2.2c-1.1,0-2.1,0.5-3,1.6c-0.8,1.1-1.4,2.2-1.7,3.4c-0.3,1.2-0.4,2-0.5,2.5c-0.1,0.5-0.1,0.9-0.1,1.3
			c0,2.3,0.9,3.5,2.7,3.5c1,0,2-0.3,3-0.9l0.8-4.1l-3.7,0l0.4-1.8H280.2z"/>
		<path class="st8" d="M282.7-434.6L286-450l2,0l-1.4,6.4h6.1l1.4-6.4l2,0l-3.3,15.4l-2,0l1.5-7.2h-6.1l-1.5,7.2L282.7-434.6z"/>
		<path class="st8" d="M300.3-441.3l0.4-2h6.6l-0.4,2H300.3z"/>
		<path class="st8" d="M321.3-438.7l1.4,1.1c-1.9,2.1-3.8,3.2-5.8,3.2c-2.9,0-4.3-1.9-4.3-5.6c0-1.3,0.3-3.2,0.8-5.7
			c0.5-2.5,1.5-4.6,2.9-6.4c1.4-1.7,3-2.6,5-2.6c2,0,3.4,1.1,4.1,3.2l-1.9,1c-0.3-0.9-0.6-1.5-1-1.8c-0.4-0.3-0.9-0.5-1.7-0.5
			c-2.6,0-4.2,1.8-5,5.4c-0.8,3.6-1.1,6-1.1,7.2c0,2.6,0.9,4,2.6,4C318.6-436.2,319.9-437,321.3-438.7z"/>
		<path class="st8" d="M334.3-450.3c1.3,0,2.4,0.4,3.1,1.3c0.7,0.9,1,2.1,1,3.7c0,0.9-0.2,2.2-0.6,4c-0.4,1.8-1.2,3.4-2.5,4.8
			c-1.3,1.4-2.8,2.1-4.5,2.1c-1.3,0-2.4-0.4-3.1-1.3c-0.7-0.9-1-2.1-1-3.7c0-0.4,0-0.8,0-1.2c0-0.4,0.2-1.4,0.6-3
			c0.3-1.6,1.2-3.1,2.4-4.5C331.2-449.5,332.6-450.3,334.3-450.3z M333.9-448.4c-1.1,0-2.1,0.5-2.9,1.6c-0.8,1-1.4,2.3-1.7,3.8
			c-0.3,1.5-0.5,2.7-0.5,3.6c0,2.2,0.8,3.3,2.4,3.3c1.1,0,2.1-0.5,2.9-1.6c0.8-1,1.4-2.3,1.7-3.9c0.3-1.5,0.5-2.7,0.5-3.5
			C336.4-447.3,335.6-448.4,333.9-448.4z"/>
		<path class="st8" d="M340.5-434.6l3.3-15.4h2.2l2.7,9.5c0.2,0.7,0.4,1.8,0.5,3.5c0.2-1.5,0.4-2.8,0.6-3.7l2-9.3l1.8,0l-3.3,15.4
			l-2.2,0l-2.6-9.5c-0.1-0.4-0.2-0.9-0.3-1.4c-0.1-0.5-0.2-1.2-0.3-2.1c-0.1,0.6-0.1,1.1-0.2,1.5c-0.1,0.4-0.2,1.2-0.4,2.2l-2,9.3
			L340.5-434.6z"/>
		<path class="st8" d="M358.9-434.6l2.9-13.6h-4.3l0.4-1.8h10.4l-0.4,1.8h-4.1l-2.9,13.6L358.9-434.6z"/>
		<path class="st8" d="M369.9-434.6l3.3-15.4h5c1.5,0,2.5,0.3,3.1,0.8c0.6,0.5,0.9,1.3,0.9,2.3c0,0.2,0,0.3,0,0.5
			c0,0.2-0.1,0.6-0.2,1.1c-0.1,0.6-0.5,1.2-1.2,2c-0.7,0.8-1.6,1.3-2.7,1.7l2.4,6.2l-2,1l-2.5-7h-2.8l-1.4,6.6L369.9-434.6z
			 M373.6-443l2.4,0c1.1,0,2-0.2,2.7-0.7c0.7-0.5,1.1-1,1.2-1.6c0.1-0.6,0.2-0.9,0.2-1.1c0-0.6-0.1-1.1-0.4-1.3
			c-0.3-0.2-0.6-0.4-0.9-0.5c-0.4-0.1-1-0.1-1.8-0.1l-2.3,0L373.6-443z"/>
		<path class="st8" d="M392.3-438.8h-5.4l-2.4,4.6l-1.8-0.7l8.1-15.1h2.5l1.6,15.1l-2.1,0.7L392.3-438.8z M392.2-440.6l-0.7-7.1
			l-3.7,7.1H392.2z"/>
		<path class="st8" d="M399.1-438.9l1.9-0.6c0,2.2,0.9,3.3,2.7,3.3c0.9,0,1.6-0.2,2.2-0.7c0.6-0.5,1-1,1.1-1.5
			c0.1-0.5,0.2-0.9,0.2-1.1c0-0.4-0.2-0.8-0.5-1.1c-0.3-0.3-1.1-0.7-2.2-1.2c-1.1-0.5-1.9-0.9-2.4-1.3c-0.7-0.5-1-1.1-1-2
			c0-0.1,0-0.3,0-0.4c0-0.1,0.1-0.5,0.3-1.3c0.2-0.8,0.7-1.5,1.7-2.3c1-0.8,2.2-1.2,3.5-1.2c2.6,0,3.8,1.3,3.8,3.9l-2,0.6
			c0-1.7-0.8-2.6-2.3-2.6c-0.7,0-1.4,0.2-1.9,0.6c-0.5,0.4-0.9,0.8-0.9,1.2c-0.1,0.4-0.1,0.7-0.1,0.8c0,0.5,0.1,0.9,0.4,1.1
			s0.5,0.4,0.6,0.4c0.2,0.1,0.8,0.4,1.9,0.9c1.1,0.5,1.9,1,2.4,1.5c0.5,0.5,0.7,1.1,0.7,1.9c0,0.3-0.1,0.9-0.3,1.8
			c-0.2,0.9-0.8,1.8-1.9,2.6c-1.1,0.8-2.3,1.2-3.8,1.2C400.5-434.3,399.1-435.8,399.1-438.9z"/>
		<path class="st8" d="M416.6-434.6l2.9-13.6h-4.3l0.4-1.8H426l-0.4,1.8h-4.1l-2.9,13.6L416.6-434.6z"/>
		<path class="st8" d="M377.3-408.1h-5.4l-2.9,6.4l-1.9-0.5l9.1-19.6h2.4l0.8,19.5l-2,0.5L377.3-408.1z M377.2-409.9l-0.3-9.2
			l-4.2,9.2H377.2z"/>
		<path class="st8" d="M386.9-415.6h-1.6l0.4-1.8h5.5c1.1,0,2,0.1,2.6,0.4c0.6,0.3,1.1,0.7,1.6,1.4c0.4,0.7,0.6,1.5,0.6,2.6
			c0,0.8-0.2,2.1-0.5,3.6c-0.3,1.6-0.7,2.8-1.2,3.8c-0.5,1-1.1,1.7-1.8,2.3c-0.7,0.5-1.4,0.9-2.1,1.1c-0.7,0.2-1.5,0.3-2.4,0.3h-5.5
			l0.4-1.8h1.6L386.9-415.6z M388.9-415.6l-2.5,11.9l1.8,0c1.5,0,2.6-0.4,3.4-1.3c0.8-0.9,1.3-2.2,1.7-3.8c0.4-1.7,0.5-2.9,0.5-3.8
			c0-1-0.2-1.8-0.7-2.2c-0.5-0.5-1.3-0.7-2.4-0.7L388.9-415.6z"/>
		<path class="st8" d="M403.1-406.5l6.6-11.3l1.7,0.7l-9.2,15.5h-0.4l-2.6-15.5l2.1-0.7L403.1-406.5z"/>
		<path class="st8" d="M412.4-402l3.3-15.4h9.6l-0.4,1.8h-7.6l-1,4.6h6.3l-0.4,1.8h-6.3l-1.1,5.4h7.6L422-402H412.4z"/>
		<path class="st8" d="M426.1-402l3.3-15.4h2.2l2.7,9.5c0.2,0.7,0.4,1.8,0.5,3.5c0.2-1.5,0.4-2.8,0.6-3.7l2-9.3l1.8,0l-3.3,15.4
			l-2.2,0l-2.6-9.5c-0.1-0.4-0.2-0.9-0.3-1.4c-0.1-0.5-0.2-1.2-0.3-2.1c-0.1,0.6-0.1,1.1-0.2,1.5c0,0.4-0.2,1.2-0.4,2.2l-2,9.3
			L426.1-402z"/>
		<path class="st8" d="M444.5-402l2.9-13.6h-4.3l0.4-1.8h10.4l-0.4,1.8h-4.1l-2.9,13.6L444.5-402z"/>
		<path class="st8" d="M466-417.4l2,0l-2.3,10.9c-0.3,1.6-1,2.8-2,3.6c-1,0.8-2.3,1.2-3.9,1.2c-2.6,0-4-1.1-4-3.4
			c0-0.4,0.1-0.9,0.2-1.4l2.3-10.9l2,0l-2.3,10.9c-0.1,0.4-0.1,0.7-0.1,1.1c0,1.3,0.8,1.9,2.3,1.9c1.9,0,3.1-1,3.5-3L466-417.4z"/>
		<path class="st8" d="M469.9-402l3.3-15.4h5c1.5,0,2.5,0.3,3.1,0.8c0.6,0.5,0.9,1.3,0.9,2.3c0,0.2,0,0.3,0,0.5
			c0,0.2-0.1,0.6-0.2,1.1c-0.1,0.6-0.5,1.2-1.2,2c-0.7,0.8-1.6,1.3-2.7,1.7l2.4,6.2l-2,1l-2.5-7h-2.8l-1.4,6.6L469.9-402z
			 M473.6-410.4l2.4,0c1.1,0,2-0.2,2.7-0.7c0.7-0.5,1.1-1,1.2-1.6c0.1-0.6,0.2-0.9,0.2-1.1c0-0.6-0.1-1.1-0.4-1.3
			c-0.3-0.2-0.6-0.4-0.9-0.5c-0.4-0.1-1-0.1-1.8-0.1l-2.3,0L473.6-410.4z"/>
		<path class="st8" d="M484.5-402l3.3-15.4h9.6l-0.4,1.8h-7.6l-1,4.6h6.3l-0.4,1.8H488l-1.1,5.4h7.6l-0.4,1.8H484.5z"/>
		<path class="st8" d="M501.5-416.1l0.6-2.6l2.9,0.3l-1.4-2.2l2.3-1.5l0.9,2.8l2.1-2.8l1.7,1.5l-2.3,2.2l3-0.3l-0.6,2.6l-2.9-0.3
			l1.4,2.2l-2.3,1.4l-0.9-2.8l-2.1,2.8l-1.7-1.4l2.3-2.2L501.5-416.1z M506.6-418.2c-0.2,0-0.4,0.1-0.6,0.2
			c-0.2,0.2-0.3,0.4-0.4,0.6c-0.1,0.6,0.1,0.8,0.7,0.8c0.5,0,0.9-0.3,1-0.8c0-0.2,0-0.4-0.1-0.6C507-418.1,506.8-418.2,506.6-418.2z
			"/>
		<path class="st8" d="M515.9-416.1l0.6-2.6l2.9,0.3l-1.4-2.2l2.3-1.5l0.9,2.8l2.1-2.8l1.7,1.5l-2.3,2.2l3-0.3l-0.6,2.6l-2.9-0.3
			l1.4,2.2l-2.3,1.4l-0.9-2.8l-2.1,2.8l-1.7-1.4l2.3-2.2L515.9-416.1z M521-418.2c-0.2,0-0.4,0.1-0.6,0.2c-0.2,0.2-0.3,0.4-0.4,0.6
			c-0.1,0.6,0.1,0.8,0.7,0.8c0.5,0,0.9-0.3,1-0.8c0-0.2,0-0.4-0.1-0.6C521.4-418.1,521.3-418.2,521-418.2z"/>
	</g>
</g>
<g id="Logo">
	<path class="st9" d="M76.8,108.7V30.4H101v54h16.7v24.2H76.8z"/>
	<path class="st9" d="M122.9,108.7V30.4h24.2v78.2H122.9z"/>
	<path class="st9" d="M215.2,91c-7.2,7.2-15.9,10.7-26,10.7c-10.1,0-18.8-3.6-25.9-10.7c-7.2-7.2-10.7-15.8-10.7-25.9
		c0-10.1,3.6-18.8,10.7-25.9c7.2-7.2,15.8-10.7,25.9-10.7c10.1,0,18.8,3.6,26,10.7C222.4,46.3,226,54.9,226,65
		C226,75.2,222.4,83.8,215.2,91z M198,56.3c-2.4-2.4-5.4-3.7-8.8-3.7c-3.4,0-6.3,1.2-8.7,3.7c-2.4,2.4-3.6,5.4-3.6,8.8
		c0,3.4,1.2,6.4,3.6,8.8c2.4,2.4,5.3,3.7,8.7,3.7c3.4,0,6.4-1.2,8.8-3.7c2.4-2.4,3.7-5.4,3.7-8.8C201.6,61.6,200.4,58.7,198,56.3z"
		/>
	<path class="st9" d="M253.3,75.1v33.6H229V25.1L283.4,68V30.4h24.3v87.7L253.3,75.1z"/>
	<g>
		<path class="st9" d="M179.8,151.7c4.2-9.9,8.9-16.7,13.9-20.3c5.3-3.9,12.3-5.8,21-5.8c10,0,18.6,3.7,25.7,11
			c6.9,7.1,10.4,16.5,10.4,28.4c0,11.3-3.4,20.8-10.2,28.4c-6.7,7.5-14.3,11.2-22.8,11.2c-6.2,0-12-2.3-17.4-6.9
			c-3.5-3-8.2-9.6-14.3-20.1c-4.1,7.8-8.6,13.5-13.3,16.9c-4.8,3.4-10.5,5.1-17.4,5.1c-9,0-16.6-3.2-22.8-9.6
			c-6.3-6.3-9.5-14.7-9.5-25.1c0-10.4,2.9-18.8,8.7-25.1c5.8-6.3,12.5-9.5,20.3-9.5c5.5,0,10.3,1.4,14.3,4.2
			C170.4,137.2,174.9,142.9,179.8,151.7z M177.1,159c-3.1-6.9-6.6-12.1-10.6-15.3c-4-3.3-8.9-4.9-14.7-4.9c-3.2,0-6.3,0.6-9.2,1.8
			c-2.9,1.2-5.4,3-7.4,5.2c-2.1,2.3-3.7,5-4.9,8.2c-1.2,3.2-1.8,6.8-1.8,10.6c0,8.6,2.2,15.3,6.6,20.1c4.5,5,9.5,7.5,15,7.5
			c5.9,0,11.2-2.7,15.8-8.1C168.8,180.6,172.6,172.2,177.1,159z M188.8,170.7c2.3,5,4.6,9.1,6.8,12.3c2.2,3.2,4.6,5.8,6.9,7.6
			c2.4,1.9,4.9,3.2,7.4,3.9c2.6,0.7,5.3,1.1,8.1,1.1c3.9,0,7.5-0.7,10.8-2.2c3.3-1.5,6.2-3.5,8.6-6.2c2.4-2.6,4.3-5.8,5.7-9.6
			c1.4-3.8,2.1-8,2.1-12.6c0-9.4-2.8-17-8.3-23c-5.4-6-11.5-9.1-18.3-9.1c-4.4,0-8.2,1.1-11.4,3.3c-3.2,2.2-6.1,5.7-8.7,10.6
			C196.9,150,193.6,158,188.8,170.7z"/>
	</g>
	<g>
		
			<image style="overflow:visible;opacity:0.6;" width="1146" height="1017" xlink:href="7D3C3767119D71CB.png"  transform="matrix(0.24 0 0 0.24 10.8653 30.5183)">
		</image>
		<g>
			<g>
				<path class="st10" d="M243.4,247.3c-12.8,7.9-26.7,11.9-41.6,11.9c-3,0-6-0.2-9.1-0.5c-3-0.3-6-0.8-9.1-1.4
					c-3-0.6-6-1.5-9.1-2.5c-3-1-6-2.2-9.1-3.5c-5.1-2.2-8.5-3.7-10.2-4.5c-1.8-0.8-3.1-1.5-4.1-2.1c-1-0.6-2.3-1.4-4.1-2.1
					c-1.8-0.8-5.2-2.3-10.2-4.5c-3-1.3-6.1-2.3-9.2-3c-3.1-0.7-6.2-1.1-9.2-1.1c-5.9,0-11.3,1.5-16.2,4.5c-4.9,3-8.7,7.7-11.4,14.1
					l-42.9-17.6c2.7-6.2,5.8-11.8,9.4-16.7c3.6-4.9,7.6-9.2,12-12.9c-13.5-7.5-24.5-18-32.9-31.6C28.2,160.2,24,145.2,24,128.8
					c0-24.1,8.5-44.7,25.6-61.7c17.1-17,37.6-25.5,61.6-25.5c24.1,0,44.7,8.5,61.7,25.5c17,17,25.5,37.6,25.5,61.7
					c0,14.3-3.2,27.6-9.7,39.8c-6.4,12.2-15.1,22.3-25.9,30.3c2.1,1,3.6,1.7,4.5,2.1c1,0.5,1.7,0.9,2.4,1.2c1.1,0.6,2.5,1.4,4.2,2.3
					c1.7,0.9,5,2.4,10.1,4.6c3,1.3,6,2.2,8.9,2.7c2.9,0.6,5.8,0.8,8.7,0.8c6,0,11.5-1.5,16.4-4.4c4.9-2.9,8.9-6.8,11.6-13.3
					l42.8,17.2C265.9,227.7,256.2,239.3,243.4,247.3z"/>
			</g>
		</g>
	</g>
	<path class="st11" d="M311.6,166.3c0,7.7-2.8,14.4-8.3,19.9c-5.5,5.5-12.2,8.3-20,8.3c-7.7,0-14.4-2.8-20-8.3
		c-5.6-5.5-8.4-12.2-8.4-19.9v-34.9h21.4v34.9c0,2.2,0.7,3.9,2.2,5c1.5,1.1,3.1,1.7,4.8,1.7c1.7,0,3.2-0.5,4.6-1.6
		c1.4-1.1,2.1-2.8,2.1-5v-34.9h21.5V166.3z"/>
	<path class="st11" d="M367.4,176.8H338v2.3h21.3v21.4h-42.7v-68.9h42.7V153H338v2.3h29.4V176.8z"/>
	<path class="st11" d="M422.1,139l-15.1,15.2c-0.7-0.7-1.4-1.3-2.3-1.7c-0.9-0.4-1.8-0.7-2.7-0.8c-0.1,0-0.3,0-0.5,0
		c-0.2,0-0.3,0-0.5,0c-1.1,0-2.2,0.2-3.2,0.6c-1.1,0.4-2,1-2.8,1.9c-0.8,0.8-1.4,1.7-1.8,2.7c-0.4,1-0.6,2.1-0.6,3.2
		c0,1.1,0.2,2.2,0.6,3.2c0.4,1.1,1,2,1.8,2.8l3.7,3.7c1.9,1.9,3.3,4,4.2,6.3c0.9,2.3,1.4,4.7,1.4,7.1c0,2.4-0.5,4.8-1.4,7.1
		c-0.9,2.3-2.3,4.4-4.1,6.3c-1.9,1.9-4,3.3-6.3,4.1c-2.3,0.9-4.7,1.3-7.1,1.3c-0.2,0-0.4,0-0.6,0c-0.2,0-0.4,0-0.6,0
		c-2.2-0.1-4.4-0.6-6.6-1.5c-2.2-0.9-4.1-2.2-5.8-3.9l11.8-11.7c-0.3-0.2-0.5-0.4-0.8-0.7c-0.2-0.2-0.5-0.5-0.8-0.8
		c-0.1-0.1-0.3-0.3-0.4-0.4c-0.1-0.1-0.3-0.3-0.4-0.4c-0.2-0.3-0.4-0.5-0.7-0.8c-0.3-0.3-0.5-0.5-0.7-0.8c-2.9-3-5.1-6.2-6.6-9.9
		c-1.5-3.6-2.2-7.4-2.2-11.2c0-3.8,0.7-7.6,2.2-11.3c1.5-3.7,3.7-7,6.6-9.9c3-2.9,6.3-5.1,9.9-6.5c3.7-1.4,7.4-2.2,11.2-2.2
		c3.8,0,7.6,0.7,11.2,2.2C415.9,134,419.2,136.1,422.1,139z"/>
	<path class="st11" d="M475.2,152.8h-15v47.7h-21.4v-47.7h-15v-21.4h51.4V152.8z"/>
	<g>
		<path class="st9" d="M284.5,235.6h2.3v-12.4h-2.3v-1.9h6.6v1.9h-2.3v12.4h2.3v1.9h-6.6V235.6z"/>
		<path class="st9" d="M305.9,221.4h2.6l6.2,13.5l0.1-0.1l-0.2-4.2v-9.3h2.1v16.1H314l-6.2-13.5l-0.1,0.1l0.2,4.2v9.3h-2.1V221.4z"
			/>
		<path class="st9" d="M330.9,221.4H341v1.9h-8.1v4.8h6.8v1.9h-6.8v7.6h-2.1V221.4z"/>
		<path class="st9" d="M354.8,235.6h2.3v-12.4h-2.3v-1.9h6.6v1.9h-2.3v12.4h2.3v1.9h-6.6V235.6z"/>
		<path class="st9" d="M376.2,221.4h2.6l6.2,13.5l0.1-0.1l-0.2-4.2v-9.3h2.1v16.1h-2.6l-6.2-13.5l-0.1,0.1l0.2,4.2v9.3h-2.1V221.4z"
			/>
		<path class="st9" d="M401.7,235.6h2.3v-12.4h-2.3v-1.9h6.6v1.9H406v12.4h2.3v1.9h-6.6V235.6z"/>
		<path class="st9" d="M427.5,223.2h-4.4v-1.9h10.9v1.9h-4.4v14.2h-2.1V223.2z"/>
		<path class="st9" d="M456.2,221l1.9,1l-5.2,9.3v6.2h-2.1v-6.2l-5.2-9.3l1.9-1l4.3,8.3L456.2,221z"/>
	</g>
</g>
<g id="sash" class="st0">
	<polyline class="st12" points="-36.1,-366.5 145.2,-516.2 -36.1,-516.2 	"/>
	<g class="st7">
		<path class="st13" d="M-11.2-445.3l-0.4-0.6c1-0.9,1.2-1.8,0.6-2.9l-6.4-10.3c-0.5-0.6-1.3-0.5-2.3,0.3l-0.4-0.7l2.9-2.4
			c0.4-0.3,0.7-0.6,0.9-0.7c0.2-0.2,0.4-0.4,0.6-0.5s0.3-0.3,0.5-0.4c0.2-0.2,0.4-0.3,0.7-0.6c2.3-1.9,4.2-1.9,5.8,0
			c0.5,0.6,0.9,1.2,1.1,1.9c0.3,0.7,0.4,1.4,0.3,2.1c0,0.7-0.2,1.4-0.6,2.1c-0.4,0.7-1,1.4-1.7,2.1c-0.4,0.3-0.7,0.6-1.1,0.9
			c-0.4,0.3-0.8,0.5-1.2,0.7l2.6,4.2c0,0.1,0.1,0.2,0.2,0.3c0.6,0.8,1.5,0.7,2.5-0.1l0.4,0.6L-11.2-445.3z M-15.7-462.2
			c-0.5,0.4-0.5,1,0,1.7l3.2,5.2c0.7-0.3,1.4-0.8,2.2-1.5c0.4-0.4,0.7-0.8,0.9-1.2c0.2-0.5,0.2-1,0.1-1.5c-0.1-0.5-0.2-1-0.4-1.5
			c-0.2-0.5-0.5-1-0.9-1.4c-1.3-1.6-2.9-1.6-4.7-0.1L-15.7-462.2z"/>
		<path class="st13" d="M1.1-458.5c0,0.3,0,0.7,0,1.1c0,0.4-0.1,0.8-0.2,1.1c-0.1,0.4-0.2,0.7-0.3,1c-0.1,0.3-0.3,0.5-0.4,0.6
			c-0.1,0.1-0.3,0.2-0.5,0.1c-0.2,0-0.4-0.2-0.6-0.5c-0.1-0.1-0.1-0.2-0.2-0.3l-6.7-11.5c0-0.1-0.1-0.2-0.2-0.2
			c-0.1-0.1-0.1-0.2-0.2-0.2c-0.5-0.5-1-0.5-1.5-0.1l-0.4-0.6l1.9-2.6l7.3,12.3c0.1,0.1,0.2,0.3,0.3,0.4c0.1,0.2,0.2,0.3,0.3,0.4
			c0.2,0.2,0.3,0.3,0.4,0.2c0.2-0.1,0.3-0.7,0.3-1.5L1.1-458.5z"/>
		<path class="st13" d="M8.9-465c0,0.3,0.1,0.7,0,1c0,0.4-0.1,0.8-0.1,1.1c-0.1,0.4-0.2,0.7-0.3,1s-0.3,0.5-0.4,0.6
			c-0.1,0.1-0.3,0.2-0.4,0.1c-0.1,0-0.3-0.1-0.5-0.3c-0.1-0.1-0.1-0.1-0.2-0.2c0-0.1-0.1-0.1-0.1-0.2L5.5-464
			c0.1,0.4,0.1,0.9,0.2,1.4c0,0.5,0,1.1,0,1.6c0,0.6-0.1,1.1-0.3,1.5c-0.1,0.5-0.4,0.8-0.7,1.1c-0.1,0.1-0.3,0.2-0.5,0.3
			c-0.2,0.1-0.4,0.1-0.6,0c-0.2,0-0.5-0.2-0.8-0.4c-0.3-0.2-0.7-0.6-1.1-1.1c-0.7-0.8-1.2-1.7-1.6-2.7c-0.4-1-0.5-2-0.5-3
			c0-1,0.1-1.9,0.4-2.7s0.7-1.5,1.3-2c0.2-0.2,0.4-0.3,0.6-0.4c0.2-0.1,0.3-0.1,0.5-0.2c0.2,0,0.3-0.1,0.5-0.1
			c0.2-0.1,0.3-0.2,0.5-0.3l3.8,6.1c0.1,0.1,0.2,0.2,0.3,0.4c0.1,0.1,0.2,0.3,0.3,0.4c0.1,0.1,0.2,0.2,0.3,0.3s0.2,0.1,0.2,0
			c0.1-0.1,0.2-0.6,0.2-1.5L8.9-465z M2.6-468.9c-0.2,0-0.5,0-0.7,0.1c-0.2,0.1-0.4,0.2-0.6,0.4c-0.4,0.4-0.6,0.9-0.7,1.5
			c0,0.6,0.1,1.3,0.3,2.1c0.2,0.7,0.5,1.4,0.9,2.2c0.4,0.7,0.8,1.3,1.2,1.8c0.3,0.3,0.5,0.5,0.6,0.7c0.2,0.2,0.3,0.3,0.4,0.3
			c0.1,0,0.2,0,0.3,0c0.1,0,0.2-0.1,0.3-0.2c0.1-0.1,0.2-0.4,0.3-0.8c0.1-0.4,0.1-0.9,0.1-1.5c0-0.6-0.1-1.1-0.1-1.8
			c-0.1-0.6-0.2-1.2-0.4-1.6L2.6-468.9z"/>
		<path class="st13" d="M7.4-471.9c-0.2-0.2-0.4-0.3-0.4-0.2c-0.1,0.1-0.1,0.2-0.2,0.5s0,0.6,0.1,0.9l-0.6-0.1
			c-0.1-0.3-0.1-0.6-0.2-0.9c0-0.3,0-0.6,0-1c0-0.3,0.1-0.6,0.2-0.9c0.1-0.3,0.2-0.5,0.4-0.6s0.4-0.2,0.7-0.2c0.3,0,0.6,0.2,0.9,0.6
			l5,5.2c-0.1-0.6-0.2-1.2-0.3-1.9c-0.1-0.7-0.3-1.3-0.4-1.9c-0.2-0.6-0.4-1.2-0.6-1.7c-0.2-0.5-0.4-0.9-0.7-1.2
			c-0.1-0.1-0.2-0.2-0.3-0.2s-0.2-0.1-0.2-0.1c-0.1,0-0.1-0.1-0.2-0.1s-0.1-0.1-0.2-0.2c-0.2-0.3-0.3-0.5-0.3-0.8
			c0-0.3,0.1-0.5,0.3-0.6c0.3-0.2,0.5-0.3,0.8-0.2c0.3,0.1,0.5,0.3,0.8,0.6c0.2,0.2,0.3,0.5,0.5,0.8c0.1,0.3,0.3,0.8,0.4,1.3
			c0.1,0.6,0.3,1.3,0.5,2.2c0.2,0.9,0.3,2.1,0.5,3.5c0.2,1.4,0.4,2.7,0.5,3.7s0.2,1.8,0.2,2.5c0,0.7,0,1.2-0.1,1.5
			c-0.1,0.3-0.2,0.6-0.3,0.7c-0.4,0.4-0.8,0.3-1.1,0c-0.2-0.2-0.3-0.4-0.3-0.6c0-0.2,0-0.3,0.1-0.5c0.1-0.2,0.2-0.4,0.3-0.6
			c0.1-0.2,0.2-0.5,0.3-0.8c0.1-0.3,0.2-0.7,0.2-1.1s-0.1-1-0.2-1.6L7.4-471.9z"/>
		<path class="st13" d="M24-477.6c0,0.3,0.1,0.7,0,1c0,0.4-0.1,0.8-0.1,1.1c-0.1,0.4-0.2,0.7-0.3,1c-0.1,0.3-0.3,0.5-0.4,0.6
			c-0.1,0.1-0.3,0.2-0.4,0.1c-0.1,0-0.3-0.1-0.5-0.3c-0.1-0.1-0.1-0.1-0.2-0.2c0-0.1-0.1-0.1-0.1-0.2l-1.4-2.1
			c0.1,0.4,0.1,0.9,0.2,1.4c0,0.5,0,1.1,0,1.6c0,0.6-0.1,1.1-0.3,1.5c-0.1,0.5-0.4,0.8-0.7,1.1c-0.1,0.1-0.3,0.2-0.5,0.3
			c-0.2,0.1-0.4,0.1-0.6,0c-0.2-0.1-0.5-0.2-0.8-0.4c-0.3-0.2-0.7-0.6-1.1-1.1c-0.7-0.8-1.2-1.7-1.6-2.7c-0.4-1-0.5-2-0.5-2.9
			c0-1,0.1-1.9,0.4-2.7c0.3-0.8,0.7-1.5,1.3-2c0.2-0.2,0.4-0.3,0.6-0.4c0.2-0.1,0.3-0.1,0.5-0.2c0.2,0,0.3-0.1,0.5-0.1
			c0.2-0.1,0.3-0.2,0.5-0.3l3.8,6.1c0.1,0.1,0.2,0.2,0.2,0.4c0.1,0.1,0.2,0.3,0.3,0.4c0.1,0.1,0.2,0.2,0.3,0.3s0.2,0.1,0.2,0
			c0.1-0.1,0.2-0.6,0.2-1.5L24-477.6z M17.6-481.5c-0.2,0-0.5,0-0.7,0.1c-0.2,0.1-0.4,0.2-0.6,0.4c-0.4,0.4-0.6,0.9-0.7,1.5
			c0,0.6,0.1,1.3,0.3,2.1c0.2,0.7,0.5,1.4,0.9,2.2c0.4,0.7,0.8,1.3,1.2,1.8c0.3,0.3,0.5,0.5,0.6,0.7c0.2,0.2,0.3,0.3,0.4,0.3
			c0.1,0,0.2,0,0.3,0c0.1,0,0.2-0.1,0.3-0.2c0.1-0.1,0.2-0.4,0.3-0.8c0.1-0.4,0.1-0.9,0.1-1.5c0-0.6-0.1-1.1-0.1-1.8
			c-0.1-0.6-0.2-1.2-0.4-1.6L17.6-481.5z"/>
		<path class="st13" d="M19.3-488.8c-0.1-0.1-0.1-0.2-0.2-0.3c-0.1-0.1-0.1-0.2-0.2-0.2c-0.6-0.7-1.2-0.9-1.7-0.5l-0.4-0.6l1.9-2.6
			l4,6.4c0.1-0.5,0.3-1,0.5-1.3c0.2-0.4,0.5-0.7,0.9-1.1c0.4-0.3,0.8-0.5,1.2-0.6c0.4-0.1,0.8-0.1,1.3,0c0.4,0.1,0.9,0.3,1.3,0.6
			c0.4,0.3,0.8,0.7,1.2,1.1c0.6,0.7,1.1,1.5,1.4,2.3c0.3,0.8,0.5,1.6,0.5,2.4c0,0.8-0.1,1.6-0.4,2.3c-0.3,0.7-0.8,1.4-1.5,2
			c-0.4,0.3-0.8,0.6-1.4,0.8c-0.5,0.2-0.9,0.4-1.3,0.4L19.3-488.8z M26.6-480.2c0.3,0.3,0.7,0.5,1.1,0.6c0.4,0.1,0.9-0.1,1.3-0.4
			c0.3-0.3,0.5-0.6,0.7-1c0.1-0.4,0.2-0.9,0.1-1.5c-0.1-0.5-0.2-1.1-0.5-1.7c-0.3-0.6-0.6-1.2-1.1-1.8c-0.3-0.3-0.5-0.6-0.9-0.9
			c-0.3-0.3-0.6-0.5-1-0.7c-0.3-0.2-0.7-0.3-1-0.3s-0.7,0.1-1,0.4c-0.4,0.3-0.6,0.6-0.8,0.9c-0.1,0.3-0.2,0.7-0.3,1.1L26.6-480.2z"
			/>
		<path class="st13" d="M35.7-487.5c0,0.3,0,0.7,0,1.1c0,0.4-0.1,0.8-0.2,1.1c-0.1,0.4-0.2,0.7-0.3,1c-0.1,0.3-0.3,0.5-0.4,0.6
			c-0.1,0.1-0.3,0.2-0.5,0.1c-0.2,0-0.4-0.2-0.6-0.5c-0.1-0.1-0.1-0.2-0.2-0.3l-6.7-11.5c0-0.1-0.1-0.2-0.2-0.2
			c-0.1-0.1-0.1-0.2-0.2-0.2c-0.5-0.5-1-0.5-1.5-0.1l-0.4-0.6l1.9-2.6l7.3,12.3c0.1,0.1,0.2,0.3,0.3,0.4c0.1,0.2,0.2,0.3,0.3,0.4
			c0.2,0.2,0.3,0.3,0.4,0.2c0.2-0.1,0.3-0.7,0.3-1.5L35.7-487.5z"/>
		<path class="st13" d="M42.1-493c0.1,0.9,0.1,1.7,0,2.4c-0.1,0.7-0.5,1.3-1.1,1.9c-0.5,0.4-0.9,0.6-1.4,0.8c-0.5,0.1-1,0.1-1.4,0
			c-0.5-0.1-0.9-0.3-1.4-0.6c-0.4-0.3-0.9-0.7-1.2-1.1c-0.6-0.7-1-1.4-1.3-2.2c-0.3-0.8-0.5-1.6-0.5-2.3c-0.1-0.8,0-1.5,0.3-2.2
			c0.2-0.7,0.6-1.2,1.1-1.7c0.6-0.5,1.1-0.8,1.7-0.8c0.6-0.1,1.1,0.2,1.6,0.8c0.1,0.1,0.2,0.3,0.4,0.6c0.1,0.3,0.2,0.7,0.2,1.2
			c0,0.5-0.2,1.2-0.5,2c-0.3,0.8-0.8,1.8-1.6,3.1c0.7,0.8,1.4,1.2,2.1,1.4c0.7,0.1,1.3,0,1.8-0.5c0.4-0.3,0.6-0.7,0.8-1.2
			c0.2-0.5,0.2-1,0.2-1.4L42.1-493z M36.2-491.9c0.2-0.4,0.4-0.9,0.6-1.3c0.2-0.5,0.4-0.9,0.5-1.3c0.1-0.4,0.2-0.8,0.2-1.2
			c0-0.4-0.1-0.7-0.4-1c-0.6-0.8-1.2-0.9-1.8-0.4c-0.3,0.3-0.5,0.6-0.6,1c-0.1,0.4-0.1,0.9,0,1.4c0.1,0.5,0.3,1,0.5,1.5
			C35.5-492.8,35.8-492.4,36.2-491.9z"/>
		<path class="st13" d="M5.8-441c-0.8,0.6-1.5,0.5-2.3-0.4c-0.7-0.9-0.7-1.7,0.1-2.3c0.8-0.6,1.5-0.5,2.2,0.3
			C6.7-442.5,6.7-441.7,5.8-441z M14.8-431.3c0,0.4,0,0.8,0,1.3c0,0.5-0.1,0.9-0.2,1.4c-0.1,0.4-0.2,0.8-0.4,1.2
			c-0.2,0.4-0.3,0.6-0.5,0.8c-0.3,0.2-0.5,0.3-0.7,0.1c-0.2-0.1-0.4-0.3-0.6-0.5c-0.1-0.1-0.1-0.1-0.1-0.2c0-0.1-0.1-0.1-0.1-0.2
			l-4.5-8c0,0,0-0.1-0.1-0.2c-0.1-0.1-0.2-0.1-0.3-0.1c-0.2,0.1-0.3,0.8-0.3,1.9l-0.7-0.3c0-0.4,0-0.8,0-1.3c0-0.5,0.1-0.9,0.2-1.4
			c0.1-0.4,0.2-0.8,0.4-1.2c0.1-0.4,0.3-0.6,0.5-0.8c0.2-0.1,0.4-0.2,0.5-0.1c0.2,0.1,0.4,0.2,0.7,0.6c0.1,0.1,0.1,0.1,0.1,0.2
			s0.1,0.1,0.1,0.2l3.7,6.9c0.1,0.2,0.2,0.4,0.3,0.6c0.1,0.2,0.2,0.4,0.3,0.5c0.2,0.3,0.4,0.3,0.5,0.2c0.2-0.1,0.3-0.8,0.3-1.9
			L14.8-431.3z"/>
		<path class="st13" d="M25.3-440.1c0,0.4,0,0.8,0,1.3c0,0.5-0.1,0.9-0.2,1.4c-0.1,0.4-0.2,0.8-0.4,1.2c-0.2,0.4-0.3,0.6-0.5,0.8
			c-0.2,0.2-0.4,0.2-0.6,0.2c-0.2,0-0.4-0.2-0.7-0.6c-0.1-0.1-0.2-0.2-0.2-0.4l-3.2-5.7c-0.3-0.6-0.6-1.1-0.8-1.5
			c-0.2-0.4-0.4-0.7-0.6-0.9c-0.3-0.4-0.6-0.5-0.9-0.3c-0.7,0.6-0.8,3.1-0.3,7.6l2.6,4.9l-1.1,1.9l-4.9-8.9c0-0.1-0.1-0.2-0.2-0.3
			c-0.1-0.1-0.1-0.2-0.2-0.3c-0.2-0.3-0.4-0.4-0.5-0.3c-0.2,0.1-0.3,0.8-0.3,1.9l-0.7-0.3c0-0.4,0-0.8,0-1.3c0-0.5,0.1-0.9,0.1-1.3
			c0.1-0.4,0.2-0.8,0.3-1.2c0.1-0.4,0.3-0.6,0.5-0.8c0.2-0.1,0.3-0.2,0.5-0.1c0.2,0,0.4,0.2,0.6,0.5c0.1,0.1,0.2,0.3,0.3,0.4
			c0.1,0.2,0.3,0.4,0.4,0.7c0.2,0.3,0.4,0.7,0.6,1.1c0.2,0.4,0.5,1,0.9,1.7c-0.4-4.5,0-7.3,1.2-8.3c0.2-0.2,0.5-0.2,0.9-0.1
			c0.4,0.1,0.8,0.4,1.2,1c0.3,0.3,0.5,0.7,0.8,1.2c0.3,0.4,0.5,0.9,0.8,1.3l2.2,3.9c0.2,0.3,0.3,0.6,0.5,0.8
			c0.1,0.2,0.2,0.3,0.3,0.4c0.2,0.2,0.3,0.3,0.4,0.1c0.2-0.1,0.3-0.8,0.3-1.9L25.3-440.1z"/>
		<path class="st13" d="M36.1-445.6l-14.2-11.1c-0.5-0.4-1.1-0.6-1.6-0.6c-0.5,0-0.9,0.1-1.3,0.5l-0.5-0.8l5.6-4.7l0.5,0.8l-1,0.8
			c-0.4,0.3-0.6,0.6-0.5,0.8s0.2,0.5,0.5,0.8c0.1,0.1,0.2,0.2,0.3,0.4c0.1,0.2,0.3,0.3,0.4,0.4l10.7,8.7l-3.7-14.1
			c-0.1-0.2-0.2-0.5-0.3-0.7c-0.1-0.2-0.2-0.4-0.3-0.5c-0.6-0.7-1.4-0.5-2.6,0.5l-0.5-0.8l5-4.2l0.5,0.8l-0.7,0.6
			c-0.5,0.4-0.5,1.2-0.2,2.3l4.6,19.9L36.1-445.6z"/>
		<path class="st13" d="M56.4-466.4c0.1,0.2,0.3,0.5,0.4,0.8c0.1,0.4,0.2,0.7,0.2,1.1c0,0.4,0,0.8-0.2,1.2s-0.3,0.7-0.6,1
			c-0.8,0.7-1.6,1.1-2.2,1c-0.6,0-1.3-0.3-2-1c-0.6-0.5-1.2-1.1-1.8-1.7c-0.6-0.6-1.3-1.2-1.9-1.6c-0.6-0.4-1.2-0.7-1.8-0.9
			c-0.6-0.1-1.2,0-1.7,0.4l-0.7,0.6c-0.4,0.3-0.5,0.6-0.5,0.8l3.5,5.7c0,0.1,0.1,0.2,0.2,0.3c0.7,0.8,1.6,0.8,2.8-0.2l0.5,0.8
			l-5.9,5l-0.5-0.8c0.5-0.4,0.9-0.9,1-1.5c0.2-0.6,0.1-1.1-0.3-1.7l-7.9-12.7c-0.7-0.8-1.6-0.7-2.8,0.3l-0.5-0.8l2.6-2.2
			c0.5-0.4,0.9-0.7,1.2-1c0.3-0.3,0.6-0.6,0.9-0.8c0.3-0.3,0.6-0.6,0.9-0.8c0.3-0.3,0.7-0.6,1.2-1.1c0.6-0.5,1.1-0.8,1.8-1.1
			c0.6-0.2,1.2-0.3,1.8-0.3c0.6,0,1.2,0.1,1.7,0.4c0.5,0.2,1,0.6,1.4,1.1c0.5,0.6,0.9,1.3,1.1,1.9c0.2,0.7,0.2,1.4,0.2,2
			c-0.1,0.7-0.3,1.4-0.6,2c-0.3,0.7-0.7,1.3-1.2,2l0.1,0.1c1-0.2,1.8-0.2,2.6,0.1c0.8,0.2,1.5,0.6,2,1c0.3,0.3,0.7,0.6,1.1,1
			c0.4,0.4,0.8,0.8,1.3,1.1c0.4,0.3,0.8,0.5,1.2,0.7c0.4,0.1,0.7,0.1,1-0.1c0.3-0.3,0.3-0.9,0-1.8L56.4-466.4z M44.4-467.3
			c0.4-0.4,0.8-0.8,1.2-1.2c0.4-0.5,0.6-1,0.8-1.5c0.2-0.6,0.1-1.2,0-1.9c-0.2-0.7-0.6-1.4-1.3-2.3c-0.4-0.5-0.8-0.8-1.2-1
			c-0.4-0.2-0.8-0.2-1.3-0.2c-0.4,0-0.8,0.1-1.2,0.4s-0.7,0.4-1,0.7l-1,0.8c-0.3,0.3-0.5,0.6-0.4,0.9c0.1,0.3,0.2,0.7,0.5,1.2l3.1,5
			c0.2,0.2,0.4,0.2,0.7,0L44.4-467.3z"/>
	</g>
	
		<image style="display:inline;overflow:visible;" width="199" height="214" xlink:href="../Dropbox/JQ/Lion Quest Infinity/LQi Concept Art/Working/_split/_02i 2.png"  transform="matrix(1.008 0 0 1.008 263.7626 -189.1501)">
	</image>
	
		<image style="display:inline;overflow:visible;" width="206" height="206" xlink:href="../Dropbox/JQ/Lion Quest Infinity/LQi Concept Art/Working/_02i.png"  transform="matrix(1.008 0 0 1.008 51.1879 -298.051)">
	</image>
</g>
</svg>
