<?xml version="1.0" encoding="utf-8"?>
<!-- Generator: Adobe Illustrator 24.2.0, SVG Export Plug-In . SVG Version: 6.00 Build 0)  -->
<svg version="1.1" xmlns="http://www.w3.org/2000/svg" xmlns:xlink="http://www.w3.org/1999/xlink" x="0px" y="0px"
	 viewBox="0 0 616 353" style="enable-background:new 0 0 616 353;" xml:space="preserve">
<style type="text/css">
	.st0{fill:#6B6966;}
	.st1{fill:#30302E;}
	.st2{fill:#7D7A78;}
	.st3{fill:#615E5C;}
	.st4{fill:#FFFFFF;}
	.st5{clip-path:url(#SVGID_6_);fill:#FFFFFF;}
	.st6{clip-path:url(#SVGID_6_);}
	.st7{clip-path:url(#SVGID_8_);}
	.st8{clip-path:url(#SVGID_10_);}
	.st9{clip-path:url(#SVGID_6_);fill:none;stroke:#FFFFFF;stroke-width:1.367;}
	.st10{clip-path:url(#SVGID_6_);fill:none;stroke:#FFFFFF;stroke-width:1.85;}
	.st11{fill:#100802;}
	.st12{fill:#0B0502;}
	.st13{fill:#020000;}
	.st14{fill:#0A0602;}
	.st15{fill:#060302;}
	.st16{fill:#0A0503;}
	.st17{fill:#2A1913;}
	.st18{fill:#080707;}
	.st19{fill:#48461A;}
	.st20{fill:#A56048;}
	.st21{fill:#FE851E;}
	.st22{fill:#F8C132;}
	.st23{fill:#F5CB7C;}
	.st24{fill:#F2BD32;}
	.st25{fill:#F5BF32;}
	.st26{fill:#EDB932;}
	.st27{fill:#F9C133;}
	.st28{fill:#EFBA32;}
	.st29{fill:#A55F48;}
	.st30{fill:#FAC233;}
	.st31{fill:#F9C233;}
	.st32{fill:#A55F47;}
	.st33{fill:#3D2115;}
	.st34{fill:#F2BC32;}
	.st35{fill:#583732;}
	.st36{fill:#EAB732;}
	.st37{fill:#EFC67A;}
	.st38{fill:#DFBA73;}
	.st39{fill:#EBEC55;}
	.st40{fill:#957165;}
	.st41{fill:#F7F850;}
	.st42{fill:#623C35;}
	.st43{fill:#673E37;}
	.st44{fill:#6C4038;}
	.st45{fill:#3C2014;}
	.st46{fill:#3B2014;}
	.st47{fill:#F6C032;}
	.st48{fill:#F1BB32;}
	.st49{fill:#ECB832;}
	.st50{fill:#040200;}
	.st51{fill:#2B1900;}
	.st52{fill:#080200;}
	.st53{fill:#0C0400;}
	.st54{fill:#030200;}
	.st55{fill:#7B2A00;}
	.st56{fill:#120601;}
	.st57{fill:#AE3700;}
	.st58{fill:#1F1C17;}
	.st59{fill:#B53C06;}
	.st60{fill:#15120C;}
	.st61{fill:#FE4F00;}
	.st62{fill:#F5CB7D;}
	.st63{fill:#FEB500;}
	.st64{fill:#F2EE50;}
	.st65{fill:#4F0A00;}
	.st66{fill:#FDB500;}
	.st67{fill:#CCE7D2;}
	.st68{fill:#D0EBD5;}
	.st69{fill:#D1ECD5;}
	.st70{fill:#EBE94F;}
	.st71{fill:#452700;}
	.st72{fill:#D2EED6;}
	.st73{fill:#F1EE51;}
	.st74{fill:#EDEA50;}
	.st75{fill:#F3AC00;}
	.st76{fill:#D3EED6;}
	.st77{fill:#E9E64F;}
	.st78{fill:#D0EBD4;}
	.st79{fill:#FCB400;}
	.st80{fill:#EEEB50;}
	.st81{fill:#FAFB00;}
	.st82{fill:#0E0A05;}
	.st83{fill:#573300;}
	.st84{fill:#D5F1D8;}
	.st85{fill:#D8F3DA;}
	.st86{fill:#080602;}
	.st87{fill:#4C0A00;}
	.st88{fill:#FEB000;}
	.st89{fill:#520E00;}
	.st90{fill:#EFEC50;}
	.st91{fill:#C9E4D0;}
	.st92{fill:#490900;}
</style>
<g id="Layer_1">
	<g>
		<g>
			<path class="st0" d="M292.4,56.5c6.4-2.4,13-4.3,19.7-5.9c6.8-1.6,13.7-2.8,20.7-3c2-0.1,4,0.1,6-0.2h4.2
				c0.8,0.1,1.5,0.2,2.1,0.2c3.3,0.1,6.5,0.4,9.7,0.7c4.9,0.4,9.8,1.3,14.7,2.2c3.2,0.6,6.3,1.6,9.5,2.3c5.4,1.3,10.5,3.5,15.6,5.6
				c2,0.8,3.9,1.7,5.8,2.5c6.1,2.7,11.9,6.2,17.3,10c2.8,2,5.8,3.8,8.5,6.1c3.8,3.3,7.5,6.8,11.1,10.3c4.5,4.4,8.6,9.2,12.6,14.1
				c1.1,1.4,2,2.9,3.1,4.4c5.3,7.3,9.5,15.2,13.4,23.3c1.5,3.1,2.6,6.4,3.7,9.7c2.7,8.1,4.7,16.4,6.1,24.9c0.7,4.7,1.2,9.4,1.2,14.2
				c-0.1,4.7,0,9.3,0,14c0,3-0.6,6-0.8,9c-0.2,1.6-0.4,3.3-0.6,4.9c-0.1,1.1-0.3,2.1-0.7,3.1c-0.3,0.8-0.3,1.6-0.6,2.3
				c-0.6-0.3-1-0.7-1.6-1c-0.9-0.4-1.3-0.1-1.5,0.8c-0.6,3.2-1.3,6.3-1.9,9.5c-0.1,0.4-0.1,0.7-0.2,1.1c-0.1,0.3-0.1,0.6-0.5,0.7
				c-0.3,0-0.5-0.2-0.7-0.5c-0.1-0.1-0.1-0.1-0.2-0.2c-1.2-1.6-1.2-1.6-2.6-0.2c-0.5,0.4-1,1.2-1.6,0.8c-0.7-0.4-0.2-1.2,0-1.8
				c1-3.7,2-7.4,3-11c0.3-1,0-1.8-0.4-2.8c-1-2.2-3-3-5.1-3.7c-1.4-0.5-2.3-1.3-2.9-2.7c-3.4-7.2-6.7-14.5-10.1-21.8
				c-1.4-3-3.3-5.8-5.1-8.5c-2-2.9-3.1-6-3.5-9.4c-0.3-2.3-0.8-4.5-1.1-6.8c-0.1-0.9-0.4-1.3-1.4-1.4c-1.5-0.2-2.8-0.1-4.2,0.5
				c-1.4,0.6-2.9,1.1-4.4,1.7c-1.2,0.4-1.4,0.3-1.6-0.9c-0.4-2.6-0.6-5.3-0.7-8c-0.3-6.3-1.1-12.5-2.9-18.5
				c-1.3-4.4,0.1-8.3,1.1-12.3c0.2-0.9,0.8-0.9,1.4,0c1.6,2.3,3.2,4.7,4.9,7c1,1.5,1,1.5,2.6,0.6c0.9-0.4,1.7-1,2.6-1.4
				c1.4-0.7,1.4-0.8,0.4-2c-1.7-2-3.5-4.1-5.2-6.1c-0.1-0.1-0.2-0.2-0.3-0.4c-1.1-1.9-2.8-2.9-5-2.8c-3.2,0.2-5.7-1.4-8.3-3.1
				c-2.4-1.5-4.8-3-7.5-4.6c0.9,2.1,1.8,4,2.7,6c0.4,1,0.9,2,1.3,3c0.2,0.4,0.5,0.9,0.1,1.3c-0.4,0.4-0.9,0-1.3-0.3
				c-2.9-1.8-5.9-3.7-8.8-5.6c-0.8-0.5-1.6-0.6-2.5-0.3c-3.2,0.9-6.4,1.7-9.5,2.7c-1.3,0.4-2.4,0.2-3.5-0.6c-3.2-2.1-5.6-4.8-7.4-8
				c-0.7-1.3-1.7-2.1-3.1-2.7c-1.4-0.5-2.8-1.2-4.2-1.7c-1.8-0.6-3-1.8-4.2-3.1c-0.7-0.8-0.5-1.4,0.6-1.5c1-0.1,2-0.2,3-0.3
				c0.7-0.1,1-0.4,1-1.1c-0.1-2.4-0.2-4.8-0.5-7.2c-0.1-0.8-0.7-1.1-1.3-1.5c-3.2-2.2-6.3-4.4-9.5-6.6c-0.2-0.1-0.5-0.3-0.6-0.4
				c-2.3-2.2-5.2-2.6-8.2-2.9c-4.3-0.4-8.7-1-13-1.5c-2.3-0.3-4.5,0.1-6.7,0.3c-2.9,0.2-5.7,0.4-8.6,0.6c-2.9,0.2-5.8,0.4-8.7,0.7
				c-1.7,0.1-3.5,0.2-5.2,0.3c-1.1,0.1-2,0.4-2.8,1.2c-1.2,1.1-2.5,2.2-3.8,3.2c-0.3,0.3-0.7,0.6-1.1,0.4c-0.4-0.2-0.4-0.6-0.4-1
				c0-2.6-0.1-5.2-0.3-7.7c-0.1-1.1,0.4-1.8,1.5-2.2c3.4-1.4,6.9-2.9,10.3-4.4c0.2-0.1,0.4-0.1,0.6-0.4c-1.2-0.6-2.5-0.9-3.7-1.5
				c-2.9-1.4-6-2-9.2-1.8c-2.1,0.2-4.1,0.1-6.2,0"/>
			<path class="st1" d="M205.6,185.1c-0.3-1.4,0-2.8,0-4.1c0-0.7-0.2-2.3,0-2.2c0.2-0.1,0.5-0.2,0.5,0.2c0,1.2,0.2,2.3,0.3,3.5
				c0.1,1.9,0.1,3.9,0.4,5.8c0.1,0.8,0.1,1.7-0.1,2.5c-0.2,0.8-0.3,1.6-0.4,2.5c-0.3-0.3,0-0.8-0.4-1.1
				C205.8,189.9,205.7,187.5,205.6,185.1"/>
			<path class="st2" d="M361.3,317.9c-2.6,0.4-5.9,0.7-8.8,0.9c-3.3,0.3-7.3,0.7-11.2,0.5c-1.5-0.2-3.2-0.2-4.7-0.2
				c-3-0.1-4.6-0.4-7.6-0.5c-2.7-0.1-5.5-0.3-8.2-0.5c-2.9-0.3-5.7-0.7-8.5-1.4c-4.9-1.1-9.8-2.2-14.7-3.3c-1.6-0.4-3.1-1-4.6-1.7
				c-3.3-1.6-6.6-3.2-10-4.8c-1.1-0.5-1.6-1.3-1.6-2.4c0-0.7-0.4-1.1-1-1.3c-0.6-0.2-1.2-0.6-1.9-0.8c-3.3-1.3-6.1-3.4-9.1-5.4
				c-6.3-4.1-12.7-8.3-19-12.4c-0.4-0.3-0.8-0.6-1-1.1c-2.3-3.9-4.6-7.7-6.9-11.6c-0.1-0.1-0.1-0.2-0.2-0.5c1.6,0.7,3.1,1.4,4.7,2
				c2.3,0.8,4.1,2.2,5.8,3.8c1.3,1.2,2.7,2.4,4,3.5c0.2,0.2,0.4,0.4,0.8,0.3c-2.7-5.3-6.7-9.6-10.1-14.4c2.6,1.5,5.3,3,8,4.6
				c0.2-1.7,0-3.2,0.2-5c2.5,3.3,4.4,6.6,6.9,9.9c0.4-1.3,0.8-2.4,1.1-3.5c0.3-1.3,0.9-2.5,1.6-3.6c0.4-0.6,0.5-1.1,0.5-1.8
				c0.2-3.3-0.6-6.5-1.1-9.7c-0.3-1.6-0.3-1.6-2.1-1.6c-0.6,0-1.2,0-1.8,0c-1,0-1,0-1.3-1c-0.7-2.2-1.4-4.4-2-6.6
				c-0.2-0.6-0.4-0.8-1-0.9c-2.4-0.4-4.7-0.8-7.1-1.2c-0.1,0-0.3,0-0.4,0c-1.4-0.3-1.4-0.3-0.9-1.6c0.2-0.4,0.4-0.9,0.5-1.3
				c0.2-0.8,0.8-1.1,1.5-1.1c2-0.2,3.9-0.4,5.9-0.6c1.3-0.1,1.4-0.1,1.7-1.4c0.5-1.9,1-3.7,1.5-5.8c2.6,0.8,5.1,1.5,7.8,2.3
				c0-0.5-0.3-0.6-0.5-0.7c-1.8-1.2-3.5-2.5-5.3-3.7c-0.7-0.5-1.3-1-0.9-2c0.1-0.2,0.1-0.5,0.1-0.8c0-0.6,0.3-0.8,0.8-0.8
				c1.3-0.1,2.7-0.3,4-0.5c0.3-0.1,0.6,0.1,0.8,0.3c1.6,1.6,3.2,3.2,4.7,4.9c1.5,1.7,3.2,3.3,4.9,4.9c0.8-0.7,1.4-1.6,2-2.4
				c0.6-0.9,1.4-1.4,2.5-1.6c2.3-0.4,4.6-0.9,7-1.3c0.3-0.1,0.6-0.1,1-0.4c-2.6-1.6-5.3-2.5-8.1-4.2c1.4-0.1,2.6-0.2,3.7,0.1
				c1.4,0.3,1.3,0,1.9-0.9c1-1.6,1.9-3.1,2.9-4.7c0.1-0.2,0.3-0.4,0.6-0.6c1.1,1,2,2.2,3,3.4c1.2,1.4,2.4,2.8,3.5,4.2
				c0.3,0.3,0.7,0.5,1.1,0.6c1.4,0.4,2.8,0.8,4.1,1.3c0.6,0.2,1.2,0.1,1.7-0.1c1.7-0.5,3.3-1,5-1.5c0.7-0.2,1.3-0.2,2-0.1
				c2.6,0.6,5.3,1.3,7.9,1.9c1.1,0.2,0.9,0.4,1.4-0.7c1.1-2.6,2.2-5.2,3.3-7.8c0.4-1,0.4-2,0.5-3c0.3-2.6,0.4-5.3,0.6-7.9
				c0-0.5,0.2-1,0.5-1.4c2.3-4.1,4.5-8.2,6.7-12.3c0.3-0.5,0.3-1,0.1-1.6c-0.7-2-1.3-4-2.1-5.9c-0.5-1.3-1.4-2.3-2.2-3.4
				c-1-1.3-1.7-2.7-2.2-4.3c-0.8-2.9-1.7-5.7-2.5-8.5c-0.3-0.9-0.2-1,0.7-1.3c1.1-0.4,2.2-0.7,3.3-1.1c2.6-0.8,5.1-1.8,7.5-3.1
				c1.8-0.9,3.7-1.3,5.6-2c0,0,0.1,0,0.1,0c1.6-1,2.5,0,3.4,1.2c0.9,1.2,2,2.2,2.9,3.4c0.4,0.5,0.8,0.7,1.4,0.6
				c3.2-0.3,6.4-0.4,9.6-0.7c0.7-0.1,1.5,0.1,2.5-0.2c-1.3-1.7-2.5-3.3-3.7-4.9c-2.1-2.7-3.9-5.7-5.9-8.6c-0.6-0.9-0.6-1,0.4-1.4
				c1.3-0.7,2.6-1.4,4-2c0.9-0.4,1.7-1,2.3-1.8c1-1.2,2.2-2.2,3.1-3.4c0.7-0.8,0.7-0.8,1.5-0.1c1.8,1.4,3.2,3.3,5,4.7
				c0.4,0.3,0.6,0.7,0.8,1.1c0.7,1.5,1.5,2.9,2.2,4.4c0.4,0.8,0.9,1.1,1.7,1.1c2,0.1,4,0.1,6.1,0.4c0.4,0.1,0.7,0,1-0.2
				c3.2-1.8,6.5-3.5,9.7-5.4c1.2-0.7,2.2-1.7,3.4-2.5c0.7-0.5,0.8-0.5,1.3,0.2c1.3,2.2,2.7,4.4,4,6.6c0.3,0.5,0.4,1,0,1.6
				c-0.6,1-1.2,2.1-1.7,3.1c-0.1,0.3-0.3,0.5-0.3,0.8c-0.1,2.7-0.3,5.4-0.3,8.1c0,0.5,0.2,1,0.5,1.5c2.3,4.6,4.5,9.3,6.8,13.9
				c0.8,1.6,1.3,3.3,1.9,4.9c0.8,2.1,1.4,4.2,2.3,6.3c0.7,1.6,1.6,3.1,2.4,4.7c0.4,0.7,0.6,1.5,0.6,2.3c0,1.5,0.1,2.9,0,4.4
				c-0.1,1,0.3,1.8,1,2.5c0.3,0.3,0.6,0.7,1,1.2c0.7-1.5,0.9-2.9,1.3-4.2c0.7-2.4,1.4-4.9,2-7.3c0.1-0.3,0.2-0.6,0.4-0.8
				c3.8-3.4,7.6-6.8,11.4-10.3c0.8,0.6,1.4,1.3,2,2c1.5,1.6,2.9,3.3,4.4,5c0.7,0.8,1.4,1.6,2.1,2.4c0.4,0.4,0.4,0.8,0.3,1.3
				c-0.3,1.1-0.6,2.2-0.9,3.2c-0.6,1.7-0.9,3.4-1.1,5.1c-0.2,1.4-0.5,2.8-0.3,4.2c0.2,1.9,0.4,3.8,0.6,5.7c0.2,1.9,0.5,3.7,0.7,5.6
				c0.2,1.4,0.3,2.7,0.5,4.1c0,0.5,0.4,0.8,0.7,1c1.5,1.3,3.1,2.7,4.6,4c0.2,0.1,0.3,0.3,0.5,0.4c0.6,0.4,0.7,0.9,0.4,1.5
				c-0.7,1.8-1.4,3.7-2,5.5c-0.2,0.6-0.6,1.1-1.1,1.6c-1.4,1.3-2.8,2.7-4.3,4c-0.6,0.5-0.9,1.1-0.6,1.9c0.2,0.9,0.3,1.8,0.4,2.7
				c0,0.5,0.1,0.9,0.4,1.4c0.8-0.5,1.6-1,2.3-1.5c1.2-0.8,2.4-1.6,3.6-2.4c2.2-1.4,4-3.4,6-5.2c1.4-1.3,2.8-2.5,4.1-3.8
				c0.5-0.4,0.8-0.9,1-1.5c1.2-3.7,2.4-7.3,3.7-11c0.4-1.2,0.2-1.2,1.6-1.1c2.3,0.2,4.5,0.4,6.8,0.6c0.4,0,0.7-0.1,1.1-0.2
				c1.2-0.5,2.4-1,3.6-1.6c0.2-0.1,0.5-0.3,0.7-0.1c0.3,0.2,0.1,0.5,0,0.8c-0.7,1.8-1.4,3.7-1.9,5.6c-0.4,1.5-0.8,3.1-1.2,4.6
				c-0.1,0.3-0.1,0.6-0.4,0.8c-0.6,0-1-0.5-1.4-0.8c-0.6-0.4-1-0.4-1.6,0.1c-2.1,1.7-4.2,3.4-6.3,5c-0.3,0.3-0.7,0.5-1.1,0.7
				c-0.7-1.1-0.7-2.4-1.4-3.6c-0.7,1.2-1.4,2.3-2,3.4c-1.5,2.6-2.9,5.1-4.4,7.7c-0.4,0.7-0.5,1.3,0,2c0.6,0.8,1.1,1.7,1.6,2.5
				c0.8,1.3,0.8,1.3-0.1,2.6c-1.5,2.1-2.9,4.2-4.3,6.4c-1.8,2.8-3.4,5.7-5.1,8.6c-1,1.7-1.9,3.4-3.6,4.6c-1.2,0.9-2.4,1.9-3.5,3
				c-1.7,1.7-3.8,2.7-5.8,3.9c-1.4,0.8-2.9,1.6-4.3,2.5c-0.9,0.5-1.6,1.2-2.4,1.9c-1.6,1.6-3.5,2.6-5.5,3.7c-2.5,1.4-5,2.8-7.4,4.2
				c-3,1.7-6.2,2.6-9.4,3.8c-1.9,0.7-3.9,1.4-5.8,2.2c-1.6,0.6-3,1.7-4.5,2.6"/>
			<path class="st3" d="M294.8,144.6c1.5-0.5,2.8-1,4.2-1.4c1-0.3,1-0.4,0.8-1.3c-0.5-2.1-0.9-4.3-1.5-6.4c-0.4-1.5-1.2-3-1.8-4.5
				c-0.5-1.2-1-2.4-1.6-3.6c-0.2-0.5-0.3-0.8,0.3-1.3c1.9-1.4,3.7-2.9,5.5-4.4c0.3-0.2,0.7-0.3,1-0.4c2.9-0.6,5.8-1.3,8.7-1.9
				c0.6-0.1,1,0,1.3,0.6c0.6,1.5,1.5,2.9,2.1,4.5c0.3,0.7,0.7,1.3,1.5,1.6c1.7,0.8,3.3,1.7,4.9,2.6c0.5,0.3,0.8,0.2,1.3-0.1
				c1.8-1.3,3.7-2.5,5.5-3.8c0.5-0.3,0.9-0.5,1.5-0.3c3.1,1,6.2,2,9.3,2.9c0.6,0.2,0.9,0.4,0.6,1.1c-0.1,0.2-0.1,0.5-0.2,0.7
				c-0.8,2.4-1.5,4.8-2.3,7.2c-0.1,0.3-0.1,0.6-0.3,0.8c-1.3,2.1-2.6,4.1-4,6.2c-0.2,0.3-0.6,0.4-1,0.5c-0.6,0.2-1.2,0.3-1.7,0.5
				c-1.1,0.6-2.2,0.3-3.2-0.2c-0.8-0.4-1.7-0.8-2.5-1.2c-0.5-0.2-0.9-0.1-1.3,0.1c-0.5,0.3-1,0.5-1.4,0.9c-1.7,1.5-3.7,1.6-5.8,1.7
				c-1.1,0.1-2.3,0.3-3.4,0.3c-1,0.1-1.1,0.3-1.1,1.3c0.1,1.1-0.2,2.2-0.3,3.3c-0.1,1.7,0.5,3.3,1,4.9c0.6,2.4,1.3,4.8,2,7.2
				c0,0.1,0.1,0.2-0.1,0.4c-0.8-0.9-1.4-1.8-2.1-2.8c-0.5-0.7-1.1-1.4-1.5-2.2c-0.3-0.4-0.5-0.5-1-0.4c-1.3,0.5-2.6,0.9-4,1.3
				c-0.3,0.1-0.6,0.2-0.8,0.3c-0.4,0.1-0.6,0-0.5-0.6c0.3-1.6,0.6-3.1,1-4.7c0.4-2.1,0.5-2-1.4-3c-0.5-0.2-0.9-0.5-1.4-0.7
				c-1.7-0.7-2.9-1.9-3.9-3.3C296.4,146.4,295.5,145.7,294.8,144.6"/>
			<path class="st3" d="M370,120.3c-0.4-3-0.8-5.8-1.2-8.5c-0.1-0.5-0.3-0.8-0.7-1.2c-1.3-1.3-2.5-2.5-3.8-3.8
				c-0.3-0.3-0.5-0.5-0.8-0.9c1-0.2,1.9,0.1,2.7,0.3c1.2,0.3,2,0,2.7-1c1.4-2,2.9-3.9,4.4-5.9c0.6-0.7,0.7-0.7,1.1,0
				c1.2,1.9,1.8,4,1.8,6.2c0,1.4,0.3,2.8,0.4,4.3c0,0.2,0.1,0.4,0,0.6c-0.2,1.5,0.4,2.8,1.3,3.9c1,1.4,1.9,3,3,4.4
				c0.4,0.6,0.5,1.1,0.1,1.8c-1.7,2.5-3.3,5-4.9,7.5c-0.8,1.2-1,2.7-1.4,4c-0.4,1.3-0.8,2.6-1.2,3.9c-0.2,0.7-0.6,0.9-1.2,0.8
				c-1.3-0.2-2.6-0.4-3.9-0.6c-0.4-0.1-0.7-0.1-1.1,0c-2.8,0.7-5.6,1.3-8.4,2c-0.6,0.2-1.2,0.1-1.7-0.2c-1.2-0.6-2.3-1.2-3.5-1.8
				c-0.5-0.2-0.7-0.7-1-1.1c-1.2-1.5-2.3-3.1-3.5-4.7c-0.7-0.9-0.7-1,0.2-1.5c2-1.2,4-2.4,6-3.5c0.9-0.6,1.9-1.1,2.8-1.7
				c0.8-0.5,0.8-0.5,0.2-1.3c-1.7-2.1-3.4-4.2-5.1-6.3c-0.8-1-1.6-1.9-2.3-2.8c-0.5-0.7-0.5-0.8,0.3-1.2c1.7-0.8,3.4-1.6,5.1-2.5
				c0.6-0.3,1.1-0.1,1.5,0.3c2.1,1.6,4.1,3.2,6.3,4.7c1.5,1.1,2.6,2.6,3.8,4C368.8,119.2,369.3,119.7,370,120.3"/>
			<path class="st2" d="M246.7,279.2l1.6,3.8c0,0,9.1,7.8,10.9,9.3c1.9,1.5,10,6.8,12,8c2,1.2,10.3,6,12.1,6.9
				c1.9,0.9,10.7,1.8,10.7,1.8l-4.5-12.3l-30.3-12.5"/>
			<path class="st2" d="M341.3,319.3c34.4,0,65.8-13.1,89.5-34.5c0,0,5.1-4.7,8.1-14.1c3-9.4-14.1-0.5-14.1-0.5l-9.8,7.2"/>
			<path class="st2" d="M337.1,245.1c0,0-6.8-28-14-28.7c-7.2-0.7-32.4,0-32.4,0l-3.1,10.7l11.8,8.3"/>
			<path class="st2" d="M258.6,279.2c0,0-4.5,0.2-4.4,0.3c0,0.2,1.8,3.2,1.8,3.2h4.2"/>
			<path class="st0" d="M232.3,105.8c-4.5,6.3-4.3,9.3-7.2,16.4c-0.5,1.2-0.4,1.3,0.8,1.7c3.7,1,3.3,0.6,2.7,4.3
				c-1,6.2-2.4,12.3-3.6,18.4c-0.3,1.7-1.3,3.1-2.1,4.6c-3,5.2-5.6,10.5-8.2,15.9c-0.8,1.7-1,3.4-1.2,5.1c-0.1,0.5,0.2,1,0.5,1.4
				c1,1.7,2.1,3.3,3.1,4.9c1.1,1.7,0.9,2-1.1,2.5c-2,0.4-4-0.1-5.9-0.3c-0.7-0.1-1.1-0.6-1.4-1.2c-0.4-0.8-0.6-1.6-0.8-2
				c0.7,2.6,1.1,5.6,1.6,8.7c0.2,1.4,0.7,2.6,2,3.3c0.1,0,0.1,0.1,0.2,0.2c2.8,3.3,6,1.7,9,0.7c0.8-0.3,1-1.1,1.3-1.8
				c0.9-1.8,1.1-1.9,2.9-1.2c2.6,1,5.2,2,7.8,3.1c1.7,0.8,1.8,1.2,0.8,2.8c-0.4,0.6-0.8,1.3-1.2,1.9c-0.4,0.6-0.3,1.1,0.3,1.5
				c1.5,1.2,3,2.4,4.5,3.7c0.6,0.5,1.1,0.5,1.6-0.2c0.6-0.9,1.3-1.8,1.9-2.7c1-1.8,2.6-3,4.3-4.1c0.9-0.6,3.9-0.4,4.6,0.3
				c0.8,0.8,0.9,1.8,0.6,2.8c-0.7,2.1-1.4,4.2-2.1,6.3c-0.4,1.2-0.4,2.3-0.2,3.5c1.1,5.9,2.1,11.8,3.9,17.6c0.7,2.1-0.2,3.8-1,5.6
				c-0.3,0.7-1,0.7-1.6,0.3c-1.5-0.8-3-1.6-4.4-2.5c-0.4-0.2-0.8-0.5-1.3-0.3c-1,0.5-1.1,1.4-0.3,2.1c1.5,1.3,3,2.5,4.4,3.8
				c0.4,0.3,0.8,0.6,0.7,1.1c-0.1,0.5-0.7,0.5-1.1,0.6c-0.2,0.1,0,0-0.1,0c-4.2,1-4.2,1-7.5-1.7c-0.4-0.3-0.8-0.7-1.2-0.9
				c-0.3-0.2-0.6-0.8-1-0.5c-0.4,0.2-0.3,0.8-0.3,1.2c0.1,1.3-0.3,2.5-0.3,3.8c0,0.4,0,0.9-0.4,0.9c-0.4,0.1-0.6-0.4-0.8-0.7
				c-0.2-0.3-0.3-0.6-0.5-0.9c-3.4-6.6-6.3-13.5-9.3-20.3c-0.8-1.8-1.7-3.1-3.6-3.8c-1.3-0.5-2.5-1.2-3.6-1.8
				c-0.9-0.5-1.7-0.5-2.5,0.2c-0.9,0.9-1.9,1.7-2.9,2.5c-0.7,0.6-0.8,1.2-0.5,2c0.9,2.9,1.8,5.7,2.6,8.7c0.1,0.5,0.4,1,0,1.4
				c-0.5,0.5-1,0.1-1.5-0.1c-0.7-0.2-1.5-0.4-2.1-0.9c-0.6-2.2-1.7-4.3-1.9-6.6c-0.3-2.4-1.1-4.7-1.6-7.1c-0.4-1.8-0.5-3.7-0.8-5.5
				c-0.5-3.5-0.8-7-1.2-10.6c-0.1-0.6-0.1-1.2,0-1.8c0.1-0.1,0.3,0.2,0.3,0c0.6-4.5,0.2-7.6-0.5-11.7c-0.3-2-0.3-1.7-0.3-1.9
				c-0.2-1.6-0.1-3.3-0.1-4.9c0.2-2.4,0.3-4.7,0.7-7.1c0.4-2.5,0.8-5,1.2-7.5c1.3-8.5,3.8-16.6,6.9-24.6c2.3-5.9,5-11.6,8.2-17.2
				c2-3.6,4.2-7.1,6.3-10.6c1.3-2.2,0.2-0.5,1.7-2.5"/>
		</g>
		<g>
			<defs>
				<rect id="SVGID_1_" x="264.6" y="203.7" width="67.5" height="67.5"/>
			</defs>
			<clipPath id="SVGID_2_">
				<use xlink:href="#SVGID_1_"  style="overflow:visible;"/>
			</clipPath>
		</g>
		<g>
			<defs>
				<rect id="SVGID_3_" x="349.2" y="229.8" width="65.2" height="70.1"/>
			</defs>
			<clipPath id="SVGID_4_">
				<use xlink:href="#SVGID_3_"  style="overflow:visible;"/>
			</clipPath>
		</g>
		<polygon class="st4" points="156.2,93.3 156.2,38.5 173.2,38.5 173.2,76.3 184.9,76.3 184.9,93.3 		"/>
		<rect x="188.5" y="38.5" class="st4" width="17" height="54.8"/>
		<g>
			<defs>
				<rect id="SVGID_5_" x="110" y="34.7" width="329.8" height="173.3"/>
			</defs>
			<clipPath id="SVGID_6_">
				<use xlink:href="#SVGID_5_"  style="overflow:visible;"/>
			</clipPath>
			<path class="st5" d="M253.2,80.9c-5,5-11.1,7.5-18.2,7.5s-13.2-2.5-18.2-7.5c-5-5-7.5-11.1-7.5-18.2c0-7.1,2.5-13.2,7.5-18.2
				c5-5,11.1-7.5,18.2-7.5s13.2,2.5,18.2,7.5c5,5,7.6,11.1,7.6,18.2C260.7,69.8,258.2,75.9,253.2,80.9 M241.1,56.6
				c-1.7-1.7-3.8-2.6-6.2-2.6c-2.4,0-4.4,0.9-6.1,2.6c-1.7,1.7-2.5,3.8-2.5,6.2c0,2.4,0.8,4.5,2.5,6.2c1.7,1.7,3.7,2.6,6.1,2.6
				c2.4,0,4.5-0.9,6.2-2.6c1.7-1.7,2.6-3.8,2.6-6.2C243.7,60.3,242.8,58.3,241.1,56.6"/>
			<polygon class="st5" points="279.9,69.8 279.9,93.3 262.9,93.3 262.9,34.7 301,64.8 301,38.5 318,38.5 318,99.9 			"/>
			<path class="st5" d="M228.4,123.4c3-6.9,6.2-11.7,9.7-14.2c3.7-2.7,8.6-4.1,14.7-4.1c7,0,13,2.6,18,7.7c4.9,5,7.3,11.6,7.3,19.9
				c0,7.9-2.4,14.6-7.2,19.9c-4.7,5.2-10,7.8-15.9,7.8c-4.3,0-8.4-1.6-12.2-4.9c-2.4-2.1-5.8-6.8-10-14.1c-2.9,5.5-6,9.4-9.3,11.8
				c-3.3,2.4-7.4,3.6-12.2,3.6c-6.3,0-11.6-2.3-15.9-6.8c-4.4-4.4-6.6-10.3-6.6-17.6c0-7.3,2-13.2,6.1-17.6
				c4.1-4.4,8.8-6.6,14.2-6.6c3.9,0,7.2,1,10,3C221.8,113.3,224.9,117.3,228.4,123.4 M226.5,128.6c-2.2-4.9-4.6-8.4-7.4-10.7
				c-2.8-2.3-6.2-3.4-10.3-3.4c-2.3,0-4.4,0.4-6.4,1.3c-2,0.9-3.8,2.1-5.2,3.6c-1.4,1.6-2.6,3.5-3.4,5.7c-0.9,2.3-1.3,4.7-1.3,7.4
				c0,6,1.5,10.7,4.6,14.1c3.2,3.5,6.7,5.3,10.5,5.3c4.1,0,7.8-1.9,11.1-5.7C220.7,143.7,223.3,137.8,226.5,128.6 M234.7,136.8
				c1.6,3.5,3.2,6.4,4.8,8.7c1.6,2.3,3.2,4,4.9,5.3c1.7,1.3,3.4,2.2,5.2,2.7c1.8,0.5,3.7,0.7,5.7,0.7c2.7,0,5.2-0.5,7.6-1.6
				c2.3-1,4.3-2.5,6-4.3c1.7-1.8,3-4.1,4-6.8c1-2.7,1.5-5.6,1.5-8.9c0-6.6-1.9-11.9-5.8-16.1c-3.8-4.2-8.1-6.4-12.8-6.4
				c-3.1,0-5.7,0.8-8,2.3c-2.3,1.5-4.3,4-6.1,7.4C240.3,122.3,238,127.9,234.7,136.8"/>
			<g class="st6">
				<defs>
					<rect id="SVGID_7_" x="110" y="38.5" width="192.8" height="171.1"/>
				</defs>
				<clipPath id="SVGID_8_">
					<use xlink:href="#SVGID_7_"  style="overflow:visible;"/>
				</clipPath>
				<g class="st7">
					<defs>
						<rect id="SVGID_9_" x="110" y="38.5" width="192.8" height="171.1"/>
					</defs>
					<clipPath id="SVGID_10_">
						<use xlink:href="#SVGID_9_"  style="overflow:visible;"/>
					</clipPath>
					<g class="st8">
						<defs>
							<rect id="SVGID_11_" x="110" y="38.5" width="192.8" height="171.1"/>
						</defs>
						<clipPath id="SVGID_12_">
							<use xlink:href="#SVGID_11_"  style="overflow:visible;"/>
						</clipPath>
						<g style="clip-path:url(#SVGID_12_);">
							
								<image style="overflow:visible;" width="193" height="172" xlink:href="790D81890BF38BBF.png"  transform="matrix(0.9987 0 0 0.9945 110 38.5307)">
							</image>
						</g>
					</g>
				</g>
			</g>
			<path class="st9" d="M273,190.5c-9,5.6-18.7,8.4-29.1,8.4c-2.1,0-4.2-0.1-6.3-0.3c-2.1-0.2-4.2-0.6-6.3-1c-2.1-0.4-4.2-1-6.3-1.8
				c-2.1-0.7-4.2-1.5-6.3-2.4c-3.6-1.6-6-2.6-7.2-3.2c-1.2-0.6-2.2-1.1-2.8-1.5c-0.7-0.4-1.6-0.9-2.8-1.5c-1.2-0.6-3.6-1.6-7.2-3.2
				c-2.1-0.9-4.3-1.6-6.4-2.1c-2.2-0.5-4.3-0.8-6.4-0.8c-4.1,0-7.9,1.1-11.4,3.2c-3.5,2.1-6.1,5.4-8,9.9l-30.1-12.4
				c1.9-4.3,4.1-8.2,6.6-11.7c2.5-3.5,5.3-6.5,8.4-9c-9.5-5.2-17.1-12.6-23-22.1c-5.9-9.5-8.9-20-8.9-31.5c0-16.9,6-31.3,18-43.3
				c12-11.9,26.4-17.9,43.2-17.9c16.9,0,31.3,6,43.3,17.9c11.9,11.9,17.9,26.3,17.9,43.3c0,10-2.3,19.3-6.8,27.9
				c-4.5,8.6-10.6,15.6-18.1,21.2c1.4,0.7,2.5,1.2,3.2,1.5c0.7,0.3,1.2,0.6,1.7,0.8c0.8,0.4,1.8,1,2.9,1.6c1.2,0.6,3.5,1.7,7.1,3.3
				c2.1,0.9,4.2,1.5,6.3,1.9c2.1,0.4,4.1,0.6,6.1,0.6c4.2,0,8.1-1,11.5-3.1c3.5-2.1,6.2-4.8,8.1-9.3l30,12.1
				C288.7,176.7,281.9,184.9,273,190.5z"/>
			<path class="st10" d="M320.8,133.7c0,5.4-1.9,10.1-5.8,14c-3.9,3.9-8.5,5.8-14,5.8c-5.4,0-10.1-1.9-14-5.8
				c-3.9-3.9-5.9-8.5-5.9-14v-24.4h15v24.4c0,1.6,0.5,2.7,1.6,3.5c1,0.8,2.2,1.2,3.4,1.2c1.2,0,2.2-0.4,3.2-1.1
				c1-0.8,1.4-1.9,1.4-3.5v-24.4h15V133.7z"/>
			<polygon class="st10" points="359.9,141.1 339.3,141.1 339.3,142.7 354.2,142.7 354.2,157.7 324.2,157.7 324.2,109.3 
				354.2,109.3 354.2,124.4 339.3,124.4 339.3,126 359.9,126 			"/>
			<path class="st10" d="M398.2,114.6l-10.6,10.7c-0.5-0.5-1-0.9-1.6-1.2c-0.6-0.3-1.2-0.5-1.9-0.6h-0.3h-0.3
				c-0.8,0-1.5,0.1-2.3,0.4c-0.8,0.3-1.4,0.7-2,1.3c-0.6,0.6-1,1.2-1.3,1.9c-0.3,0.7-0.4,1.5-0.4,2.3c0,0.8,0.1,1.5,0.4,2.3
				c0.3,0.8,0.7,1.4,1.3,2l2.6,2.6c1.3,1.3,2.3,2.8,2.9,4.4c0.6,1.6,1,3.3,1,5c0,1.7-0.3,3.4-1,5c-0.7,1.6-1.6,3.1-2.9,4.4
				c-1.3,1.3-2.8,2.3-4.4,2.9c-1.6,0.6-3.3,0.9-5,0.9H372h-0.4c-1.6-0.1-3.1-0.4-4.6-1.1c-1.5-0.6-2.9-1.5-4.1-2.8l8.3-8.2
				c-0.2-0.1-0.4-0.3-0.5-0.5c-0.2-0.2-0.3-0.3-0.5-0.5c-0.1-0.1-0.2-0.2-0.3-0.3c-0.1-0.1-0.2-0.2-0.3-0.3
				c-0.1-0.2-0.3-0.4-0.5-0.6c-0.2-0.2-0.4-0.4-0.5-0.6c-2-2.1-3.6-4.4-4.6-6.9c-1-2.5-1.6-5.2-1.6-7.8c0-2.7,0.5-5.3,1.6-7.9
				c1-2.6,2.6-4.9,4.6-6.9c2.1-2,4.4-3.5,7-4.6c2.6-1,5.2-1.5,7.9-1.5c2.7,0,5.3,0.5,7.9,1.5C393.9,111,396.2,112.6,398.2,114.6z"/>
			<polygon class="st10" points="435.4,124.3 424.9,124.3 424.9,157.7 409.9,157.7 409.9,124.3 399.4,124.3 399.4,109.3 
				435.4,109.3 			"/>
		</g>
		<path class="st4" d="M301.8,182.3h1.6v-8.7h-1.6v-1.3h4.6v1.3h-1.6v8.7h1.6v1.3h-4.6V182.3z"/>
		<path class="st4" d="M316.7,172.3h1.8l4.4,9.5l0,0l-0.1-2.9v-6.5h1.4v11.3h-1.8l-4.4-9.5l0,0l0.1,2.9v6.5h-1.4V172.3z"/>
		<path class="st4" d="M334.3,172.3h7.1v1.3h-5.6v3.4h4.7v1.3h-4.7v5.3h-1.4V172.3z"/>
		<path class="st4" d="M351.1,182.3h1.6v-8.7h-1.6v-1.3h4.6v1.3h-1.6v8.7h1.6v1.3h-4.6V182.3z"/>
		<path class="st4" d="M366,172.3h1.8l4.4,9.5l0,0l-0.1-2.9v-6.5h1.4v11.3h-1.8l-4.4-9.5l0,0l0.1,2.9v6.5H366V172.3z"/>
		<path class="st4" d="M383.9,182.3h1.6v-8.7h-1.6v-1.3h4.6v1.3H387v8.7h1.6v1.3h-4.6V182.3z"/>
		<path class="st4" d="M402,173.6h-3.1v-1.3h7.6v1.3h-3v10H402V173.6z"/>
		<path class="st4" d="M422.1,172l1.4,0.7l-3.7,6.5v4.3h-1.4v-4.3l-3.6-6.5l1.4-0.7l3,5.8L422.1,172z"/>
	</g>
</g>
<g id="Layer_3">
	<g>
		<path d="M287.6,268.5c-1.9,0-3.7,0-5.6,0.1c-0.7,0-0.5-0.4-0.5-0.7c0-2.9,0-5.8,0-8.7c0-0.7-0.1-0.9-0.8-0.8c-1.3,0.1-2.6,0-3.9,0
			c-0.5,0-0.7-0.1-0.6-0.6c0-1.4,0-2.9,0-4.3c0-0.5-0.1-0.7-0.6-0.6c-1.4,0-2.9,0-4.3,0c-0.5,0-0.6-0.1-0.6-0.6c0-8.9,0-17.8,0-26.7
			c0-0.4,0.1-0.6,0.5-0.7c1.5-0.4,3-1,4.5-1.5c0.4-0.1,0.5-0.2,0.5-0.6c0-0.8,0-1.7,0-2.5c0-0.6,0.2-0.8,0.7-0.9
			c1.4-0.4,2.7-0.8,4.1-1.1c0.5-0.1,0.7-0.3,0.6-0.8c-0.1-1,0-1.9,0-2.9c0-0.3,0-0.5,0.4-0.6c1-0.2,1.9-0.4,2.8-0.7
			c1.8-0.6,3.6-0.7,5.4-0.7c11.4,0,22.7,0,34.1,0c0.7,0,0.9,0.2,0.9,0.9c-0.1,3,0,6.1,0,9.1c-0.5-0.2-0.4-0.6-0.4-1
			c0-1.1,0-2.3,0-3.4c0-1.4,0-2.9,0-4.4c-0.9,0.6-2,0.6-3,0.8c-0.5,0.1-0.8,0.3-0.8,0.9c0,2.9,0,5.8,0,8.7c0,0.2,0,0.4,0.1,0.5
			c1,0.4,2.1,0.1,3.2,0.2c0.6,0.1,1.2-0.2,1.7,0.3c0.4,1.6,0.2,3.3,0.1,4.9c-0.1,2.5-0.2,5.1,0,7.6c0,0.4,0.1,0.8,0.1,1.3
			c0,4,0,8,0,12c0,0.5,0,1-0.3,1.5c-0.5,0-1,0-0.9,0.7c-0.9-0.3-1.8-0.3-2.7-0.3c-0.2,0-0.4,0-0.7,0c-0.3,0-0.7-0.2-1,0.2
			c-0.1,0.4-0.1,0.7-0.1,1.1c0,4.4,0,8.9,0,13.3c0,0.4,0.1,0.9-0.3,1.3c-1.8,0-3.5,0-5.3,0c-0.5,0-0.6-0.1-0.6-0.6
			c0-1.2,0-2.4,0-3.6c0-0.5-0.1-0.7-0.6-0.7c-6.7,0-13.3,0-20,0c-0.4,0-0.6,0-0.6,0.5c0,0.5,0.3,1.2-0.2,1.5
			c-0.8,0.5-1.5,1.2-2.6,1.1c-0.3,0-0.5,0-0.8,0c-0.1-0.1,0-0.2,0-0.3c0,0,0.1-0.1,0.2-0.1c1.5-0.4,1.7-0.7,1.2-2.3
			c-0.9-0.5-1.9,0.1-2.8,0c-0.3,0-0.3,0.4-0.3,0.6c0,0.9,0,1.7,0,2.6C287.9,267.7,287.9,268.1,287.6,268.5z"/>
		<path class="st11" d="M325.8,252.2c0-4.6,0.1-9.3,0-13.9c-0.1-2.4-0.2-4.9-0.1-7.3c0.1-2,0.1-4,0.1-6.1c0-0.1,0-0.2,0-0.2
			c0.4-0.3,1-0.5,1.5-0.6c0.2-0.1,0.4,0,0.6-0.1c0.5-0.1,0.8,0,0.7,0.6c-0.1,1.2,0,2.4,0,3.7c0,0.1-0.1,0.2-0.1,0.2
			c-1.2,0.7-1.3,1.8-1.2,3c0.1,1.6,0.1,3.2-0.3,4.8c-0.1,0.3-0.1,0.6,0.1,0.9c0.5,0.8,0.4,1.6,0.4,2.4c0,3-0.1,6-0.3,8.9
			c0,0.7,0,1.4,0,2.1c0,0.3,0.1,0.7-0.2,0.9C326.7,251.7,326.3,252,325.8,252.2z"/>
		<path class="st12" d="M327.1,251.4c-0.3-2.2-0.1-4.4,0.1-6.6c0.1-2,0-4.1,0.1-6.1c0-0.5,0-1.1-0.5-1.5c-0.2-0.2-0.2-0.3-0.1-0.6
			c0.6-2.3,0.5-4.5,0.3-6.8c0-0.6,0.5-0.9,0.9-1.3c0.2-0.2,0.5-0.3,0.8-0.4c0,6,0,12.1,0,18.1c0,0.9-0.1,1.8,0,2.7
			C328.9,250.3,328.3,251.1,327.1,251.4z"/>
		<path class="st13" d="M322.2,252.4c0.4,0,0.7,0.1,1.1,0c0.6-0.1,1.2,0,1.6,0.5c0,4.1,0,8.2,0,12.3c0,0.8-0.8,0.8-1.2,1.2
			c-0.1,0.1-0.2,0.1-0.3,0c-0.4-1.2-0.1-2.5-0.2-3.7c0-0.4,0-0.8-0.5-1c-0.5-0.4-0.4-1-0.4-1.5c-0.1-2.1-0.5-4.2-0.4-6.4
			C321.9,253.2,321.8,252.8,322.2,252.4z"/>
		<path class="st14" d="M320.4,252.2c0.4,0.1,0.7,0.1,1.1,0.2c0.2,0.2,0.3,0.4,0.3,0.6c-0.1,3.1,0.4,6.1,0.4,9.2
			c-0.1,1.7,0.2,3.5-0.2,5.2c-0.4,0.4-0.8,0.7-1.2,0.9c-0.3,0-0.3-0.2-0.3-0.4c0-5.2,0-10.4,0-15.6
			C320.4,252.3,320.4,252.2,320.4,252.2z"/>
		<path class="st15" d="M324.9,217.9c0,1.2,0,2.4,0,3.6c0,0.3-0.1,0.6,0.1,0.8c0,0.5,0,1,0,1.4c-0.6,0.5-1.3,0.1-1.9,0.3
			c-0.5,0-1,0.4-1.6,0.2c-0.3-0.4,0-0.9,0-1.3c0-0.7,0-1.4-0.1-2.1c-0.2-1.7,1.3-3.3,3-3.2C324.7,217.8,324.8,217.8,324.9,217.9z"/>
		<path class="st16" d="M287.6,268.5c0-1.3,0-2.7,0-4c0-0.5,0-0.8,0.7-0.7c0.8,0.1,1.6-0.1,2.4-0.1c0.2,0,0.5-0.1,0.6,0.2
			c-0.1,0,0,0-0.1,0c-1.3,0.1-1.6,0.8-1.5,2c0,0.2-0.1,0.5-0.2,0.6c0,0.1,0,0.1,0,0.2c0.1,0.6-0.1,0.9-0.7,1.1
			C288.5,268,288,268.2,287.6,268.5z"/>
		<path class="st17" d="M320.4,252.2c0,5,0,10.1,0,15.1c0,0.3-0.1,0.7,0.2,1c-0.1,0.2-0.2,0.2-0.4,0.1c0-5.1,0-10.2,0-15.3
			C320.3,252.9,320.1,252.5,320.4,252.2z"/>
		<path class="st18" d="M321.9,267.5c0-1.7,0-3.5,0-5.2c0.1-0.1,0.2,0,0.3,0.1c0.3,0.8,0.1,1.6,0.2,2.5c0.1,0.5-0.2,1,0.2,1.5
			c0.3,0.1,0.6,0,0.8,0c0.1,0,0.2,0.1,0.2,0.1c0,0,0.1,0,0.1,0c-0.2,0.2-0.4,0.4-0.8,0.4C322.3,266.6,322,266.9,321.9,267.5z"/>
		<path class="st19" d="M323.1,224c0.6-0.3,1.3-0.1,2-0.2c1,0,1.9,0,2.9,0c-0.1,0.3-0.3,0.4-0.5,0.2c-1.2,0.4-2.5,0.3-3.7,0.3
			C323.5,224.3,323.3,224.2,323.1,224z"/>
		<path class="st20" d="M271.3,238.8c0-4.2,0-8.3,0-12.5c0-0.7,0.2-0.9,0.9-0.9c1.3,0.1,2.6,0,3.9,0c0.5,0,0.7-0.2,0.7-0.7
			c0-1.3,0-2.6,0-3.9c0-0.8,0.3-1,1-1c1.3,0.1,2.5,0,3.8,0c0.6,0,0.8-0.2,0.7-0.8c0-1.3,0-2.7,0-4c0-0.5,0.2-0.7,0.7-0.7
			c3,0,6,0,9,0c0.5,0,0.6,0.1,0.6,0.6c0,1.3,0,2.6,0,3.9c-0.1,0.8,0.3,1,1,1c1.3-0.1,2.6,0,3.9,0c0.4,0,0.7,0,0.7,0.6
			c0,1.2,0,2.4,0,3.7c0,0.6-0.2,0.8-0.8,0.8c-1.3,0-2.7,0-4,0c-0.5,0-0.7,0.2-0.7,0.7c0,1.5,0,3,0,4.6c0,0.6,0.2,0.7,0.7,0.7
			c1.3,0,2.7,0,4,0c0.6,0,0.8,0.1,0.8,0.7c0,1.2,0,2.3,0,3.5c0,0.6-0.2,0.8-0.8,0.8c-1.3,0-2.7,0-4,0c-0.5,0-0.7,0.1-0.7,0.7
			c0,1.5,0,3,0,4.6c0,0.5,0.1,0.7,0.7,0.7c1.4,0,2.7,0,4.1,0c0.5,0,0.7,0.1,0.7,0.6c0,1.2,0,2.5,0,3.7c0,0.6-0.2,0.7-0.8,0.7
			c-1.3,0-2.6,0-3.9,0c-0.8,0-0.9,0.2-0.9,1c0.1,1.4,0,2.7,0,4.1c0,0.7,0.1,0.9,0.9,0.9c1.3-0.1,2.6,0,3.9,0c0.5,0,0.7,0.2,0.7,0.7
			c0,1.2,0,2.3,0,3.5c0,0.6-0.2,0.8-0.8,0.8c-1.3,0-2.6,0-3.9,0c-0.6,0-0.8,0.2-0.7,0.8c0,1.2,0,2.5,0,3.7c0,0.8-0.1,1.1-1,1
			c-1.1-0.1-2.2,0.1-3.3,0c-1-0.1-1.2,0.3-1.1,1.2c0.1,1,0,2.1,0,3.1c0,0.5-0.1,0.7-0.7,0.7c-1.2,0-2.3,0-3.5,0
			c-0.6,0-0.7-0.2-0.7-0.8c0-3,0-6,0.1-9c0-0.7-0.2-0.9-0.9-0.8c-1.3,0.1-2.6,0-3.9,0c-0.6,0-0.8-0.1-0.8-0.8c0-1.3,0-2.6,0-3.9
			c0-0.5-0.2-0.7-0.7-0.7c-1.3,0-2.6,0-3.9,0c-0.6,0-0.8-0.2-0.8-0.8C271.3,247.2,271.3,243,271.3,238.8z"/>
		<path class="st21" d="M325.3,235.9c0,5,0,10,0,15c0,0.7-0.2,0.9-0.9,0.9c-6.3,0-12.7,0-19,0c-0.7,0-0.9-0.2-0.9-0.9
			c0-8.2,0-16.3,0-24.5c0-0.7,0.2-0.9,0.9-0.9c6.3,0,12.7,0,19,0c0.7,0,0.9,0.2,0.9,0.9c-0.1,1.4,0,2.7,0,4.1
			c-0.3,0.4-0.7,0.3-1.1,0.3c-1,0-1.9,0-2.9,0c-0.3,0-0.7-0.1-0.8,0.4c0,1.1,0,2.2,0,3.2c0.1,1.2,0.1,1.2,1.2,1.2c0.8,0,1.7,0,2.5,0
			C324.6,235.6,325,235.6,325.3,235.9z"/>
		<path class="st22" d="M303.9,252.2c1.7,0.2,3.3,0.1,5,0.1c3.3,0,6.7,0,10,0c0.6,0,0.9,0.1,0.9,0.8c0,3.1,0,6.2,0,9.3
			c0,0.6-0.2,0.8-0.8,0.7c-1.1,0-2.2-0.1-3.3,0c-0.6,0-0.9-0.1-0.9-0.8c0.1-1.3,0-2.7,0-4c0-0.5-0.1-0.6-0.6-0.6c-1.6,0-3.2,0-4.8,0
			c-0.5,0-0.6,0.2-0.6,0.6c0,1.4,0,2.7,0,4.1c0,0.5-0.1,0.7-0.7,0.7c-1.2,0-2.3,0-3.5,0c-0.6,0-0.7-0.2-0.7-0.8c0-1.3,0-2.7,0-4
			c0-0.5-0.1-0.7-0.6-0.7c-1.3,0-2.7,0-4,0c-0.7,0-0.9-0.1-0.9-0.8c0.1-1.3,0-2.6,0-3.9c0-0.5-0.1-0.8-0.7-0.8c-1.3,0.1-2.7,0-4,0
			c-0.5,0-0.8-0.1-0.7-0.7c0.1-1.2,0.1-2.4,0-3.6c0-0.6,0.2-0.7,0.7-0.7c1.3,0,2.7,0,4,0c0.5,0,0.7-0.1,0.7-0.7c0-1.6,0-3.1,0-4.7
			c0-0.5-0.1-0.7-0.7-0.7c-1.4,0-2.7,0-4.1,0c-0.5,0-0.7-0.1-0.7-0.6c0-1.2,0-2.5,0-3.7c0-0.5,0.1-0.6,0.6-0.6c1.6,0,3.2,0,4.8,0
			c0.3-0.5,0.1-1.1,0.1-1.6c0-1.1,0-2.1,0-3.2c0-0.2-0.1-0.4,0.1-0.5c0.2-0.1,0.4,0,0.6,0.2c0.7,0.6,1.2,1.3,1.4,2.1
			c0.3,0.9,0.9,1.6,1.2,2.5c0.2,0.5,0.8,0.7,1.3,0.8c0.3,0.1,0.7,0.1,0.8,0.5c0,4.7,0,9.4,0,14.1
			C303.9,251.5,303.8,251.9,303.9,252.2z"/>
		<path class="st23" d="M323.7,212.7c-1.5,0.7-3.1,1.1-4.8,1.1c-11.2-0.1-22.5,0-33.7,0c-0.3,0-0.6,0-1,0c1.4-0.5,2.8-1.1,4.3-1.1
			c11.4,0,22.8,0,34.2,0C323,212.7,323.3,212.7,323.7,212.7z"/>
		<path class="st24" d="M319.7,214.6c0.2,0.5,0.1,1.1,0.1,1.7c0,2.5,0,5.1,0,7.6c0,0.3,0.1,0.6-0.1,0.9c-0.3-0.3-0.2-0.7-0.2-1
			c0-0.6-0.2-0.7-0.7-0.5c-1.1,0.6-2.2,1.1-3.4,1.3c1.2-0.1,2.5,0,3.8,0c0.2,0,0.4,0.1,0.6,0.2c-0.3,0.3-0.6,0.1-0.9,0.1
			c-5,0-9.9,0-14.9,0c0,0,0-0.1,0-0.1c0.7-0.6,1.6,0,2.1-0.2c-2.2-0.2-4.6-0.3-7-0.7c-0.2,0-0.4-0.1-0.6-0.2c-0.1-0.4-0.1-0.7,0-1.1
			c0.2-0.2,0.4-0.1,0.6-0.1c3,0.3,6.1,0.6,9.1,0.9c3.2,0.2,6.3,0.1,9.3-1.3c0.2-0.1,0.4-0.2,0.5-0.3c0.4-0.3,0.3-0.5,0-0.8
			c-0.2-0.2-0.5-0.3-0.8-0.3c-1.2,0.1-2.3-0.3-3.5-0.2c-0.3,0-0.6,0-0.9-0.4c0.7-0.3,1.4,0,2-0.2c0-1.5,0-3,0-4.5
			c0-0.3-0.2-0.6,0.1-0.8c0.3,0.3,0.3,0.7,0.3,1.1c0,1,0,1.9,0,2.9c0,1,0.1,1.1,1.1,1.2c0.9,0.1,1.7,0,2.6,0.3
			c0.5,0.1,0.4-0.3,0.4-0.6c0-1.2,0-2.4,0-3.7C319.5,215.4,319.4,214.9,319.7,214.6z"/>
		<path class="st25" d="M303.7,236.9c-1.5,0-1.9-0.7-2.6-1.9c-0.8-1.3-0.9-3.1-2.6-4c0,1.5,0,2.9,0,4.4c0,0.3,0.1,0.7-0.2,0.9
			c0.3-1.9,0.1-3.8,0.1-5.7c0-0.5-0.4-0.4-0.7-0.4c-1.4,0-2.7,0-4.1,0c-0.6,0-0.8-0.2-0.7-0.8c0.7-0.5,1.5-0.4,2.3-0.6
			c2.6-0.7,5.1-0.2,7.7,0c0.3,0,0.5,0.1,0.7,0.3c0.2,0.3,0.1,0.7,0.1,1c-0.4,0.5-0.9,0.3-1.4,0.3c-0.4,0-1-0.3-1.3,0.1
			c-0.3,0.4,0.2,0.8,0.4,1.2c0.4,0.8,1,1.5,1.8,2.1c0.2,0.2,0.5,0.3,0.5,0.7C303.8,235.4,304,236.2,303.7,236.9z"/>
		<path class="st26" d="M303.7,236.9c0-0.8,0-1.7,0-2.5c-0.1-0.2-0.2-0.5-0.2-0.8c0-0.5-0.1-0.9-0.5-1.2c-0.2-0.2-0.4-0.4-0.4-0.7
			c-0.2-0.8,0-1,0.8-1.1c0.2,0,0.3-0.1,0.4-0.2c0-0.4,0-0.7,0-1.1c-0.2-1.1-1-1.3-1.9-1.3c-2.2,0-4.4-0.2-6.6,0.2
			c-0.7,0.1-1.5,0.5-2.2,0c0-0.3,0-0.6,0-0.9c0.3-0.3,0.7-0.2,1.1-0.2c0.7,0,1.4-0.2,2.2-0.6c-0.9-0.2-1.6-0.3-2.4-0.3
			c-0.3,0-0.7,0-0.9-0.2c-0.1-0.4,0-0.6,0.5-0.6c1.3,0,2.5,0,3.8,0c1.6-0.2,3.2,0.3,4.8-0.1c0.6-0.2,1.3,0,1.8-0.4c0,0,0,0,0,0
			c0,7.8,0,15.6,0,23.4c0,1.3,0,2.6,0,3.8c-0.3-0.3-0.1-0.7-0.1-1C303.8,246.4,303.8,241.7,303.7,236.9z"/>
		<path class="st14" d="M324.9,217.9c-1.8,0.1-2.7,0.8-3.1,2.3c-0.1,0.5,0.1,0.9,0.1,1.3c0,1-0.1,1.9-0.2,2.8c0,0.3-0.2,0.3-0.5,0.4
			c-0.2,0-0.4,0.1-0.6,0c0-3.3,0-6.5,0-9.8c0-0.5,0.1-0.7,0.6-0.7c0.6,0,1.2-0.2,1.8-0.3c0.7-0.1,1.4-0.2,1.9-0.9
			C324.9,214.7,324.9,216.3,324.9,217.9z"/>
		<path class="st27" d="M319.7,214.6c0,1.8,0,3.6,0,5.4c0,0.3,0,0.7-0.4,0.5c-1.1-0.6-2.4-0.2-3.6-0.5c-0.6-0.1-0.6-0.3-0.6-0.8
			c0-1.5,0-3,0-4.6C316.6,214.5,318.2,214.5,319.7,214.6z"/>
		<path class="st28" d="M314.9,219.9c-0.5,0.4-1.2,0-1.8,0.3c1.3-0.1,2.5,0.2,3.8,0.2c0.2,0,0.5,0,0.7,0c0.5,0.1,1,0.4,1.1,0.9
			c0.2,0.6-0.5,0.6-0.8,0.8c-1.6,0.9-3.4,1.2-5.2,1.4c-3.5,0.4-6.9-0.2-10.4-0.5c-1.3-0.1-2.5-0.1-3.8-0.4c-0.2-0.2-0.1-0.4,0-0.6
			c0.2-0.2,0.5-0.1,0.8-0.1c2.4,0.2,4.7,0.5,7.1,0.6c0.1,0,0.2,0,0.3,0c0.5,0.2,0.9,0.1,1.4,0.2c0.1,0,0.2,0,0.3,0.1
			c1.1,0.1,2.1,0.1,3.2,0c0.1,0,0.2-0.1,0.3-0.1c0.5-0.1,1,0,1.5-0.1c0.1,0,0.2,0,0.2-0.1c0.3-0.1,0.6,0,1-0.1c0.1,0,0.2,0,0.2-0.1
			c0.8-0.1,1.5-0.3,2.2-0.7c0.2-0.1,0.6-0.3,0.1-0.6c-0.6-0.3-1.3-0.3-2-0.3c-0.3,0-0.6,0-0.9,0c-1.7-0.2-3.5-0.4-5.2-0.2
			c-1.7,0.1-3.4,0-5,0.4c-0.4,0-0.8-0.1-1.2-0.1c-0.6,0-1.3-0.1-1.9,0.1c-0.2,0-0.4,0.1-0.6,0.1c-0.5,0-1,0-1.4-0.1
			c-0.4-0.1-0.7-0.3-0.5-0.8c0.8-0.3,1.7-0.1,2.5-0.2c0.9-0.1,2.2,0.4,2.7-0.2c0.5-0.5,0.1-1.8,0.2-2.7c0-0.8-0.2-1.7,0.1-2.5
			c0.3,0.3,0.3,0.8,0.3,1.2c0,1.2,0,2.4,0,3.5c0,0.3,0.2,0.5,0.4,0.5c1.1,0,2.3,0.3,3.4-0.1c0.2-0.1,0.3-0.2,0.3-0.4
			c0-1.2,0-2.4,0-3.6c0-0.4,0-0.8,0.3-1.1c0.2,1.5,0.1,3,0.1,4.5c0,0.7,0.2,0.9,0.8,0.8C311.4,219.9,313.2,219.9,314.9,219.9z"/>
		<path class="st29" d="M301.1,258.3c0.6,0.1,1.6-0.3,2.1,0.1c0.5,0.5,0.1,1.5,0.2,2.2c0,0.6,0,1.3,0,1.9c0,0.5-0.2,0.6-0.6,0.6
			c-1.2,0-2.5,0-3.7,0c-0.5,0-0.7-0.1-0.7-0.7c0-1.2,0-2.4,0-3.6c0-0.5,0.2-0.7,0.7-0.6C299.7,258.3,300.4,258.3,301.1,258.3z"/>
		<path class="st22" d="M295.5,258.3c0.8,0,1.8-0.3,2.2,0.1c0.5,0.4,0.1,1.5,0.2,2.2c0,0.8,0.3,1.8-0.1,2.3
			c-0.5,0.5-1.6,0.2-2.4,0.2c-0.8,0-1.8,0.3-2.2-0.1c-0.5-0.5-0.1-1.5-0.1-2.2c0-0.8-0.3-1.9,0.1-2.3
			C293.6,257.9,294.7,258.4,295.5,258.3z"/>
		<path class="st30" d="M295.5,214.6c0.8,0,1.8-0.3,2.2,0.1c0.5,0.5,0.2,1.5,0.2,2.3c0,0.8,0.3,1.8-0.1,2.2
			c-0.5,0.5-1.5,0.2-2.3,0.2c-0.8,0-1.8,0.3-2.3-0.1c-0.5-0.5-0.1-1.5-0.1-2.3c0-0.8-0.3-1.8,0.1-2.2
			C293.6,214.2,294.6,214.6,295.5,214.6C295.5,214.5,295.5,214.5,295.5,214.6C295.5,214.5,295.5,214.6,295.5,214.6z"/>
		<path class="st20" d="M303.4,217.1c-0.1,0.6,0.3,1.6-0.1,2.1c-0.5,0.5-1.5,0.2-2.3,0.2c-0.8,0-1.8,0.3-2.3-0.1
			c-0.5-0.5-0.2-1.5-0.2-2.3c0-0.8-0.3-1.7,0.1-2.2c0.5-0.5,1.5-0.1,2.2-0.2c0.7,0,1.3,0,2,0c0.5,0,0.7,0.1,0.6,0.6
			C303.4,215.7,303.4,216.4,303.4,217.1z"/>
		<path class="st31" d="M308.8,214.6c0,1.6,0,3.3,0,4.9c-1.5,0.4-3.1,0.7-4.6,0c0-1.7,0-3.3,0-5
			C305.7,214.5,307.2,214.5,308.8,214.6z"/>
		<path class="st20" d="M311.8,263.1c-0.7-0.1-1.7,0.4-2.2-0.2c-0.4-0.5-0.1-1.5-0.1-2.3c0-0.8-0.3-1.8,0.1-2.2
			c0.5-0.5,1.5-0.1,2.2-0.2c0.6,0,1.3,0,1.9,0c0.5,0,0.6,0.2,0.6,0.6c0,1.2,0,2.4,0,3.6c0,0.6-0.2,0.7-0.7,0.7
			C313.1,263.1,312.5,263.1,311.8,263.1z"/>
		<path class="st20" d="M312,214.5c0.7,0,1.7-0.2,2.2,0.2c0.5,0.5,0.2,1.5,0.2,2.3c0,0.8,0.4,1.8-0.2,2.3c-0.5,0.4-1.5,0.1-2.2,0.1
			c-0.8,0-1.8,0.3-2.2-0.1c-0.5-0.5-0.2-1.5-0.2-2.3c0-0.8-0.3-1.8,0.1-2.2C310.1,214.2,311.1,214.6,312,214.5z"/>
		<path class="st32" d="M315.1,263.8c1.4,0,2.8,0,4.2,0c0.5,0,0.6,0.2,0.6,0.6c0,1.1,0,2.1,0,3.2c0,0.5-0.2,0.6-0.6,0.6
			c-1.4,0-2.8,0-4.2,0C314.9,266.7,314.9,265.2,315.1,263.8z"/>
		<path class="st33" d="M320.3,231c-0.1-0.5,0.1-0.6,0.6-0.6c1.5,0,2.9,0,4.4,0c0,1.8,0,3.7,0,5.5c-1.3,0-2.7-0.1-4,0
			c-0.8,0-1.1-0.2-1-1c0-0.1,0-0.3,0-0.4c0.5-0.4,1.1-0.3,1.6-0.4c0.8-0.2,1.6-0.6,2.2-1.1c0.6-0.5,0.5-0.8-0.2-1
			c-0.7-0.3-1.5-0.5-2.3-0.4C321.2,231.5,320.7,231.4,320.3,231z"/>
		<path class="st34" d="M293,228.3c0.7,0.1,1.3-0.1,1.9-0.2c2.7-0.6,5.3-0.4,8-0.2c1.1,0.1,0.8,0.8,0.8,1.4c-0.5-0.2-1-0.1-1.5-0.2
			c-2.7-0.4-5.4-0.4-8.1,0.3c-0.4,0.1-0.8,0.1-1.1,0.1C293,229.2,293,228.8,293,228.3z"/>
		<path class="st25" d="M303.9,224.9c-0.2,0.5-0.5,0.9-1.1,0.6c-0.4-0.2-0.8,0.3-1.1,0.3c-1.5,0.1-2.9-0.1-4.4-0.3c0.3,0,0.7,0,1,0
			c0.4-0.6-0.1-1.2,0.3-1.8c2.2,0.2,4.4,0.3,6.5,0.7c0.7,0.1,1.4-0.1,2.3,0.2C306.1,225,305,224.5,303.9,224.9z"/>
		<path class="st26" d="M298.6,223.7c-0.2,0.6,0.2,1.2-0.3,1.8c0.3-1.5,0.1-2.9,0.1-4.4c0-0.3-0.1-0.6,0.1-0.9
			c-0.1,0.6,0.4,0.6,0.7,0.7c0.4,0.1,0.8,0,1.2,0c0.2,0.5,0.5,0.6,1,0.7c2.3,0.4,4.7,0.6,7.1,0.8c2.4,0.2,4.8,0,7.2-0.7
			c0-0.5-0.9-0.3-0.6-0.9c0.7,0,1.5,0.1,2.2,0.4c0.1,0.5-0.2,0.8-0.6,1c-0.7,0.3-1.4,0.5-2.1,0.6c-0.3,0.2-0.7-0.1-1.1,0.2
			c-0.6,0.2-1.2-0.1-1.8,0.2c-1.2,0.1-2.4,0.1-3.6,0c-0.5-0.2-1,0.1-1.4-0.2c-0.1,0-0.1,0-0.2,0c-1.5-0.1-3.1-0.4-4.6-0.4
			c-1,0-1.9-0.2-2.8-0.3c-0.2,0-0.4-0.1-0.6,0c0,0.2,0,0.4,0,0.5C298.6,223,298.6,223.3,298.6,223.7z"/>
		<path class="st15" d="M322,262.2c-0.1,0-0.1,0-0.2,0c-0.1-3.3-0.5-6.6-0.4-9.9c0.2,0,0.5,0,0.7,0c-0.2,1.9-0.1,3.7,0.1,5.6
			c0.1,1,0.2,2,0.2,3c0,0.2,0,0.5,0.2,0.6C322.9,262.1,322.5,262.2,322,262.2z"/>
		<path class="st35" d="M289.6,266.5c0-0.5,0-1,0-1.5c0-1.2,0-1.2,1.3-1.2c0.2,0,0.4,0,0.5,0c0,0.5,0,1,0,1.5
			c0.1,0.9-0.3,1.2-1.2,1.2C290,266.5,289.8,266.5,289.6,266.5z"/>
		<path class="st36" d="M293,226c1.2,0,2.5,0,3.8,0.5c-1.2,1-2.5,1-3.8,0.9C293,227,293,226.5,293,226z"/>
		<path class="st37" d="M272.7,224.6c0.9-0.3,1.8-0.6,2.7-0.9c0.3-0.1,0.6-0.2,0.6,0.3c0,0.3,0.1,0.8-0.5,0.7c-1,0-1.9,0-2.9,0
			C272.7,224.7,272.7,224.7,272.7,224.6z"/>
		<path class="st38" d="M277.9,219.2c1-0.3,2-0.5,3-0.7c0.2,0,0.6-0.3,0.6,0.3c0,0.4,0,0.7-0.5,0.6c-1-0.1-2.1,0-3.1,0
			C277.9,219.3,277.9,219.3,277.9,219.2z"/>
		<path class="st39" d="M320.6,224.8c0.2,0,0.4-0.1,0.5-0.1c1.2-0.2,2.4-0.2,3.6-0.1c0.4,0,0.8,0,1.1,0.3c0,0,0,0.1,0,0.1
			C324.1,224.9,322.4,225.1,320.6,224.8z"/>
		<path class="st40" d="M315.1,263.8c0,1.5,0,2.9,0,4.4c-0.4-1.1-0.1-2.3-0.2-3.4C314.9,264.4,314.7,264,315.1,263.8z"/>
		<path class="st41" d="M325.8,224.8c-1.6-0.1-3.1,0.1-4.7-0.1c0.2-0.1,0.3-0.2,0.5-0.3c0.5-0.1,0.9-0.2,1.4-0.4c1.4,0,2.9,0,4.3,0
			C327,224.5,326.4,224.5,325.8,224.8z"/>
		<path class="st42" d="M322,262.2c0.2-0.3,0.7-0.3,0.8-0.7c0.4-0.2,0.7-0.2,0.7,0.4c0,1.5,0,2.9,0,4.4c-0.1,0-0.2,0-0.2,0
			c-0.5-0.6-0.2-1.3-0.2-1.9c0-0.5,0-0.9,0-1.5c-0.3,0.3-0.1,0.7-0.3,1c-0.2,0.4-0.1,1-0.8,1C322.1,264,322,263.1,322,262.2z"/>
		<path class="st43" d="M322.1,264.9c0.5-0.3,0.6-0.8,0.6-1.2c-0.1-0.6,0.4-0.9,0.5-1.4c0.4,0.6,0.2,1.3,0.2,1.9
			c-0.3,0.8-0.3,1.6-0.9,2.3C321.6,266.1,322.2,265.4,322.1,264.9z"/>
		<path class="st44" d="M322.4,266.5c0.1-0.8,0.4-1.6,0.9-2.3c0,0.7,0,1.4,0,2.1C323,266.5,322.7,266.6,322.4,266.5z"/>
		<path class="st33" d="M309.4,231.2c-0.1-0.6,0-0.8,0.7-0.8c1.3,0,2.7,0,4,0c0.6,0,0.8,0.2,0.8,0.8c0,1.4,0,2.7,0,4.1
			c0,0.4-0.1,0.6-0.6,0.6c-1.5,0-2.9,0-4.4,0c-0.4,0-0.6-0.1-0.6-0.6c0-0.5,0-1.1,0-1.6c0.2-0.2,0.5-0.3,0.8-0.2
			c1.1,0.2,2.3,0,3.4,0.3c0.7,0.2,0.9-0.1,0.9-0.8c0-0.2,0-0.4,0-0.6c0.1-0.7-0.1-1-1-0.9c-1.1,0.1-2.3,0-3.5,0
			C309.8,231.4,309.5,231.4,309.4,231.2z"/>
		<path class="st45" d="M309.4,231.2c1.3,0,2.7-0.1,4,0.1c0.1,0,0.1,0,0.2,0c1.2-0.1,1.2-0.1,1.2,1c0,1.8,0,1.8-1.9,1.6
			c-1.1-0.1-2.3-0.1-3.5-0.2C309.4,232.9,309.4,232,309.4,231.2z"/>
		<path class="st46" d="M320.3,231c1.3,0.3,2.6,0,3.8,0.7c0.3,0.2,0.7,0,0.8,0.5c0,0.4-0.2,0.7-0.5,1c-1.2,0.9-2.5,1.4-4,1.3
			C320.3,233.3,320.3,232.2,320.3,231z"/>
		<path class="st47" d="M319.7,224.7c-1.7,0-3.4,0-5.2,0c1.6-0.6,3.2-1.2,4.7-2c0.3-0.2,0.4,0,0.4,0.3
			C319.7,223.6,319.7,224.2,319.7,224.7C319.7,224.7,319.7,224.7,319.7,224.7z"/>
		<path class="st48" d="M303.7,230.5c0,0.2-0.1,0.3-0.3,0.4c-0.2,0-0.7-0.1-0.7,0.2c0,0.4-0.2,0.9,0.2,1.1c1,0.5,0.7,1.4,0.8,2.2
			c-1.6-0.7-2.2-2.1-3-3.5c-0.2-0.4,0-0.6,0.5-0.6C302.1,230.4,302.9,230.4,303.7,230.5z"/>
		<path class="st36" d="M304.1,220.8c1.2-0.2,2.5-0.1,3.8-0.3c1.8-0.3,3.6,0.2,5.4,0c0.3,0,0.7,0.1,1,0.2c0.3,0.2,0.8,0.2,0.8,0.7
			c0,0.5-0.5,0.7-0.9,0.7c-2,0.3-3.9,0.7-5.9,0.3c-1.3-0.3-2.7-0.2-4.1-0.4c-0.3-0.1-0.6-0.1-0.7-0.5
			C303.4,221,303.9,221,304.1,220.8z"/>
		<path class="st49" d="M304.1,220.8c-0.1,0.2-0.5,0.2-0.5,0.6c0.1,0.3,0.4,0.3,0.7,0.3c3.1,0.4,6.3,0.9,9.4,0.3
			c0.1,0,0.2-0.1,0.3-0.1c0.3-0.1,0.8-0.1,0.9-0.5c0.1-0.4-0.4-0.5-0.6-0.8c0.3,0,0.6,0,0.9,0c0,0.4,0.3,0.3,0.6,0.4
			c0.2,0,0.6-0.1,0.6,0.3c0,0.3-0.3,0.4-0.5,0.5c-0.9,0.2-1.8,0.5-2.8,0.6c-2.1,0.1-4.1,0.2-6.2,0c-1.9-0.2-3.8-0.6-5.7-0.6
			c-0.8,0-0.9-0.2-0.7-0.9c0.2,0,0.4,0,0.5,0c0.6-0.3,1.4,0.3,2-0.2C303.4,220.7,303.7,220.9,304.1,220.8z"/>
		<path class="st47" d="M304.1,219.5c0.9,0,1.9,0.3,2.8,0.2c0.6,0,1.1-0.6,1.8-0.2c-0.2,0.7-1.1,0.6-1.2,0.6c-1-0.1-1.9,0.1-2.9-0.2
			C304.4,219.9,304.1,219.9,304.1,219.5z"/>
		<path class="st28" d="M298.6,222.1c0.5-0.4,1-0.1,1.5,0c1.9,0.2,3.9,0.4,5.8,0.6c0.3,0,0.5-0.1,0.7,0.2
			C303.9,222.7,301.3,222.4,298.6,222.1z"/>
		<path class="st28" d="M314.7,222.6c0.5-0.2,0.9-0.4,1.4-0.5c0.6-0.2,1.1-0.5,1.3-1.1c0.5,0.3,0.4,0.6,0,0.8
			C316.5,222.3,315.7,222.6,314.7,222.6z"/>
		<path class="st28" d="M308.3,223c1.2,0,2.4,0,3.6,0C310.6,223.2,309.4,223.2,308.3,223z"/>
		<path class="st26" d="M303,220.6c-0.3,0.5-0.7,0.4-1.1,0.3c-0.3-0.1-0.6-0.1-0.9-0.1C301.7,220.4,302.4,220.7,303,220.6z"/>
		<path class="st28" d="M311.8,223c0.6-0.4,1.2-0.1,1.8-0.2C313.1,223.1,312.4,222.9,311.8,223z"/>
		<path class="st28" d="M306.8,222.8c0.5,0.1,1-0.2,1.4,0.2C307.8,222.9,307.3,223.1,306.8,222.8z"/>
		<path class="st28" d="M313.6,222.8c0.3-0.3,0.7-0.1,1.1-0.2C314.4,222.9,314,222.7,313.6,222.8z"/>
	</g>
	<g>
		<path d="M403.6,282.6c0,0.1,0,0.2,0,0.4c-0.8,0.3-0.7-0.4-0.9-0.8c0-1,0-2.1,0-3.1c0-1,0-1.9,0-2.9c0,4.9,0.1,9.8,0.1,14.7
			c0,1.7,0.1,3.5-0.3,5.2c0,0.5-0.3,0.3-0.5,0.3c-1.6,0-3.2,0-4.8,0c-0.5,0-0.6-0.2-0.6-0.6c0-1.4,0-2.9,0-4.3
			c0-0.5-0.1-0.7-0.6-0.7c-7.8,0-15.7,0-23.5,0c-0.5,0-0.7,0.1-0.6,0.6c0.1,1,0.2,2-0.8,2.6c-0.4-0.4-0.2-0.9-0.3-1.4
			c-0.1-0.4,0.1-0.8-0.2-1.2c-0.1,1.3,0.1,2.6-0.3,3.8l0,0c-0.2,0-0.3-0.1-0.3-0.2c-0.1-1.2-0.1-2.5-0.1-3.5c0,1,0.2,2.1,0.1,3.3
			c0,0.4,0,0.8-0.2,1.2c0,0.4-0.2,0.4-0.4,0.4c-1.7,0-3.4,0-5.1,0c-0.6,0-0.5-0.3-0.5-0.7c0-3,0-6.1,0-9.1c0-0.6-0.1-0.8-0.8-0.8
			c-3.2,0-6.3,0-9.5,0c-0.6,0-0.7-0.2-0.7-0.7c0-10.7,0-21.4,0-32.2c0-0.9,0.7-1,1.2-1.4c0.2-0.1,0.2,0,0.3,0.2
			c0,0.3,0.2,0.3,0.4,0.3c0.9,0,1.7,0,2.6,0c0.3,0,0.6,0,0.6-0.5c0-0.4-0.3-0.5-0.6-0.5c-0.5,0-1.1,0-1.6,0
			c-0.2-0.1-0.4-0.1-0.4-0.3c0.8,0,1.7-0.1,2.5,0c0.4,0,0.6-0.1,0.5-0.5c0-0.7,0.1-1.4,0-2.1c-0.1-0.8,0.3-1.3,0.9-1.8
			c1.1-0.9,2.4-1.1,3.7-1c0.5,0.1,0.8-0.1,0.7-0.7c0-0.3,0-0.5,0-0.8c0-2.4,0-2.4,2.1-3.5c0.3-0.2,0.6-0.2,0.9-0.2
			c12.1,0,24.2,0,36.3,0c0.2,0,0.7-0.3,0.7,0.3c-0.1,0.1-0.3,0.2-0.5,0.2c-0.5,0.1-1.1,0.1-1.6,0.1c-11.2,0-22.4,0-33.6,0
			c-0.6,0-1.3-0.1-1.9,0.2c0.3,0.2,0.6,0.1,1,0.1c11.3,0,22.5,0,33.8,0c0.3,0,0.7,0,1,0c1.1,0,1.3,0.2,1.3,1.3c0,1.3,0,2.6,0,3.8
			c0,0.1,0.1,0.2,0.2,0.3c1.1,0.3,2.1,0.1,3.2,0.1c2,0,2,0,2,2c0,2.9,0.1,5.7-0.1,8.6c0.1,0.4,0.1,0.7,0.1,1.1c0,4.5,0,9,0,13.5
			c0,0.1-0.1,0.2,0,0.2c0-4.8,0-9.6,0-14.3c0-0.1,0-0.2-0.1-0.3c0-0.1,0-0.2,0-0.3c0.1-0.1,0.1-0.1,0.3-0.1c0,5.3,0,10.5,0,15.8
			c0,0.6-0.3,1.1-0.5,1.7c-0.1,0.4-0.4,0.2-0.7,0.2c-1.3,0-2.6,0-3.8,0c-0.2,0.2-0.1,0.5-0.1,0.7
			C403.6,277.8,403.5,280.2,403.6,282.6z"/>
		<path class="st50" d="M403,282.2c0.3,0.2,0.1,0.8,0.7,0.7c0,3.3,0,6.6,0,9.8c0,0.4-0.2,0.8-0.4,1.1c-0.5-0.9-0.1-1.9-0.2-2.8
			c0-2.2-0.3-4.4-0.3-6.6C402.9,283.7,402.6,283,403,282.2z"/>
		<path class="st51" d="M408.5,257.1c0,0.1,0,0.1,0,0.2c-0.1,0.1-0.2,0.1-0.4,0c0-3.2,0-6.3,0-9.5c0-0.7-0.2-0.9-0.9-0.9
			c-1.2,0.1-2.4,0-3.7,0c-0.3,0-0.6,0.1-0.8-0.2c0.4-0.3,0.8-0.2,1.3-0.2c1.4-0.1,2.8,0.2,4.2-0.2c0.2,0,0.3,0.1,0.4,0.2
			c0,3.5,0,6.9,0,10.4c0,0-0.1,0-0.1,0c-0.2-0.3-0.1-0.7-0.1-1.1c0-2.9,0-5.8,0-8.7c0,3,0,5.9,0,8.9
			C408.4,256.4,408.4,256.8,408.5,257.1z"/>
		<path class="st52" d="M403,284.6c0.2,0.7,0.2,1.4,0.1,2.1c-0.1,0.6-0.4,1.3,0.3,1.8c0.1,0.1,0.1,0.3,0,0.4c-0.2,0.7,0,1.5-0.1,2.2
			c-0.5-0.3-0.1-0.8-0.2-1.2c-0.1,1,0.2,2,0.1,2.9c0,0.5,0.1,1-0.2,1.4c-0.1,0.6,0.1,1.3-0.4,1.8c0-1.7,0-3.5,0-5.2
			c0.2-1.4,0-2.9,0.1-4.3c0-0.6,0-1.2,0-1.9C402.7,284.5,402.8,284.5,403,284.6z"/>
		<path class="st53" d="M408.7,246.5c-0.1-0.1-0.1-0.1-0.2-0.2c-1.8,0.2-3.6,0.2-5.4,0c-0.2-0.1-0.2-0.3-0.2-0.5c0-1.5,0-3,0-4.6
			c0.6-0.2,0.6,0.3,0.6,0.6c0,1.1,0,2.2,0,3.3c0,0.3-0.1,0.7,0.2,0.9c1.5,0,3,0,4.5,0C408.6,246,408.8,246.1,408.7,246.5z"/>
		<path class="st54" d="M403.7,246c-0.5-0.1-0.4-0.5-0.4-0.8c0-1.1,0-2.2,0-3.4c0-0.3,0.1-0.6-0.3-0.7c-0.1,0-0.1-0.1-0.1-0.2
			c0-0.3,0.2-0.4,0.4-0.5c0.1,0,0.2,0,0.3,0C403.7,242.3,403.7,244.1,403.7,246z"/>
		<path class="st55" d="M370.5,290.8c0.5,0,0.5,0.2,0.5,0.6c0,0.9,0,1.8,0,2.6c0,0.5-0.3,0.3-0.6,0.3
			C370.4,293.2,370.3,292,370.5,290.8z"/>
		<path class="st56" d="M369.8,296c0-1.6,0-3.2,0-4.8c0.1,1,0.4,2,0.4,3.1c0,0.3-0.1,0.7,0.2,1C370.1,295.5,370,295.8,369.8,296z"/>
		<path class="st50" d="M403.6,282.6c-0.2-0.2-0.1-0.5-0.1-0.8c0-2.1,0-4.2,0-6.3c0-0.3-0.1-0.6,0.2-0.8
			C403.7,277.3,403.7,279.9,403.6,282.6z"/>
		<path class="st57" d="M403,292.8c0-1,0-2.1,0-3.2c0.4,0.5,0.1,1.1,0.3,1.5c0,1,0,1.9,0,2.9c0,0.1,0,0.1,0,0.1
			C402.7,293.7,403.3,293.2,403,292.8z"/>
		<path class="st56" d="M370.5,290.8c0,1.2,0,2.4,0,3.6c-0.1,0.3,0.2,0.6-0.2,0.9c0-1.2,0-2.4,0-3.7
			C370.3,291.4,370.2,291,370.5,290.8z"/>
		<path class="st58" d="M354.2,251.7c-0.1-0.1-0.1-0.1-0.2-0.2c0.2-0.3,0.5-0.4,0.8-0.5c0.1,0,0.2,0.1,0.2,0.3
			C354.8,251.6,354.6,251.8,354.2,251.7z"/>
		<path class="st59" d="M403,292.8c0.4,0.3,0,0.9,0.3,1.2c0,0.2-0.2,0.2-0.3,0.2C403,293.8,403,293.3,403,292.8z"/>
		<path class="st60" d="M354.9,251.2c-0.1-0.1-0.1-0.1-0.2-0.2c0.2-0.1,0.4-0.2,0.5-0.3c0.1,0,0.2,0.1,0.4,0.1
			C355.5,251.3,355.2,251.3,354.9,251.2z"/>
		<path class="st61" d="M383.2,290.3c-4.4,0-8.7,0-13.1,0c-0.8,0-1,0.2-0.9,0.9c0.1,1.3,0,2.6,0,3.9c0,0.6-0.2,0.7-0.7,0.7
			c-1.1,0-2.2-0.1-3.2,0c-0.8,0-1.1-0.2-1-1c0-6.6,0-13.3,0-19.9c0-0.8-0.2-1.1-1-1c-1.2,0.1-2.5,0-3.7,0c-0.7,0-0.8-0.2-0.8-0.8
			c0-1.3,0-2.6,0-3.9c0-0.6-0.2-0.8-0.8-0.8c-1.3,0-2.6,0-3.9,0c-0.6,0-0.8-0.1-0.8-0.7c0-4.7,0-9.4,0-14.1c0-0.6,0.1-0.8,0.8-0.8
			c1.2,0,2.5,0,3.7,0c0.8,0,1.2-0.1,1.1-1.1c-0.1-1.2,0-2.5,0-3.8c0-0.6,0.2-0.7,0.7-0.7c1.3,0,2.6,0,3.9,0.1c0.7,0,1.1-0.1,1-1
			c-0.1-1.3,0-2.6,0-3.9c0-0.5,0.2-0.7,0.7-0.7c6.7,0,13.4,0,20.1,0c0.5,0,0.7,0.1,0.7,0.6c0,1.2,0,2.3,0,3.5c0,0.5-0.1,0.7-0.7,0.7
			c-1.4,0-2.7,0-4.1,0c-0.6,0-0.7,0.2-0.7,0.7c0,8.9,0,17.7,0,26.6c0,0.6,0.3,0.7,0.8,0.7c3.1,0,6.2,0,9.3,0c0.7,0,0.9,0.2,0.8,0.8
			c-0.1,1.2,0,2.5,0,3.7c0,0.6,0.2,0.8,0.8,0.8c1.3,0,2.7,0,4,0c0.5,0,0.7,0.2,0.7,0.7c0,1.3,0,2.7,0,4c0,0.6,0.1,0.8,0.7,0.8
			c1.3,0,2.7,0,4,0c0.5,0,0.6,0.1,0.6,0.6c0,3,0,6.1,0,9.1c0,0.5-0.1,0.7-0.6,0.7c-1.2,0-2.4,0-3.6,0c-0.5,0-0.7-0.2-0.6-0.7
			c0-1.3,0-2.6,0-3.9c0-0.7-0.2-1-0.9-1C391.9,290.3,387.6,290.3,383.2,290.3C383.2,290.3,383.2,290.3,383.2,290.3z"/>
		<path class="st62" d="M407.7,274.1c-0.3,0-0.5,0-0.8,0c-8.4,0-16.7,0-25.1,0c-0.7,0-0.9-0.1-0.9-0.9c0-5.1,0-10.2,0.1-15.3
			c0.3-0.3,0.7-0.3,1-0.3c3.2,0,6.5,0,9.7,0c1.8,0,3.5-0.1,5.3,0.1c0.1,0,0.2,0.1,0.3,0.2c0.3,1.3,0.1,2.6,0.1,3.9c0,0.5,0,1,0,1.5
			c0,1.4,0,2.7,0,4.1c0,0.3-0.1,0.7,0.2,0.9c1.5,0.2,3.1,0.2,4.6,0c0.3-0.2,0.2-0.6,0.2-0.9c0-1.4,0-2.7,0-4.1c0-1.5,0-3,0-4.4
			c0-0.4,0-0.8,0.2-1.1c0.2-0.2,0.5-0.2,0.8-0.2c1.2,0,2.3,0,3.5,0c0.5,0,0.9,0.1,0.9,0.7C407.7,263.7,407.8,268.9,407.7,274.1z"/>
		<path class="st63" d="M391.6,258c-3.6,0-7.1,0-10.7,0c0-3.4,0-6.8,0-10.2c0-0.5,0.2-0.5,0.6-0.5c1.4,0,2.8,0,4.2,0
			c0.5,0,0.7-0.1,0.7-0.6c0-1.3,0-2.7,0-4c0-0.5,0.1-0.7,0.7-0.7c1.2,0,2.4,0,3.6,0c0.5,0,0.7,0.2,0.7,0.7c0,1.3,0,2.7,0,4
			c0,0.5,0.1,0.7,0.6,0.7c1.6,0,3.2,0,4.7,0c0.5,0,0.7-0.2,0.7-0.7c0-1.3,0-2.7,0-4c0-0.5,0.2-0.7,0.7-0.7c1.1,0,2.2,0,3.3,0
			c0.6,0,0.7,0.2,0.7,0.8c0,1.3,0,2.5,0,3.8c0,0.7,0.1,0.9,0.8,0.9c1.6-0.1,3.2,0,4.7,0c0.2,1.6,0.1,3.3,0.1,4.9
			c0,0.5-0.5,0.5-0.9,0.6c-0.9,0.1-1.8,0-2.8,0c-0.4,0-0.8,0-1.1,0.1c-0.4,0.3-0.3,0.7-0.3,1.1c0.1,3-0.3,6.1-0.2,9.1
			c0,0.1,0,0.2-0.1,0.3c-0.2,0.2-0.4,0.2-0.7,0.2c-1.5-0.1-3,0.2-4.5-0.2c-0.2-1.1,0-2.2-0.1-3.2c0-0.7,0.1-1.5-0.1-2.2l0,0
			c-0.3-0.4-0.2-0.8-0.3-1.2c0-1.1,0-2.1,0-3.2c0-0.6-0.2-0.9-0.9-0.9c-1,0-2.1,0-3.1,0c-0.6,0-0.8,0.3-0.8,0.9c0,1.1,0,2.1,0,3.2
			C391.9,257.2,392,257.7,391.6,258z"/>
		<path class="st64" d="M397.2,280.4c0-0.3,0-0.6,0-0.9c-0.6-0.3-1.2-0.1-1.7-0.1c-1.2-0.1-2.4,0.1-3.6-0.1l0,0
			c-0.2-1.4,0-2.7-0.1-4.1c0-0.4,0.2-0.5,0.5-0.5c3.1,0,6.2,0,9.2,0c0.3,0,0.5,0,0.5,0.4c-0.1,0.6-0.6,0.5-1,0.5
			c-1.1-0.2-2.3,0-3.5-0.3c-0.5-0.1-1,0.2-1.5,0.4c-0.3,0.1-0.2,0.4-0.1,0.7c1.2,2,2.5,2.3,4.7,1.4c0.4-0.2,0.8-0.7,1.3-0.2
			c0,1.1,0,2.3,0,3.4c-0.4,0.4-1,0.4-1.4,0.2c-0.9-0.3-1.9-0.5-2.9-0.5C397.5,280.6,397.3,280.5,397.2,280.4z"/>
		<path class="st65" d="M402.6,252.5c1.5,0,2.9,0,4.4,0c0.3,0,0.7,0,0.6-0.5c0-1.6,0-3.2-0.1-4.7c0.3,0.2,0.2,0.5,0.2,0.7
			c0,8.5,0,17,0,25.5c0,0.2,0.1,0.5-0.2,0.7c0-5.1,0-10.3,0-15.4c0-0.6-0.2-0.7-0.8-0.7c-1.4,0-2.9,0-4.3,0
			C402.5,256.2,402.4,254.3,402.6,252.5z"/>
		<path class="st63" d="M403.3,240.4c-0.1,0.2-0.2,0.4-0.3,0.5c-0.2,0.3-0.6,0.3-0.9,0.3c-12,0-24,0-36,0c-0.2,0-0.6,0.2-0.7-0.2
			c0.7-0.5,1.5-0.6,2.4-0.6C379.5,240.4,391.4,240.4,403.3,240.4z"/>
		<path class="st66" d="M353.4,271.5c0-0.6,0-1.3,0-1.9c0-0.5,0.2-0.6,0.6-0.6c1.2,0,2.4,0,3.7,0c0.5,0,0.6,0.2,0.6,0.6
			c0,1.3,0,2.5,0,3.8c0,0.5-0.2,0.6-0.6,0.6c-1.2,0-2.4,0-3.7,0c-0.5,0-0.6-0.1-0.6-0.6C353.4,272.7,353.4,272.1,353.4,271.5z"/>
		<path class="st63" d="M363.7,277c0,0.6,0,1.3,0,1.9c0,0.5-0.2,0.6-0.6,0.6c-1.2,0-2.4,0-3.7,0c-0.4,0-0.6-0.1-0.6-0.6
			c0-1.3,0-2.5,0-3.8c0-0.4,0.1-0.6,0.5-0.6c1.3,0,2.6,0,3.8,0c0.5,0,0.5,0.2,0.5,0.6C363.7,275.7,363.7,276.3,363.7,277z"/>
		<path class="st61" d="M396.7,244.4c-0.1,0.6,0.4,1.7-0.2,2.2c-0.5,0.4-1.5,0.1-2.2,0.1c-0.6,0-1.3,0-1.9,0c-0.5,0-0.6-0.2-0.6-0.6
			c0-1.2,0-2.4,0-3.7c0-0.5,0.1-0.6,0.6-0.6c1.3,0,2.5,0,3.8,0c0.4,0,0.6,0.2,0.6,0.6C396.7,243.1,396.7,243.7,396.7,244.4z"/>
		<path class="st67" d="M363.7,281.5c0,0.1,0,0.2,0,0.4c-1,1.1-2.5,1.5-3.9,1.8c-1,0.2-2.1,0.3-3.2,0.3c-1,0-2-0.3-2.8-1
			c-0.2,0.7,0.2,1.5-0.3,2.1c-0.2-0.7-0.1-1.3-0.1-2c0-2.5,0-5,0-7.6c0-0.3-0.1-0.6,0.1-0.9c0.5,0.6,0.2,1.3,0.3,1.9
			c0,0.5,0,1,0,1.5c0,0.4,0,0.7,0,1.1c0,0.6,0.2,1,0.9,1c0.5,0.1,1,0.2,1.5,0.2c1.6-0.1,3.2,0.1,4.8,0.2
			C361.9,280.5,362.9,280.7,363.7,281.5z"/>
		<path class="st68" d="M353.5,285c0-0.8,0-1.6,0-2.5c2.9,1.9,5.7,1.1,8.5,0.2c0.6-0.2,1.1-0.5,1.7-0.8c0,0.5,0,1,0,1.4
			c-1.3,0.9-2.7,1.4-4.2,1.6c-0.3,0-0.6,0-0.9,0.2C356.8,285.1,355.1,285.2,353.5,285z"/>
		<path class="st69" d="M353.5,278.1c0-1.2,0-2.4,0-3.5c0.2,0,0.4,0,0.5,0c1.3,0.1,2.7,0,4,0.2c0.3,0.8,0.1,1.1-0.7,1
			c-0.7-0.1-1.3-0.1-2,0.2c-0.6,0.2-0.6,0.4-0.1,0.8c0.5,0.4,1.1,0.6,1.7,0.7c1.4,0.2,1.4,0.2,1.2,1.6
			C356.8,279.7,354.8,279.3,353.5,278.1z"/>
		<path class="st70" d="M401.9,281c0-1.2,0-2.4,0-3.6c-0.2-0.4-0.5-0.5-1-0.3c-0.6,0.3-1.2,0.5-1.9,0.5c-0.8,0-1.5-0.4-2.1-0.9
			c-0.2-0.2-0.4-0.5-0.2-0.8c0.2-0.3,0.4-0.7,0.8-0.6c1.1,0.2,2.3,0,3.4,0.4c0.3,0.1,0.7,0.1,0.9-0.2c0.1-0.5-0.2-0.5-0.6-0.5
			c-2.9,0-5.9,0-8.8,0c-0.5,0-0.6,0.2-0.6,0.6c0,1.3,0,2.6,0,3.8c-0.4-1.4-0.1-2.9-0.1-4.3c0-0.3,0.3-0.3,0.5-0.3c3.1,0,6.2,0,9.2,0
			c0.3,0,0.6,0,0.6,0.5c0,3.2,0,6.4,0,9.6c0,0-0.1,0.1-0.1,0.1c-0.5-0.6-0.2-1.4-0.3-2c0-0.3,0-0.6,0-1
			C401.6,281.5,401.6,281.2,401.9,281z"/>
		<path class="st71" d="M365.3,241c0.2,0.3,0.5,0.2,0.8,0.2c12,0,23.9,0,35.9,0c0.3,0,0.7,0.1,0.9-0.2c0,0.1,0,0.1,0,0.2
			c0,1.5,0,3,0,4.5c0,0.2,0,0.4,0.2,0.6c0,0.3-0.1,0.4-0.4,0.4c0-1.4-0.1-2.8,0-4.2c0-0.8-0.2-1-1-1c-11.9,0-23.8,0-35.8,0
			c-0.3,0-0.6,0.1-0.8,0C364.9,241.2,365.2,241.1,365.3,241z"/>
		<path class="st67" d="M358.1,279c0-1.2,0-1.1-1.1-1.3c-0.9-0.1-1.8-0.3-2.4-1.1c-0.3-0.5-0.3-0.7,0.4-0.9c0.8-0.2,1.6-0.4,2.5-0.2
			c0.6,0.1,0.6-0.3,0.6-0.7c-0.1-0.1-0.1-0.2,0-0.3c0.3,0.4,0.1,0.9,0.1,1.3c0,1.3,0,2.7,0,4C357.7,279.7,357.9,279.3,358.1,279z"/>
		<path class="st72" d="M358.1,279c0.1,0.3-0.1,0.6,0.2,0.9c1.5,0.2,2.9,0,4.4,0.1c0.3,0,0.6-0.1,0.9,0.1c-0.3,0.3-0.6,0.2-1,0.2
			c-1.4,0-2.7,0-4.1,0c-1.1-0.1-2.2,0-3.4-0.1c-0.2,0-0.5-0.1-0.7,0.1c-0.9,0.2-1.2-0.2-1.1-1.1c0.1-0.3,0-0.7,0-1
			c0.7,0,1.2,0.6,1.9,0.8C356.3,279.1,357.2,279.2,358.1,279z"/>
		<path class="st73" d="M401.9,282.8c0,0.7,0,1.4,0,2.1c-1.4,0-2.7,0-4.1,0.1c-0.6,0-0.7-0.2-0.6-0.7c1.3-0.5,2.7-1,4-1.5
			C401.4,282.6,401.7,282.6,401.9,282.8z"/>
		<path class="st74" d="M401.9,281c0,0.3,0,0.6,0,0.9c-1.2,1-2.7,1.4-4.1,1.8c-0.2,0-0.4,0-0.5-0.2c0-0.2,0-0.5,0-0.7
			c0.3-0.4,0.8-0.4,1.3-0.6c0.4-0.1,0.7-0.2,1.1-0.5c-0.7-0.7-1.6-0.5-2.4-0.9c0-0.1,0-0.2,0-0.4c1.1,0,2.1,0,3.2,0.5
			C400.8,281.1,401.4,281,401.9,281z"/>
		<path class="st75" d="M354.9,251.2c0.2-0.1,0.5-0.2,0.7-0.4c0.6,0,1.3,0,1.9,0c0.5,0,0.7,0.1,0.7,0.6c0,0.4,0,0.7-0.6,0.7
			c-1.2,0-2.5,0-3.9,0c0.2-0.2,0.4-0.4,0.5-0.5C354.4,251.5,354.7,251.4,354.9,251.2z"/>
		<path class="st76" d="M358.5,285.1c0.3-0.4,0.8-0.3,1.2-0.4c1.4-0.2,2.7-1,4-1.4c0.1,1.8,0.1,1.8-1.6,1.8
			C360.9,285.1,359.7,285.1,358.5,285.1z"/>
		<path class="st77" d="M397.2,280.8c0.8-0.1,1.6,0.2,2.3,0.5c0.2,0.1,0.4,0.1,0.5,0.4c0,0.3-0.2,0.3-0.4,0.4
			c-0.7,0.4-1.6,0.5-2.4,0.7C397.2,282.1,397.2,281.4,397.2,280.8z"/>
		<path class="st78" d="M354.5,280.2c0-0.3,0.3-0.4,0.5-0.3c1.1,0.3,2.3,0,3.4,0.3c1.5-0.2,3.1,0.1,4.6,0c0.2,0,0.4,0.1,0.6,0.3
			c0,0.3,0,0.6,0,0.9c-2.5-1.1-5.2-1.1-7.8-1.1C355.4,280.4,355,280.4,354.5,280.2z"/>
		<path class="st79" d="M359.5,246.7c1.1-1.3,2.5-1.1,3.8-1.1c0.4,0,0.3,0.3,0.3,0.6c0,0.3,0,0.5-0.4,0.5
			C362,246.7,360.8,246.7,359.5,246.7z"/>
		<path class="st50" d="M402.8,284.6c0,1.8,0,3.6,0,5.4c0,0.3,0.1,0.7-0.2,0.9c0-5.3,0-10.7,0-16c0.1,0,0.2,0,0.4,0
			c0,1.4,0,2.8,0,4.2c-0.2,1.3,0,2.6-0.1,3.9C402.8,283.4,403,284,402.8,284.6z"/>
		<path class="st80" d="M397.2,283.5c1.3-0.1,2.4-0.7,3.6-1.2c0.4-0.1,0.7-0.3,1.1-0.4c0,0.3,0,0.6,0,0.9c-1.1,0.2-2.1,0.8-3.2,1.2
			c-0.5,0.1-0.9,0.3-1.4,0.3C397.2,284,397.2,283.7,397.2,283.5z"/>
		<path class="st81" d="M402.8,246.6c0.1-0.1,0.2-0.3,0.4-0.4c1.5,0,3,0,4.5,0c0.3,0,0.6-0.1,0.8,0.1c-0.2,0.2-0.4,0.4-0.8,0.4
			c-1.6,0-3.3,0-4.9-0.1C402.8,246.6,402.8,246.6,402.8,246.6z"/>
		<path class="st82" d="M408.2,257.3c0.1,0,0.2,0,0.4,0c0,5,0,10,0,15.2c-0.3-0.4-0.2-0.8-0.2-1.1c0-4.3,0-8.7,0-13
			C408.3,258,408.4,257.6,408.2,257.3z"/>
		<path class="st83" d="M408.5,257.1c-0.1-0.1-0.1-0.2-0.1-0.3c0-3.3,0-6.6,0.2-9.8c0,3.3,0,6.7,0,10
			C408.5,257,408.5,257,408.5,257.1z"/>
		<path class="st84" d="M363.7,280.6c-1.7-0.2-3.5-0.4-5.2-0.4c0.5-0.4,1.1-0.1,1.6-0.2c1.2,0,2.3,0,3.5,0
			C363.8,280.2,363.7,280.4,363.7,280.6z"/>
		<path class="st85" d="M358.1,274.6c0,0.1,0,0.2,0,0.3c-1.4,0-2.7-0.1-4.1-0.3C355.4,274.5,356.7,274.5,358.1,274.6z"/>
		<path class="st86" d="M402.8,284.6c0-1.5,0-3.1,0-4.6c0-0.3-0.1-0.7,0.2-0.9c0,1.1,0,2.2,0,3.2c0,0.8,0,1.6,0,2.3
			C402.9,284.6,402.8,284.6,402.8,284.6z"/>
		<path class="st64" d="M391.8,279.3c1.5,0,3,0,4.5,0c0.3,0,0.7-0.1,0.9,0.2c-1.2-0.3-2.5,0-3.7-0.1
			C393,279.4,392.4,279.6,391.8,279.3z"/>
		<path class="st65" d="M391.6,258c0-1.6,0-3.2,0-4.7c0-0.6,0.1-0.8,0.7-0.8c1.3,0,2.7,0,4,0c0.6,0,0.7,0.2,0.7,0.7
			c0,1.6,0,3.2,0,4.8C395.2,258,393.4,258,391.6,258z"/>
		<path class="st87" d="M402.4,268.9c-1.7,0.1-3.5,0.1-5.2,0c-0.2-0.9-0.1-1.8,0-2.6c0,0,0.1-0.1,0.1-0.1c1.7,0,3.5,0.1,5.1,0.6
			C402.5,267.5,402.6,268.2,402.4,268.9z"/>
		<path class="st88" d="M402.6,252.5c-0.1,1.9-0.1,3.7,0,5.6c0,1.8,0,3.7,0,5.5c0,0.1-0.1,0.1-0.2,0c0,0,0-0.1,0-0.1
			c0,0,0-0.1,0-0.1c0-3.3,0-6.6,0-9.9C402.4,253.1,402.3,252.7,402.6,252.5z"/>
		<path class="st88" d="M397,258c0.3,0.4,0.2,0.8,0.2,1.2c0,1.4,0,2.8,0,4.2c0,0.1,0,0.1,0,0.2c-0.1,0-0.1,0-0.2,0
			C397.1,261.7,397,259.9,397,258z"/>
		<path class="st89" d="M402.4,263.5c0,0,0.1,0,0.1,0c0,1.5,0,3,0,4.6c0,0.3,0.2,0.6-0.1,0.8c0-0.7,0-1.4,0-2.1c-0.5-1-0.2-2-0.2-3
			C402.3,263.7,402.4,263.6,402.4,263.5z"/>
		<path class="st89" d="M397.1,263.5c0,0,0.1,0,0.1,0c0,0,0.1,0.1,0.1,0.1c0.2,0.9,0.3,1.7-0.1,2.6c0,0.9,0,1.8,0,2.6
			c-0.3-0.5-0.1-1.1-0.1-1.7C397,266,397.1,264.8,397.1,263.5z"/>
		<path class="st89" d="M397.2,263.5c0-0.1,0-0.1,0-0.1c1.7,0,3.5,0,5.2,0c0,0,0,0.1,0,0.1c0,0-0.1,0.1-0.1,0.1
			c-0.2,0.2-0.5,0.2-0.7,0.2c-1.2,0-2.4,0-3.7,0C397.7,263.8,397.4,263.8,397.2,263.5L397.2,263.5z"/>
		<path class="st90" d="M401.9,275.4c0,0.9-0.7,0.6-1.1,0.4c-1.1-0.4-2.3-0.4-3.4-0.4c-0.5,0-0.6,0.7-0.2,1.1c0.9,0.9,2,1,3.2,0.6
			c0.3-0.1,0.5-0.2,0.7-0.3c0.8-0.5,0.9-0.1,0.8,0.6c-1.1,0.6-2.3,1.2-3.6,1.1c-0.8-0.1-1.4-0.3-1.7-1c-0.2-0.4-0.5-0.7-0.8-1
			c-0.4-0.4-0.1-1,0.1-1c0.6,0,1.1-0.4,1.7-0.3C399,275.2,400.4,275.3,401.9,275.4z"/>
		<path class="st91" d="M355,280.6c1.9,0.2,3.7,0.3,5.4,0.4c0.4,0,1.1,0.1,1.1,0.5c0,0.5-0.6,0.7-1,0.8c-1.6,0.3-3.2,0.5-4.8,0.2
			c-0.3-0.1-0.7-0.2-1-0.4c-0.3-0.2-0.8-0.4-0.6-0.9C354.3,280.9,354.4,280.3,355,280.6z"/>
		<path class="st92" d="M397.2,263.6c1.7,0,3.4,0,5.2,0c0,1.1,0,2.1,0,3.2c-1.7-0.2-3.4-0.4-5.2-0.5
			C397.2,265.4,397.2,264.5,397.2,263.6z"/>
	</g>
</g>
</svg>
