<?xml version="1.0" encoding="utf-8"?>
<!-- Generator: Adobe Illustrator 24.2.0, SVG Export Plug-In . SVG Version: 6.00 Build 0)  -->
<svg version="1.1" id="Layer_1" xmlns="http://www.w3.org/2000/svg" xmlns:xlink="http://www.w3.org/1999/xlink" x="0px" y="0px"
	 viewBox="0 0 458.6 458.6" style="enable-background:new 0 0 458.6 458.6;" xml:space="preserve">
<style type="text/css">
	.st0{fill:#FFFFFF;}
</style>
<path id="XMLID_4_" class="st0" d="M8.3,218.4V71h45.6v101.8h31.4v45.6H8.3z"/>
<path id="XMLID_9_" class="st0" d="M116.6,446.9L7.5,257.6h63.8l45.3,78.7l52.9-96.3l50.3,32.6L116.6,446.9z"/>
<path id="XMLID_11_" class="st0" d="M254.9,366.9v4.1h37.4v37.6h-75.2V287.1h75.2V325h-37.4v4.1h51.8v37.8H254.9z"/>
<path id="XMLID_2_" class="st0" d="M413.9,271.7c-16.5,10.3-34.5,15.4-53.8,15.4c-3.9,0-7.8-0.2-11.7-0.6c-3.9-0.4-7.8-1-11.7-1.9
	c-3.9-0.8-7.8-1.9-11.7-3.2c-3.9-1.3-7.8-2.8-11.7-4.5c-6.6-2.9-11-4.8-13.3-5.9c-2.3-1-4-2-5.2-2.8c-1.2-0.8-3-1.7-5.2-2.8
	c-2.3-1-6.7-3-13.2-5.9c-3.9-1.6-7.9-2.9-11.9-3.9c-4-0.9-8-1.4-11.9-1.4c-7.6,0-14.6,2-21,5.9c-6.4,3.9-17.9,20.3-21.4,28.5
	l-48.9-33.1c3.5-8,7.6-15.2,12.2-21.6c4.6-6.4,9.8-11.9,15.6-16.6c-17.5-9.7-31.6-23.3-42.5-40.8c-10.9-17.6-16.3-36.9-16.3-58.1
	c0-31.2,11-57.8,33.1-79.8c22.1-22,48.6-33,79.7-33c31.2,0,57.8,11,79.8,33c22,22,33,48.6,33,79.8c0,18.5-4.2,35.6-12.5,51.5
	c-8.3,15.8-19.5,28.9-33.4,39.1c2.7,1.2,4.6,2.2,5.9,2.8c1.2,0.6,2.3,1.1,3.1,1.5c1.4,0.8,3.2,1.8,5.4,2.9c2.2,1.1,6.5,3.1,13.1,6
	c3.9,1.6,7.8,2.8,11.6,3.5c3.8,0.7,7.6,1.1,11.2,1.1c7.8,0,14.9-1.9,21.3-5.7c6.4-3.8,11.3-9.9,14.8-18.3l55.5,23.4
	C443,246.3,430.4,261.4,413.9,271.7z M276.6,84.9C267.3,75.7,256.1,71,243,71c-12.9,0-24,4.6-33.3,13.9
	c-9.2,9.2-13.9,20.4-13.9,33.6c0,12.9,4.6,24,13.9,33.3c9.2,9.2,20.3,13.9,33.3,13.9c13.1,0,24.3-4.6,33.6-13.9
	c9.2-9.2,13.9-20.3,13.9-33.3C290.4,105.4,285.8,94.2,276.6,84.9z"/>
<circle id="XMLID_1_" class="st0" cx="243.1" cy="118.9" r="18.9"/>
<circle id="XMLID_31_" class="st0" cx="121.1" cy="199.5" r="18.9"/>
<circle id="XMLID_32_" class="st0" cx="330.3" cy="400" r="18.9"/>
<circle id="XMLID_46_" class="st0" cx="183.3" cy="400" r="18.9"/>
<circle id="XMLID_60_" class="st0" cx="433" cy="183.7" r="18.9"/>
</svg>
