<?xml version="1.0" encoding="UTF-8"?>
<svg id="Layer_1" data-name="Layer 1" xmlns="http://www.w3.org/2000/svg" xmlns:xlink="http://www.w3.org/1999/xlink" viewBox="0 0 1280 720">
  <defs>
    <style>
      .cls-1 {
        fill: none;
      }

      .cls-2 {
        fill: #fff;
      }

      .cls-3 {
        clip-path: url(#clippath);
      }
    </style>
    <clipPath id="clippath">
      <rect class="cls-1" width="1280" height="720"/>
    </clipPath>
  </defs>
  <g class="cls-3">
    <path class="cls-2" d="M1157.97,692.83h15.34v-138.95h32.28v-13.74h-80.58v13.74h32.96v138.95ZM996.35,692.83h15.34v-67.99h17.17l34.34,70.96,13.73-6.64-31.59-65.47c18.77-6.41,26.33-24.26,26.33-43.04,0-27.47-19-40.52-34.11-40.52h-41.21v152.69ZM1011.69,553.87h18.77c15.57,0,25.18,6.87,25.18,26.78s-8.24,30.45-21.52,30.45h-22.43v-57.23ZM857.86,692.83h74.4v-13.73h-59.06v-61.12h48.76v-13.74h-48.76v-50.36h59.06v-13.74h-74.4v152.69ZM790.1,572.64c-3.89-19.23-14.42-34.57-35.94-34.57s-35.48,18.31-35.48,38.92c0,22.43,11.68,29.76,29.3,40.06,15.8,9.16,28.84,16.02,28.84,36.17,0,18.31-9.39,27.24-22.66,27.24-18.54,0-22.21-12.82-24.27-29.76l-15.34,2.06c2.29,24.26,12.13,42.12,39.15,42.12s38.46-19,38.46-43.04-12.82-32.96-31.59-44.18c-24.04-14.42-26.55-18.31-26.55-30.68s5.72-24.49,20.15-24.49c13.05,0,18.54,11.22,21.06,22.43l14.88-2.29ZM583.16,692.83h74.4v-13.73h-59.06v-61.12h48.76v-13.74h-48.76v-50.36h59.06v-13.74h-74.4v152.69ZM464.81,553.87h16.25c13.51,0,29.07,4.58,29.07,62.72s-14.19,62.5-32.74,62.5h-12.59v-125.22ZM449.47,553.87v125.22h-12.36v13.73h40.75c46.47,0,48.3-42.58,48.3-76.23,0-62.95-18.08-76.46-48.76-76.46h-40.29v13.74h12.36Z"/>
    <path class="cls-2" d="M714.33,420.2h15.34v-74.86h47.16v74.86h15.34v-152.69h-15.34v64.1h-47.16v-64.1h-15.34v152.69ZM608.57,420.2h15.34v-138.95h32.28v-13.73h-80.58v13.73h32.97v138.95ZM495.71,359.31h-34.34l16.94-71.42h.46l16.94,71.42ZM499.38,373.05l11.9,50.13,15.11-4.12-38.69-151.54h-18.31l-38.69,151.54,15.11,4.12,11.9-50.13h41.66ZM308.46,420.2h74.4v-13.73h-59.06v-61.12h48.76v-13.73h-48.76v-50.36h59.06v-13.73h-74.4v152.69ZM190.11,281.25h16.25c13.51,0,29.07,4.58,29.07,62.72s-14.19,62.49-32.74,62.49h-12.59v-125.22ZM174.77,281.25v125.22h-12.36v13.73h40.75c46.47,0,48.3-42.58,48.3-76.23,0-62.95-18.09-76.46-48.76-76.46h-40.29v13.73h12.36Z"/>
  </g>
  <path class="cls-2" d="M303.24,622.83h42.31v-7.81h-33.59v-34.76h27.73v-7.81h-27.73v-28.64h33.59v-7.81h-42.31v86.83ZM221.62,622.83h8.72v-42.57h26.82v42.57h8.72v-86.83h-8.72v36.45h-26.82v-36.45h-8.72v86.83ZM161.48,622.83h8.72v-79.02h18.35v-7.81h-45.82v7.81h18.74v79.02Z"/>
  <path class="cls-2" d="M953.67,356.57h8.17v-53.24l-.36-19.66.24-.26,24.15,73.16h10.24v-86.83h-8.17v53.37l.37,19.4-.24.26-24.15-73.03h-10.24v86.83ZM897.57,348.76h-10.98v7.81h30.25v-7.81h-11.1v-71.21h11.1v-7.81h-30.25v7.81h10.98v71.21Z"/>
  <path class="cls-2" d="M52.93,321.15h-22.44l11.07-39.84h.3l11.07,39.84ZM55.32,328.81l7.78,27.96,9.88-2.3-25.29-84.53h-11.97l-25.29,84.53,9.88,2.3,7.78-27.96h27.23Z"/>
  <path class="cls-2" d="M749.23,80.07h17.55v-28.23h-17.55v28.23ZM749.23,134.25h17.55v-28.23h-17.55v28.23ZM639.55,122.8h-32.05v11.45h72.11v-11.45h-27.28V4.53l-40.06,15.26,4.01,11.64,23.27-8.97v100.34ZM529.09,61l-18.31-53.99h-15.83l-3.82,127.24h13.35l2.48-106.07h.38l21.75,63.91,21.75-63.91h.38l2.48,106.07h13.54l-3.82-127.24h-16.02l-18.31,53.99Z"/>
</svg>