<?xml version="1.0" encoding="utf-8"?>
<!-- Generator: Adobe Illustrator 24.2.0, SVG Export Plug-In . SVG Version: 6.00 Build 0)  -->
<svg version="1.1" xmlns="http://www.w3.org/2000/svg" xmlns:xlink="http://www.w3.org/1999/xlink" x="0px" y="0px"
	 viewBox="0 0 1005.3 747.4" style="enable-background:new 0 0 1005.3 747.4;" xml:space="preserve">
<style type="text/css">
	.st0{fill:#E0A6A2;}
	.st1{fill:#382321;}
	.st2{fill:#D6DBCC;}
	.st3{fill:#FF515E;}
	.st4{fill:#301C19;}
	.st5{fill:#422926;}
	.st6{fill:#331D1C;}
	.st7{fill:#6B5856;}
	.st8{fill:none;stroke:#000000;stroke-width:3;stroke-miterlimit:10;}
	.st9{fill:#FFFFFF;}
</style>
<g id="Layer_1">
	<g id="Layer_5">
	</g>
	<g id="Layer_4">
		<path class="st0" d="M346.3,600.3c0,0,8,8,15,10s29,7,29,7l6-17l6-31l19-77l19-66l33-102l15-58l15-57l13-44l16-45c0,0-15-11-19-12
			s-20-10-20-10l-3,8l-16,55l-4,18l-11,34l-11,40l-5,20l-51,153l-15,51L346.3,600.3z"/>
		<path class="st0" d="M532.3,120.3c0,0-3-9-10-13s-17-9-29-9"/>
	</g>
	<g id="Layer_2_1_">
		<path class="st1" d="M711.3,324.3l-15-12l-23-9h-22l-19,6l-27,19l-14,7l-14-2l-9-11l-4-11l-1-16l4-13h-4l-4-8l4-11l4-12h-8v-12
			v-27l-2-14l-7-21l-24-35l-16,47l9,21v27v15l-6,22l-8,32l-6,23v17l4,19l3,6l-14,5l-22,3l-14-2l-42,139l-13-6l-13-9l-12-15h-10
			l-10,13l8,35l16,20c0,0,19,14,23,18s25,10,25,10l24,4l-3,5l18-2l14-5v5l17-5l27-12l18-11l9-15l4-8l11-3l22-9l-2,5l-17,23l-6,12
			l4,5l-7,13l-18,27l-16,15c0,0-15,15-16,15s4,12,4,12l8,4h9l23-11l26-17l16-17l17-21l19-34l18-31l17-38l5,5l4-10l5-18l10-8l20-20
			l16-20l6-24l-4-31l-7-20L711.3,324.3z"/>
		<polygon class="st2" points="635.3,322.3 615.3,338.3 605.3,358.3 607.3,376.3 617.3,399.3 633.3,422.3 652.3,437.3 668.3,439.3 
			688.3,435.3 704.3,422.3 717.3,403.3 719.3,374.3 713.3,361.3 702.3,349.3 696.3,336.3 694.3,327.3 678.3,317.3 651.3,315.3 		"/>
		<circle class="st3" cx="629.3" cy="355.3" r="6"/>
		<circle class="st3" cx="662.3" cy="409.3" r="6"/>
		<polygon class="st4" points="470.3,282.3 470.3,295.3 465.3,298.3 456.3,306.3 443.3,317.3 421.3,346.3 408.3,377.3 387.3,442.3 
			380.3,468.3 373.3,469.3 365.3,462.3 353.3,434.3 348.3,408.3 353.3,377.3 358.3,356.3 373.3,332.3 389.3,313.3 418.3,287.3 
			440.3,274.3 465.3,271.3 		"/>
		<path class="st4" d="M419.9,501.9c0,0,57.4-11.6,69.4-10.6s44,1,51,4s18,18,18,21s2,13-6,13l-5-8l-11-8l-15-2l-32,2c0,0-33,5-34,5
			s-26,1-29,0s-12-2-12-2L419.9,501.9z"/>
		<path class="st4" d="M589.3,526.3L577.7,546l-13.4,20.3l4,5l-7,13l-17,28l-19,14l-13,15h7c0,0,46-41,57-57
			S601.3,542.3,589.3,526.3z"/>
		<path class="st4" d="M516.3,165.3l-4,13.5c0,0,15,18.5,16,31.5s2,43,0,56s-21,74-5,96c3.4,4.7,11,0,11,0s-17-20,0-99
			c2.1-9.8,3-50,0-60S525.3,172.3,516.3,165.3z"/>
		<path class="st5" d="M512.3,541.3c9,0,14-2,16,3s9,4,4,9c-12.2,3.2-27.7,23.6-42,21c-53.7,3.4-95.2-1.8-121.1-53
			c-0.9-3-3.9-18-1.9-9s15,5,20,11s8,17,28,19C447.2,546.4,489.9,546.1,512.3,541.3z"/>
		<path class="st5" d="M644.3,506.3c1.4-5.7-3-8-5-3s-19,47-19,47s-49,61-54,65s-40,29-33,28s16-4,22-8s35-33,40-36s35-45,37-53
			S640.3,522.3,644.3,506.3z"/>
		<g>
			<path class="st6" d="M577.8,384.4c1,16,4.3,36.4,13.7,49.4s23.5,21.6,43,27.6c6.5,2,13.6-5.2,15.6-11.8
				c-8.1-4.5-16.3-9.1-24.4-13.6c-2.9-1.6-5.8-3.2-8.2-5.4c-3.9-3.4-6.5-7.9-8.9-12.4c-11.6-21.7-19.6-46.7-14.9-70.8
				c0,0-0.3-2-3.3-1s-8.6,5.1-10,9C577.3,363.3,577.3,376.4,577.8,384.4z"/>
		</g>
	</g>
	<g id="Layer_3">
		<polygon class="st7" points="713.7,411.1 707.3,418.3 697.9,427.5 685.7,435.3 678.2,415.3 673.3,395.3 673.5,386.4 677.3,381.3 
			684.2,378.9 693.5,383.6 702.2,391.6 		"/>
		<polygon class="st7" points="658.3,315.3 662.3,325.3 668.3,338.3 668.3,351.3 665.3,356.3 660.3,358.3 648.3,355.3 633.3,340.3 
			623.3,332.3 630.3,323.3 645.3,317.3 		"/>
		<path class="st7" d="M685.3,435.3l13-8c0,0,8-7,9-9s6-7,6-7l4,11v9c0,0-11,10-10,10s-18,15-18,15l-2-15L685.3,435.3z"/>
		<polygon class="st7" points="623.3,332.3 611.3,324.3 620.3,316.3 636.3,308.3 649.3,303.3 656.3,314.3 642.9,317.8 627.2,327.3 
					"/>
		<polygon class="st2" points="467.3,273.3 472.3,284.3 467.3,297.3 479.3,302.3 480.3,292.3 485.3,294.3 483.3,276.3 470.3,273.3 
					"/>
		<polygon class="st2" points="487.3,108.3 482.3,114.3 478.3,122.3 473.3,133.3 474.3,143.3 483.3,154.3 481.3,141.3 488.3,144.3 
			484.3,130.3 494.3,136.3 491.3,126.3 		"/>
		<path class="st2" d="M375.3,484.3l-6,4l-13,9l-1-11l5-5c0,0,3-6,6-6s12-6,12-6L375.3,484.3z"/>
		<path class="st2" d="M525.3,660.3c0,0-7,4-7,3s-17,2-17,2l-1-3l10-5c0,0-2,0-3-1s-10,0-10,0l-2-2l6-4l-1-1l-7-3l1-2l17-5
			c0,0,2,9,2,10s4,7,4,7L525.3,660.3z"/>
	</g>
	<g id="Layer_1_1_">
		<g>
			<path d="M486.5,132.6c1.1,5.6,3.7,9,5.7,12.6c0.9,1.6,3.1,3.3,1,5.1c-2,1.7-3.6-0.5-5.1-1.5c-1.7-1.2-3.2-2.6-5.5-4.5
				c1,4.8,3.1,8,4.8,11.5c0.6,1.3,1.7,2.7,0.4,4c-1.5,1.5-3,0.2-4.4-0.5c-6.6-3.7-6.8-3.8-8.5,3.6c-7.9,33.9-20,66.6-28.2,100.4
				c-2.1,8.7-2.2,8.9,6.4,6.6c9.2-2.4,17.9,0.2,26,3.6c5.6,2.3,6.2-0.5,7.1-3.9c4.2-15,8.7-30,12.2-45.2
				c8.2-34.8,20.7-68.1,32.7-101.6c0.3-0.8,0.5-1.5,0.9-2.3c0.4-0.9,1-1.9,2.2-1.4c1.2,0.6,0.6,1.6,0.3,2.5
				c-1.8,5-3.4,10.2-5.5,15.1c-1.6,3.8-1,6.6,1.6,9.7c12,14.6,20.3,31.3,27.2,48.8c2.9,7.3,3.2,14.9,3.4,22.5
				c0.2,8.8,0,17.6,0.1,26.3c0,1.1-0.6,3,1.3,3.2c1.2,0.1,1.5-1.4,2.1-2.4c0.8-1.5,1-3.4,3.3-4.6c0.3,6.6-1,12.5-2.9,18.3
				c-1.8,5.7-3.7,11.5-3.6,17.6c0,1.2-0.3,2.9,1.2,3.4c1.3,0.4,1.8-1.1,2.6-1.8c0.6-0.6,1.1-1.9,2.3-1.3c1.1,0.5,0.7,1.7,0.7,2.6
				c0,5.6-1.9,10.9-2.7,16.3c-1.4,9.6-0.2,18.8,4.4,27.4c5.5,10.3,16.7,14,27.5,9.2c5.4-2.4,10-6.1,14.5-9.8
				c7-5.9,14.5-11,22.9-14.7c27.3-12.2,59.6-5.9,79.2,19.5c10.6,13.7,18.2,29,20.4,46.3c3.1,24.8-2.9,46.8-21.8,64.3
				c-8.8,8.2-17.6,16.4-26.4,24.5c-3.2,3-5.4,6.2-6,10.8c-1,7.3-4,14.1-7.1,20.7c-0.5,1-0.7,2.4-2.1,2.4c-1.2,0-1.3-1.2-1.6-2.1
				c-0.3-0.9-0.5-2.1-1.7-2.1c-1.3,0.1-1.7,1.4-2.1,2.4c-4.2,9.3-8.5,18.6-12.4,28.1c-8.8,21.3-20.9,40.8-33.3,60.1
				c-6.2,9.7-11.7,20.2-20.1,28.1c-9,8.4-15.3,19.3-26.5,25.7c-10.7,6.1-20.7,13.4-32.2,18.2c-9.8,4.2-19.1,9.8-30,11.2
				c-6.5,0.8-12.9,1.1-20-0.6c4.4-4.7,11.2-2.9,16.2-7.7c-6.7,0.6-12.6,2-17.9-1.8c2.8-3.2,7.1-2.2,10.2-4.9c-3.1-1.6-6.5-0.5-9.3-2
				c-1-0.6-2.3-1-2.4-2.2c0-1.3,1.4-1.7,2.4-2c1.5-0.5,3.1-0.9,4.7-1.3c10.3-2.8,19.2-7.5,27.8-14.2c18.4-14.4,30.1-33.7,41.6-53.3
				c0.8-1.4,2.2-2.9-0.4-4.4c-2.4-1.3-0.4-3.4,0.2-4.7c4.6-8.8,8.6-17.9,15-25.6c2-2.4,3.6-5,5.3-7.6c0.5-0.7,0.9-1.5,0.3-2.2
				c-0.6-0.8-1.5-0.4-2.2-0.1c-8,3.5-16.3,6.5-24.7,9.1c-1.6,0.5-2.4,1.7-2.9,3.1c-5.6,16.3-18.1,25.6-33.1,32.4
				c-12.4,5.6-24.4,12.4-37.9,15.1c-2,0.4-4.7,2.4-5.3-2.1c-0.3-1.9-2.5-0.5-3.7-0.1c-8.6,2.8-17.4,4.1-26.4,4.2
				c-1.5,0-3.6,0.7-4.4-1c-0.9-1.9,2.1-2.1,2.5-3.5c-0.4-1.3-1.4-1.5-2.3-1.6c-12.5-1.7-24.3-5.7-35.7-11.1
				c-5.2-2.5-5.8-2.1-7.1,3.5c-2.7,11.5-5.4,23.1-8.1,34.7c-0.2,0.8-0.4,1.6-0.7,2.3c-0.4,1.1-0.8,2.4-2.2,1.9
				c-1.6-0.6-0.7-1.8-0.3-2.8c4.1-12.7,6.4-25.9,9.5-38.8c0.5-2.1,0.9-4.1-1.5-5.6c-13.3-8.2-24.1-19.1-32.8-31.8
				c-1.4,0.1-1.5,1-1.7,1.7c-5.5,19.1-10.3,38.3-14.6,57.6c-0.4,1.8-0.4,5.1-2.4,4.6c-2.9-0.7-0.7-3.6-0.3-5.4
				c4.9-18.7,9.9-37.4,14.9-56c1.4-5.4,0.9-10.4-1-15.7c-2.3-6.7-3.6-13.8-5.3-20.7c-3.7-15.2,0.5-6.8,2-7.3c2.1-0.6,2,5.2,2.1,6.3
				c0.3,2.5,0.2,0.7,1.2,6.7c2,7,0.4,7,1.4,10.3c7.7,25.1,25.6,40.8,48.1,52.1c13.2,6.6,27.1,11.1,42,11.6c4.6,0.2,2.6,2.6,0.8,5.3
				c6.8-0.6,12.5-0.7,18.1-2.7c3.7-1.3,7.4-2.5,11.1-3.6c2.2-0.7,4.2-1.1,4.8,2.1c0.4,2.1,1.9,1.3,3,1c4-0.9,7.9-2,11.5-3.9
				c9.6-5.2,20-8.6,29.5-14c8.8-5.1,15.7-11.8,20.2-21.2c3.5-7.2,3-13.9-1.5-20.3c-3.7-5.3-7.1-10.9-14-13.2
				c2.9-1.3,5.9-1.1,7.6,0.8c4.8,5.4,11,10,12.5,17.7c0.8,4.1,2.8,4.5,6.2,3.7c8-1.8,15.3-5.2,22.6-8.9c1.6-0.8,3.5-2.9,5.2-1.1
				c1.5,1.7-0.4,3.7-1.3,5.3c-5.6,9.9-13.8,18.2-18,28.9c-0.7,1.6-3.9,3.6,0.6,5c1.6,0.5,0.3,2.3-0.3,3.4c-3,5.8-5.7,11.7-9.1,17.2
				c-7.7,12.5-15.7,24.8-25.9,35.3c-4.4,4.5-9.9,7.9-14.6,12.1c-3.2,2.9-7,5.5-7.1,10.6c-0.2,8.1,6.6,13.6,15.2,12
				c11-2.1,20.7-7.7,30.2-13.3c4.8-2.8,9.1-6.2,13.9-9.1c9.8-5.9,16.4-14.5,21.1-24.8c0.8-1.8,1.2-4.5,4.8-2.6
				c2.2,1.1,3.3-2.1,4.4-3.6c10.6-14.4,20.2-29.5,29.5-44.8c10.8-17.9,18.3-37.3,26.6-56.4c2.5-5.7,5.8-11.1,8.8-16.9
				c2.3,1.8,1.4,4.6,3.7,6.3c3.2-4.8,4.9-10.1,5.9-15.5c1.1-6.3,3-11.9,7.9-16.3c2.9-2.6,2.1-6,1.7-9.2c-0.5-3.7,0.4-8.2-2.1-10.8
				c-2.8-2.8-6.6,0.6-10,1.1c-14.8,2.2-27.7-1.2-38.3-12.1c-12-12.4-21-26.7-27.4-42.8c-3.6-8.9-6.5-17.6-4.6-27.4
				c1.5-8.1,5.4-14.8,10.7-21c1.3-1.5,4.5-2.5,2.6-5.4c-1.8-2.8-7.9-4.3-10.5-2.8c-2.2,1.3-4.3,2.9-6.6,4.1
				c-14.4,7.4-31,4.7-36.2-15c-2.6-9.8-3.7-19.4-0.5-29.3c0.6-1.8,3.2-6.2-2.9-4.2c-2.2,0.7-2.1-1.9-2.2-3.4
				c-0.6-7.7-0.7-15.3,3.5-22.3c1.1-1.9,1.4-4.2,2.2-6.4c-2.5-0.6-3,3.1-4.8,1.9c-2-1.3-1.4-3.8-1.4-5.9c0-8,0.1-15.9,0.2-23.9
				c0.3-28.7-12.2-52.4-29.2-74.2c-3.1-3.9-3.7-3.7-5.7,1c-4.7,11.3-8.1,23-11.8,34.6c-0.6,1.8-0.6,3.5,0.3,5.2
				c9.3,17.6,9.2,36.6,7.4,55.7c-1.9,21-9,40.9-14.6,61.1c-4.6,16.4-6.8,32.7-2.6,49.5c0.9,3.6,2.1,7.2,4.1,10.4
				c1.9,2.8,1.6,4.5-2,5.7c-14,4.6-28.2,7.9-43.1,5.9c-3.3-0.4-4.6,1.1-5.7,3.8c-6,15-9.8,30.6-14.8,45.9c-0.3,0.9-0.6,1.9-0.9,2.8
				c-0.3,1.1-0.6,2.5-2.1,2s-1-1.8-0.6-2.9c3.6-9.3,5.7-19,8.9-28.4c9.5-28,17.2-56.6,26.3-84.8c1.1-3.6,2.5-7.1,3.9-10.5
				c1.1-2.6,0.3-4-2.1-5c-4.8-1.9-9.5-1.8-14,0.8c-8.1,4.8-15.1,10.9-20.6,18.4c-13.6,18.6-24.9,38.5-31.5,60.7
				c-4.3,14.5-10.9,28.2-15,42.8c-0.1,0.4-0.6,0.6-1.2,1.2c-1-2.5-2.1,0.3,0-6.8c9.1-23.8,15-48.8,27.4-71.4
				c7.9-14.3,16.2-28.2,28.5-39.3c4.3-3.8,8.9-7,13.9-9.9c5.9-3.4,8.2-9.2,6.7-15.8c-2-8.7-5.4-11-14.1-9.7
				c-14.2,2.2-27.1,8.2-38,16.8c-19.9,15.8-37.5,34-51,55.9c-7.6,12.4-10.2,26.3-13,40.1c-1.5,7.3-1.9,14.8-1.9,22.3
				c0,1.2,0.8,2.9-1.3,3.5c-1.2,0.3-1.7-2.2-1.7-3.7c0.6-35.2,11.1-66.4,36.9-91.4c6.4-6.2,12.6-12.7,18.9-19
				c9.4-9.4,20.3-16.7,32.7-21.6c3.1-1.2,5.2-3.1,6-6.5c7.7-32.3,18.8-63.5,27.3-95.6c1.7-6.3,2.9-12.7,5.4-18.7
				c1.1-2.7,0.5-5.1-0.6-7.5c-2.9-6.8-4.4-13.4,0.5-20.3c2.1-3,2.9-7.1,4.1-10.5c2.7-7.5,11.5-10.5,12.5-18.8
				c0.1-0.9,0.6-2.1,1.9-1.7c1.5,0.5,1.1,1.8,0.8,2.9c-0.1,0.5-0.2,1-0.5,1.4c-6.2,11.1-3.1,21.3,3,31.3c0.4,0.7,0.8,1.4,1.2,2.1
				c0.9,1.6,2.2,3.3,0.6,4.9c-1.9,1.9-3.6,0.1-5.1-1C491.4,136.7,489.5,135,486.5,132.6z M667.2,437.8c4.2,0.3,8.2-0.8,12.4-1.6
				c4.6-1,4.8-3.1,3.2-6.9c-3.8-9.2-7.8-18.2-10.1-27.9c-1.3-5.3-1.9-10.6-0.5-15.9c1.6-5.8,4.9-8,10.8-7.3c5.8,0.7,10.8,3.4,15,7.5
				c5.4,5.2,9.9,11.2,13.5,17.8c1.1,1.9,2.5,3.8,3.9,0.4c4.5-10.6,5.9-35.8-7.9-46.7c-6.4-5-10.2-11.3-11.5-19.6
				c-1.1-7.2-5.4-12.7-12.2-16c-5.8-2.8-11.8-4.5-18.1-5.3c-1.6-0.2-3.5-1.1-4.6,0.4c-1.2,1.6,0.5,3,1.2,4.4
				c4.1,8,7.8,16.1,8.2,25.3c0.5,10.9-6.1,15.8-16.3,12.2c-6.9-2.4-12.4-7.1-17.4-12.2c-3.6-3.7-7.3-7.3-11.3-10.7
				c-2-1.7-3.6-1.6-5.5,0.2c-8,7.8-12.6,17-13.2,28.4c-0.3,7.6,3.2,13.8,5.6,20.5c5.5,15,13.9,28.3,24.9,39.7
				C645.4,432.6,654.8,438.6,667.2,437.8z M482.2,296.5c0.7,2.9,1.4,5.6,1.9,8.2c0.3,1.5,0.2,4.2-1.6,3.9c-5.9-1.1-5.3,3.8-6.2,6.6
				c-5.6,17.6-10.9,35.4-16.2,53.1c-2,6.5-1.3,7.6,5.7,8.1c11.8,0.9,23.3-0.3,34.5-4.6c3.5-1.3,4.1-2.9,2.7-6.1
				c-3.7-8.6-4.9-17.7-5-27.1c-0.2-16.1,4.5-31.1,9.2-46.2c6.6-21.2,12.2-42.5,11.6-64.9c-0.3-10.4-1.3-20.8-5.6-30.5
				c-0.5-1.3-0.7-3.3-2.4-3.3c-2,0-2,2.2-2.6,3.6c-0.2,0.4-0.3,0.9-0.4,1.4c-5.1,19.5-10.2,39-15.2,58.5
				c-3.2,12.6-8.6,24.9-4.4,38.4c0.3,1,0.4,2.5-0.8,3.1C485.2,299.9,484.8,296.8,482.2,296.5z M651.5,305.1c4.7,7.2,5.3,7.5,12.7,8
				c2.3,0.2,4.5,0.5,6.8,0.8c16.2,2.7,25.7,10.3,28.2,23.6c1.3,6.6,4.3,11.7,9.3,16c6.3,5.5,10.6,12.3,11.7,20.8
				c1.3,10.1,1.6,20.1-2.6,29.7c-1.8,4.2-2.4,8.4-0.3,12.7c1.2,2.3,0.2,6.8,3,6.9c2.6,0.1,3.8-4,5.2-6.5c7.1-13.2,8.1-27.8,6.1-41.8
				c-4-28.1-17-51.5-42.9-65.5C677.4,303.8,664.8,302.4,651.5,305.1z M673.5,393.2c0,0.6,0,1.5,0.2,2.5c2,12.3,7.4,23.5,12.2,34.8
				c1.2,2.9,3.1,1.7,4.7,0.7c6.1-3.7,12-7.6,16.6-13.3c5.7-7,5.9-6.9,1.3-14.7c-4.9-8.3-10.4-16.2-19.5-20.4
				C679.2,378.3,673.6,382,673.5,393.2z M668.1,343.1c-0.5-8.4-5.4-17-10.6-25.5c-0.7-1.1-1.9-1.7-3.4-1.4
				c-10,1.7-18.8,6.1-26.6,12.4c-2.2,1.8-2.1,3.5,0.2,5.1c4.7,3.5,8.5,8,12.7,12.1c3.6,3.5,7.7,6.5,12.2,8.8
				C662.3,359.5,668.1,355.8,668.1,343.1z M688.3,437.8c0.6,4.3,1.2,8.1,1.6,12c0.4,3.3,1.6,4,4.2,1.6c5.3-5,10.5-10.2,16.2-14.7
				c6.4-5.1,8-10.7,4.9-18.2c-1.3-3-2-4-4.2-1.1c-5.5,7.2-12.7,12.5-20.5,17C688.9,435.2,688,436.4,688.3,437.8z M641.3,308
				c1.3,2,5.2,3.3,3.2,5.3c-2.1,2.1-3.5-1.4-4.9-3c-0.1-0.1-0.1-0.3-0.2-0.4c-2.9-2.3-4.8,0.3-6.8,1.6c-2.9,1.8,0.3,2.3,1,3.3
				c0.7,0.9,2.7,1.6,1.3,3c-1.2,1.2-2.8-0.1-3.3-1c-2.2-4.4-4.8-2.2-7.3-0.6c-2.8,1.9-5.6,3.9-8.3,5.9c-0.9,0.6-2.2,1.5-1.3,2.7
				c1.6,2.1,4.1,3.2,6.5,4c2.5,0.8,3.3-1.2,4.5-3c-0.8-0.5-1.4-0.9-2.1-1.3c-1.2-0.8-2.7-1.2-3.2-2.7c-0.1-0.2,0.4-0.9,0.7-1
				c1.8-0.4,3.3,0.6,4.1,2c1.5,2.6,3,1.5,4.8,0.5c5.9-3.4,11.8-6.9,18.4-8.9c1.6-0.5,5,0,4.2-2.6c-0.8-2.8-3.1-5.5-6.7-5.5
				C644.6,306.3,642.8,306.6,641.3,308z M491.9,131.6c-1.2-5.4-3.6-10.3-4.2-15.8c-0.1-1.4,0.4-3.8-2-3.7c-2.1,0.2-2.4,2.3-2.5,4.2
				C483,123.1,486.8,127.7,491.9,131.6z M502.9,662.9c7,0.9,13.6-0.1,20.5-2.9C514.9,653.2,509.4,660.8,502.9,662.9z M484.3,139.3
				c-0.7-4.7-1.7-9.2-1.7-14c0-1.5-0.5-3.7-2.5-3.5c-1.9,0.2-2,2.5-1.9,4C478.7,131,480.6,135.6,484.3,139.3z M481.2,151
				c-2.1-5.9-3.5-11.1-3.6-16.5c0-0.8-0.6-2-1.8-1.9s-1.3,1.2-1.6,2.1C473,139.2,476.2,147.4,481.2,151z M498.2,654.9
				c4.8,1,8.6-0.5,12.4-1.4c1.4-0.3,1.5-1.6,1.1-2.7c-0.4-1.1-1.1-2.3-2.4-1.8C505.7,650.6,501.8,651.8,498.2,654.9z M495,646.1
				c5.9,1.6,10-0.6,14.1-2.2c0.7-0.3,1.2-1.1,1-2c-0.3-1-1.2-1.1-2-0.8C504.2,642.7,499.7,643.1,495,646.1z M481.5,282.5
				c-1.1-5.3-4.7-6.8-8.8-7.6c-0.9-0.2-2-0.4-2.4,0.8c-0.4,1.1,0.4,1.9,1.3,2.4C474.8,279.6,478.2,281,481.5,282.5z M482.9,291.6
				c-1.3-4.7-3.9-6.7-7-8.1c-1.1-0.5-2.5-1.5-3.2,0.4c-0.5,1.3-0.2,2.7,1.1,3.4C476.5,288.6,479.2,289.8,482.9,291.6z M469.9,296
				c1.5,2,4.1,1.9,6.2,2.5c1.2,0.3,2.1-0.3,1.6-1.5c-1-2.4-2.3-5-5.1-5.2C470.9,291.7,470.7,294.1,469.9,296z"/>
			<path d="M407.3,514.3c-6.9-4.1-24.4-15.2-29.1-21.7c-4.4-6-5.5-6.4-11.5-2c-1.9,1.4-3.6,3.3-5.1,5.2c-1.8,2.3-4.5,3.5-6.8,2.9
				s-1-3.6-1-5.5c-0.1-6.8,2.1-12.4,8.5-15.8c0.4-0.2,0.8-0.5,1.2-0.8c2.8-1.6,2.6-1.8,4.8-3.3c3-2,3.2-3.2,5.7-4.2
				c2-0.8,3.4-2.4,5-3.9c1.2,2.8,1.7,5.6,0.6,8.2c-4,9.3,0.1,16.3,6.4,22.5c2.5,2.4,2.4,3.4,7.4,6.4c0.5,0.3,17.4,10.6,17,11
				C407.9,515.8,407.2,512.1,407.3,514.3z M360.9,481.3c-4.1,3.9-4.5,8-4.8,12c-0.1,0.9-0.1,2.2,1,2.5c1.4,0.3,1.9-1,2.3-2
				C360.7,490.1,361,486.4,360.9,481.3z M369.2,475.7c-4.8,2-4.8,6.2-5.7,9.8c-0.2,1-0.7,2.4,0.8,2.9c1.3,0.4,2.3-0.7,2.6-1.7
				C368.2,483.3,369.1,479.8,369.2,475.7z M375.5,471.7c-2.8,3.5-4,6.5-4.6,9.8c-0.2,1.3-0.7,2.8,1.2,3c1.5,0.2,2.3-1,2.6-2.4
				C375.3,479.1,376,476,375.5,471.7z"/>
			<path d="M471.9,252.5c5.1-9.6,8.1-19.9,10.7-30.4c2.6-10.6,3.5-21.3,4.3-32.2c-8.9,12.5-13.7,26.5-15.6,41.9
				c0.9-1.7,1.8-3.3,2.6-5c0.9-1.9,1.7-3.9,2.4-5.9c0.7-1.9,1.2-3.9,1.8-5.9c1.9,0.3,1.4,1.5,1.2,2.3c-1.5,6.7-4.4,12.9-8.1,18.7
				c-0.6,0.9-1.1,2.3-2.5,1.8c-1.5-0.5-0.8-2-0.7-3c2.7-17.8,8.7-34.3,18.5-49.4c0.6-0.9,1-2.3,2.5-1.6c1.1,0.5,0.9,1.6,0.8,2.6
				c-2.3,21.2-4.5,42.4-14,61.9C474.7,250.9,474.6,250.8,471.9,252.5z"/>
			<path d="M419.9,406.3c5-19.4,10.8-37.1,22.3-52.1c9.3-12.2,17.3-25.1,22.2-39.7c0.4-1.2,0.4-3,2.6-3.5c0.3,2.7-1.2,4.7-2,6.9
				c-4,11.6-9.4,22.5-17.2,32c-12.3,14.9-19.2,32.2-24.4,50.4C422.8,402,422.7,404.1,419.9,406.3z"/>
			<path d="M436.5,335.6c-12.7,32.1-23.2,64.8-30.9,98.5C411.4,399.8,421.9,367.1,436.5,335.6z"/>
			<path d="M360,600.7c0.8-14.5,5-27.7,15.2-38.4c1.4-1.4,3-1.5,2.9,0.8c-0.4,14.6,0.8,29.3-5.2,43.2c-0.2,0.4-0.7,0.6-1.8,0.7
				c5.1-13,4.9-26.6,5.1-41.3c-5.8,4.9-8.4,10.6-10.8,16.6C362.9,588.3,363,594.9,360,600.7z"/>
			<path d="M458.4,263.3c-0.7-5.3,1.4-10.2,1.8-15.3c2-22.5,6.7-44.4,18.1-64.2c2.4-4.2,5.4-8.1,8.2-12.1c0.2-0.3,0.8-0.3,2-0.1
				C466.5,198.3,464.2,231.3,458.4,263.3z"/>
			<path d="M475.1,264.9c12-25.1,17.7-50.6,20.6-76.9C500.1,197.1,484.2,258.1,475.1,264.9z"/>
			<path d="M412.2,434.1c0.9,5.8-0.5,10.2-0.8,14.7c-0.8,13.4,0.7,27-2.7,40.3c-1.1,4.1-2.2,8.1-3.2,12.2c-0.3,1.4-1.1,2.5-2.4,2.8
				c-0.5,0.1-1.5-0.6-1.9-1.2c-0.9-1.5,1.2-1.3,1.6-2.3c2.9-6.4,4.9-13.1,5.3-20.1c0.7-12.2,1-24.3,1.4-36.5
				C409.6,440.9,410.2,438,412.2,434.1z"/>
			<path d="M417.1,442.7c2.1-20.9,17.6-63.5,26.9-75c0.7,0.5,0.5,1.2,0.2,1.7c-11.2,22.7-21.7,45.7-25.3,71.2
				C418.9,441.1,418.2,441.5,417.1,442.7z"/>
			<path d="M520.4,117.7c-8.8,23.1-12.9,47.4-17.6,71.5C500.6,179.9,514.2,124.7,520.4,117.7z"/>
			<path d="M495.9,168.6c5.4-20.3,14.4-39.7,13.7-61.5C513.2,116,505,153,495.9,168.6z"/>
			<path d="M428,434.8c0.9-21,10.7-38.5,21.4-55.7C441,397.2,430.2,414.3,428,434.8z"/>
			<path d="M354.5,599.8c2.8-15.9,3.7-32.4,15.5-45.3C360.5,568.1,359.7,584.7,354.5,599.8z"/>
			<path d="M366,596c0.4-6.7,1.7-13.3,4.5-19.4c0.3-0.7,0.9-1.4,1.9-1.3c0.9,0.1,1,0.9,0.9,1.5c-0.9,8.7-0.3,17.5-4.1,25.7
				c-0.1,0.2-0.5,0.2-2.1,0.8c1.8-6.9,3.8-13,3.6-20.5C368.2,587.6,368.9,592.4,366,596z"/>
			<path d="M393.1,571.8c-3.3,14.6-0.3,30.3-7.8,44.1C390.4,601.6,387.9,586.1,393.1,571.8z"/>
			<path d="M387.9,569.4c-3.7,14.3-4.3,29.4-10.6,43.1C380.9,598.2,382.6,583.3,387.9,569.4z"/>
			<path d="M513.1,161.5c-0.5-5.3,11.4-40.6,15-44.3C523.1,131.9,518.1,146.7,513.1,161.5z"/>
			<path d="M425.8,483c-2,6.7-3.9,13-5.8,19.3c-0.3,1.1-3.7,9.4-4.7,8.9c-1.3-0.5-2.3,2.9-2,2c1.9-6,7.6-24.3,9.5-30.3
				c0.3-0.9,0.5-2,1.8-1.8C425.7,481.3,426,482.3,425.8,483z"/>
			<path d="M428.9,468.7c-1.5-0.5-1.9-1.9-1.4-3.1c2.3-6.1,4.2-12.2,5.6-18.5c0.2-1.1,1.2-2.1,2.6-1.6c1.1,0.3,0.7,1.3,0.4,2
				c-2,6.7-4,13.3-6,20C429.9,468,429.9,468.8,428.9,468.7z"/>
			<path d="M419.7,518c-3.1-0.8-6.2-1.6-9.2-2.5c-1.2-0.4-7.5-2.9-7.2-4.2c0.3-1.4,7,0.5,8,0.8c4.5,1.2,2-2.8,4.9-5
				c2,3,0.8,7.5,4.4,9.9C420.3,517.3,420,517.7,419.7,518z"/>
			<path d="M440.7,343.9c3.3-8.6,6.5-17.2,9.8-25.8c0.5,0.2,1,0.4,1.5,0.6c-3.2,8.6-6.4,17.2-9.7,25.9
				C441.8,344.3,441.2,344.1,440.7,343.9z"/>
			<path d="M450.3,363.7c2.4-8.9,7.6-16.3,11.7-24.3C459.9,348.3,454.5,355.7,450.3,363.7z"/>
			<path d="M412.6,504.6c-1.3-0.5-3-1.3-2.4-2.5c2.7-6.5,3.2-13.6,5-20.3C416.5,489.6,413.3,496.9,412.6,504.6z"/>
			<path d="M502.5,101.3c1.1,7.6,0.6,15-2.8,22.1C500.3,115.9,501.8,108.7,502.5,101.3z"/>
			<path d="M436.5,420.9c0.1-6.8,1.5-13.2,6.2-18.4C440.3,408.5,438.5,414.7,436.5,420.9z"/>
			<path d="M403.1,416.8c-1.4,5.8-2.9,11.6-4.6,18.4C397.1,431.3,399.6,420.9,403.1,416.8z"/>
			<path d="M392.1,460.7c0.5-4.4,0.9-8.9,1.4-13.3c0.1-0.8,0.7-1.6,1.6-1.6c1.1,0,1.2,0.9,1.1,1.7C395.4,452,395,456.6,392.1,460.7z
				"/>
			<path d="M398.8,499.1c1.3-4.8,2.6-9.6,3.8-14.5c0.6,0.1,1.1,0.3,1.7,0.4c-0.9,4.9-2.1,9.7-3.8,14.4
				C399.9,499.4,399.3,499.3,398.8,499.1z"/>
			<path d="M399.1,472.7c0.2-2.2,2.2-2.9,3.2-4.2s1.4-3.9,3.5-3.4c1.6,0.4,0.6,2.5,0.7,3.9c0.1,2.1-0.1,3.7-3.1,2.4
				C402.6,471.1,401.1,473.5,399.1,472.7z"/>
			<path d="M449.8,265.8c1.4-5,2.8-9.9,4.2-14.9c0.4,0.1,0.9,0.2,1.3,0.4c-0.4,5.2-1.6,10.2-4.2,14.9
				C450.6,266,450.2,265.9,449.8,265.8z"/>
			<path d="M393.7,497.6c-0.2-4.4,3.1-8.1,3-12.5c0-0.1,1.2-0.5,1.7-0.4c1.1,0.3,0.7,1.3,0.5,2.1c-1.3,3.7-2.7,7.3-4,10.9
				C394.5,497.7,394.1,497.6,393.7,497.6z"/>
			<path d="M392.2,483.8c-1.2,3.4-2.4,6.7-3.7,10.1c-0.5-0.2-0.9-0.3-1.4-0.5c0.3-3.7,1-7.2,3.8-10
				C391.4,483.5,391.8,483.7,392.2,483.8z"/>
			<path d="M402.6,445.9c0.4,3.8-1.2,6.8-3.8,9.6C399.4,452.1,400.2,448.7,402.6,445.9z"/>
			<path d="M497,104.3c0.4,3.7,0.1,7.2-2.3,11.6C494.1,111,495.5,107.7,497,104.3z"/>
			<path d="M637.6,371.7c0-0.6-0.1-1.3,0-1.9c0.2-1.4-0.3-3.6,1.5-3.6c2.2,0,0.9,2.2,1,3.5c0.1,1.1-0.1,2.3,0.2,3.4
				c0.6,2.5,0,6,3.8,6.3c2.9,0.2,6.5-4,6.4-7.1c0-2.6,0.3-5,2.8-6.2c2.8-1.3,5,0.4,6.9,2.3c2.6,2.5,3.8,5.6,3.9,9.2
				c0.1,2.3-0.6,4.2-2.7,5.3c-2.2,1.1-4,0.2-5.8-1.2c-1.6-1.3-2.6-3.9-5.6-2.6c-4.7,2.1-5.2,5.1-1.6,8.8c1.7,1.7,6.1,3.5,4.3,5.2
				c-2.1,2-4.9-1.7-6.8-3.6C640.9,384.5,637.6,378.8,637.6,371.7z"/>
			<path d="M725.3,360.9c0.1,0.8-0.3,1.5-0.9,1.4c-3-0.6-5.8-2-8.2-3.8c-0.5-0.4-0.1-1.2,0.5-1.6
				C718.3,355.8,725.1,358.9,725.3,360.9z"/>
			<path d="M710.8,329.6c-0.3,5-3,7.4-4.7,10.2c-0.2,0.4-1.2,0.5-1.7,0.3c-1-0.4-0.9-1.3-0.3-2C706,335.7,707.2,332.6,710.8,329.6z"
				/>
			<path d="M713.2,347.5c2.1,0.8,4.8,0,6.6,2.1c0.1,0.2,0.1,0.8,0,0.9c-2.3,1.4-4.7,0.1-7-0.1c-1-0.1-2.6-0.1-2.5-1.7
				C710.4,347.5,711.9,347.6,713.2,347.5z"/>
			<path d="M716.4,340.4c-0.6,0.7-1,1.2-1.4,1.5c-0.9,0.6-1.9,1.2-3,1.6c-1.7,0.6-3.5,4-5,1.5c-1-1.7,2.5-2.7,4.1-3.8
				C712.5,340.3,714.1,338.7,716.4,340.4z"/>
			<path d="M703.9,327.9c-0.9,1.7,0.2,4.7-2.4,5.6c-1.1,0.4-1.2-1.3-0.8-2.2c0.7-2-0.5-4.9,2.2-5.9
				C704.1,325.1,703.9,326.8,703.9,327.9z"/>
			<path d="M682.6,389.8c0.1-1.2-0.3-2.9,1.3-3.3c2-0.5,1.8,1.5,2,2.6c0.9,5.3,3.3,9.4,8.4,11.6c0.9,0.4,2,0.8,1.7,2
				c-0.4,1.6-1.8,1-2.8,0.9C688.1,402.7,682.7,395.5,682.6,389.8z"/>
			<path d="M648.6,331.7c0-2.2-0.1-4.2,1.6-4.4c2.3-0.3,1.6,2,1.7,3.2c0.5,5,3.8,8,7.4,10.8c1,0.7,2.7,1.5,1.8,2.9
				c-1,1.5-2.6,0.7-3.9-0.1C652.2,341.2,649.3,336.8,648.6,331.7z"/>
			<path d="M713.3,431.4c-2.6-3.4-3.3-6.1-2.3-9c0.1-0.2,1.1-0.4,1.2-0.3C714,424.6,714,427.3,713.3,431.4z"/>
			<path d="M707.6,432.8c0.2,1.3,0.1,2.8-1,2.5c-2.2-0.7-1.9-3.1-2.4-4.9c-0.3-1-0.2-3,1.1-2.6C707.8,428.4,706.8,431.3,707.6,432.8
				z"/>
			<path d="M696,436.4c-0.2-1.3,0-2.6,1.2-2.4c2.4,0.6,1.7,3.1,2.4,4.8c0.4,0.9,0.2,2.5-0.8,2.3C696,440.8,697,437.9,696,436.4z"/>
		</g>
		<g>
			<path d="M348.8,393.8c1.1,6.8,2,13.6,3.2,20.3c1.1,6.7,2.3,13.3,3.9,19.9c1.6,6.5,3.5,12.9,6.1,19c2.7,6,6,11.9,11.3,16.3
				c-3.2-1.3-6.1-3.5-8.6-6c-2.4-2.6-4.5-5.5-6.3-8.5c-3.5-6.2-5.8-12.9-7.4-19.6c-1.6-6.8-2.6-13.7-3-20.6
				C347.7,407.6,347.8,400.7,348.8,393.8z"/>
		</g>
		<g>
			<path d="M527.8,290.4c0,4.2,0,8.3,0,12.5c0,0.5-0.7,0.9-1,1.4c-0.4-0.4-1.2-0.8-1.2-1.2c-0.1-4.3-0.7-8.7,0.7-12.8
				C526.7,290.3,527.3,290.3,527.8,290.4z"/>
			<path d="M481.5,568.6c-4.1,2.8-8.7,3-13.3,3.1c-0.9,0-1.7-0.5-1.6-1.3c0-0.9,0.9-1.2,1.8-1.1
				C472.7,569.7,477.1,568.8,481.5,568.6z"/>
			<path d="M533.5,259c-0.7,2,0.8,6-2,5.8c-2.8-0.3-0.6-4-0.8-6.2c-0.1-0.6,0.1-1.3,0.2-1.9c0.2-1.1,0-2.7,1.3-2.7
				c1.9,0,1.2,1.8,1.3,3C533.6,257.6,533.5,258.2,533.5,259z"/>
			<path d="M448.6,272.9"/>
			<path d="M510.8,452.8c-3.5,2.1-7.6,2.1-11.5,3c-0.4,0.1-1.3-0.4-1.5-0.8c-0.4-1,0.5-1.4,1.3-1.5c3.8-0.6,7.6-1.2,11.4-1.8
				C510.6,452.1,510.7,452.4,510.8,452.8z"/>
			<path d="M363,395.8c1.2,3.9,1.3,7.5-0.8,11C361,403,361,399.3,363,395.8z"/>
			<path d="M632.8,441.4c-0.8,4-3.5,6.6-7.6,9.6C626.1,445.5,629.7,443.6,632.8,441.4z"/>
			<path d="M544.7,278.6c1.5,3.4,1.8,6.8,0.3,10.3c-0.1,0.2-1.2,0.1-1.2,0C542.8,285.4,543.2,282,544.7,278.6z"/>
			<path d="M549.1,229c2.4,3.5,1.6,6.8,1.5,10c0,0.7-0.6,1.3-1.2,1.1c-0.5-0.2-1.1-0.9-1-1.4C548.7,235.6,547.7,232.5,549.1,229z"/>
			<path d="M374.6,412.3c0.3,2.9,0.6,5.9,0.7,8.8c0,0.5-0.5,1.3-0.9,1.5c-1,0.4-1.4-0.4-1.6-1.2c-0.7-3.1-1.1-6.2,0.4-9.1
				C373.7,412.3,374.1,412.3,374.6,412.3z"/>
			<path d="M477.3,533.6c4.4-2.8,8-2.5,11.6-1.9C485.7,533.9,482.3,534.7,477.3,533.6z"/>
			<path d="M424,306.1c-2.6,4.2-5.9,5.8-8.1,8.4c-0.4,0.5-1.1,0.8-1.6,0.1c-0.5-0.6-0.4-1.2,0.1-1.7
				C416.8,310.4,419.3,307.9,424,306.1z"/>
			<path d="M451.2,532.4c-3.7,0.9-7.3,1.4-10.9-0.3C444,530.7,447.6,531.3,451.2,532.4z"/>
			<path d="M437.7,306.6c-1.8,2.8-4.7,4.7-6.3,7.6c-0.5,0.9-1.5,1.2-2.4,0.3c-0.7-0.7-0.3-1.6,0.3-2.1
				C432,310.3,433.8,307.1,437.7,306.6z"/>
			<path d="M518.6,295.3c1.1,4,0.5,6.9,0.4,9.7c0,0.9-0.2,2.1-1.5,1.9c-1-0.1-1-1.1-1-1.9C516.7,302.1,516.5,299.1,518.6,295.3z"/>
			<path d="M559.1,453.2c-2.9,2.8-6.3,4.4-10.2,4.9C551.6,454.9,555.3,453.9,559.1,453.2z"/>
			<path d="M506.5,411.2c-3.9,2.9-7.2,3.1-10.3,4.1c-0.7,0.2-1.7,0.4-1.9-0.7c-0.2-1,0.6-1.4,1.3-1.6
				C498.8,412.2,501.9,411.1,506.5,411.2z"/>
			<path d="M414.4,337.7c-1.5,2.5-2.9,5.1-4.4,7.6c-0.4,0.7-1.1,1.2-2,0.7c-0.8-0.5-0.8-1.5-0.3-2.1c1.8-2.3,3.2-5,5.6-6.9
				C413.6,337.2,414,337.5,414.4,337.7z"/>
			<path d="M488,556.1c3.6-1.9,7.3-2.9,11.4-2.7C495.9,555.5,492.2,556.8,488,556.1z"/>
			<path d="M617.5,432c0.2,1.1,0.4,1.5,0.3,1.7c-1.6,2.4-3.8,4.1-6.3,5.4c-0.1,0.1-1-0.6-0.9-0.8C611.6,435.1,614.8,434.1,617.5,432
				z"/>
			<path d="M594.8,373c-0.2,1.7-1.8,2-2.8,2.1c-2,0.2-4.8,3.4-5.6,1.2c-0.9-2.6,3.2-2.5,5.2-3.5C592.5,372.3,593.8,371.3,594.8,373z
				"/>
			<path d="M383.2,357.7c0.1-3.7,2.7-6.2,4-9.3c0.5,0.2,1.1,0.5,1.6,0.7c-1.4,3-2.8,6.1-4.2,9.1C384.1,358,383.6,357.9,383.2,357.7z
				"/>
			<path d="M600.8,577.9c2.2-3.3,4.4-6.5,6.6-9.8c0.4,0.3,0.9,0.5,1.3,0.8c-2,3.4-3.9,6.9-6.6,9.9
				C601.7,578.5,601.3,578.2,600.8,577.9z"/>
			<path d="M644.3,458.7c0.3-3.8,3-5.9,5.5-8.1C649.3,454.2,646.8,456.5,644.3,458.7z"/>
			<path d="M390.1,379.2c-0.4,3.2-0.7,6.5-3.7,10.1C386.4,384.7,387.3,381.6,390.1,379.2z"/>
			<path d="M536.6,633.2c-1.6,2.9-4,4.7-8.1,5.8C530.8,635.5,533.2,633.8,536.6,633.2z"/>
			<path d="M586.9,549.5c-1,3.4-2.3,6.6-5.4,8.4C581.9,554.2,584.3,551.7,586.9,549.5z"/>
			<path d="M551.7,387.9c0.1,1,0.3,1.4,0.1,1.6c-1.7,2.1-4,3.4-6.6,3.9c-0.2,0-0.9-0.8-0.8-0.9C546.2,389.8,549.1,389.4,551.7,387.9
				z"/>
			<path d="M602.6,414.4c0.6-0.8,0.8-1.5,1.3-1.8c1.9-1,3.3-3,5.7-2.8c0.2,0,0.5,1,0.4,1.1C607.9,412.7,606.2,414.9,602.6,414.4z"/>
			<path d="M529.5,430.1c2-4,5.2-3.9,8-4.6C535.6,427.6,533.5,429.4,529.5,430.1z"/>
			<path d="M599.2,427.7c0.6,1.9-0.8,2.3-1.5,2.9c-1.5,1.1-2.7,2.7-4.7,2.9c-0.2,0-0.8-0.8-0.7-1c0.9-2,2.7-2.9,4.5-3.9
				C597.6,428.2,598.4,428,599.2,427.7z"/>
			<path d="M598.9,402.5c-2,3.5-4.6,3.8-7.1,4.4C592.9,404.3,595,403.2,598.9,402.5z"/>
			<path d="M588.2,389.4c0.2,0.9,0.3,1.1,0.2,1.2c-1.7,1.7-3.7,2.8-6.2,2.8c-0.2,0-0.6-0.9-0.5-1.1C583.4,390,586,390.4,588.2,389.4
				z"/>
			<path d="M605.1,451.7c0,1.1-0.9,1.6-1.6,2.1c-1.4,0.9-2.4,2.5-4.2,2.6c-0.2,0-0.8-0.7-0.8-1c0.5-2.1,2.6-2.5,4-3.6
				C603.3,451.3,604.2,451,605.1,451.7z"/>
			<path d="M575.6,385.2c-0.6,0.7-0.7,1.1-0.9,1.2c-1.7,0.7-3,2.4-5.1,1.7c-0.2-0.1-0.4-1-0.3-1.2
				C570.8,385.1,572.7,384.3,575.6,385.2z"/>
			<path d="M560.7,608.5c-1.8,4.6-2.8,5.5-6.5,6.3C555.6,611.7,558,610,560.7,608.5z"/>
		</g>
		<g>
			<path d="M393.8,503.8c1,1.3,2.3,2.4,3.6,3.4c0.7,0.5,1.3,1,2,1.4s1.4,0.9,2.1,1.3l2.2,1.2c0.7,0.4,1.5,0.7,2.2,1l1.1,0.5
				c0.4,0.2,0.8,0.3,1.2,0.4l2.3,0.8c6.2,2.1,12.8,3,19.3,3.4l2.5,0.1c0.8,0.1,1.6,0.1,2.5,0.1h4.9c1.6,0,3.3-0.1,4.9-0.2l4.9-0.3
				l9.8-1.1l9.9-1.4c13.2-1.7,26.4-3.7,39.8-4.4c6.7-0.3,13.5-0.3,20.2,0.8s13.1,4.1,18.1,8.4c-5.6-3.6-11.9-5.9-18.4-6.5
				c-6.5-0.7-13.1-0.2-19.7,0.3c-3.3,0.3-6.6,0.7-9.9,1.1c-3.3,0.4-6.6,0.9-9.9,1.3l-19.8,2.8l-9.9,1.3c-3.3,0.4-6.7,0.7-10,1
				l-5.1,0.2c-1.7,0-3.4,0.2-5.1,0.1l-5.1-0.1c-0.8,0-1.7-0.1-2.5-0.2l-2.5-0.3c-6.7-0.7-13.4-2.1-19.7-4.7l-2.3-1
				c-0.4-0.2-0.8-0.3-1.2-0.5l-1.1-0.6c-0.7-0.4-1.5-0.8-2.2-1.2l-2.1-1.4C398.2,508.9,395.6,506.7,393.8,503.8z"/>
		</g>
		<line class="st8" x1="438.8" y1="431.8" x2="414.8" y2="516.3"/>
		<line class="st8" x1="392.8" y1="422.8" x2="377.8" y2="473.8"/>
		<line class="st8" x1="356.8" y1="504.8" x2="356.8" y2="498.3"/>
	</g>
	<path class="st9" d="M173.8,115.1c3.8-1.2,7.2-1.6,10.1-1.2c2.9,0.5,5.5,1.1,7.9,2c2.4,0.9,4.2,2.4,5.6,4.6
		c1.3,2.2,2.2,4.6,2.6,7.3c0.4,2.7,0.1,5.2-1.1,7.6c-1.1,2.4-2.5,4.4-4,6.2c-1.6,1.8-3,3.7-4.3,5.8c-1.3,2.1-3.2,3.6-5.6,4.3
		c-2.4,0.8-4.2,0.8-5.3,0c-1.1-0.8-0.5-4,1.9-9.8c2.3-5.7,2.4-9,0.3-9.9c-2.1-0.9-4.6-0.9-7.4-0.2c-2.8,0.8-6.9,3.6-12.2,8.5
		c-5.3,4.9-9.7,10.6-13.3,17.1c-3.5,6.5-5.6,11.7-6.3,15.8c-0.7,4.1-0.8,8.1-0.5,12.1c0.4,4,1,8.9,2,14.9c1,5.9,2,11.3,3.1,16
		c1.1,4.7,1.2,10.9,0.5,18.5c-0.8,7.6-2.7,14-5.7,18.9c-3,5-5.8,9.2-8.4,12.6c-2.6,3.5-5.6,6.3-8.9,8.4c-3.4,2.2-7.1,3.4-11.3,3.6
		c-4.2,0.3-7.4-0.1-9.8-0.9c-2.3-0.9-4.7-3.1-7.2-6.7s-3.8-6.8-4-9.8c-0.2-2.9,0.7-6.4,2.8-10.2c2.1-3.9,5.3-8.1,9.8-12.8
		c4.4-4.7,8.2-7.5,11.4-8.5c3.2-1,5.9-2.8,8.4-5.3c2.4-2.5,2.3-9.6-0.3-21.3c-2.6-11.7-3.3-21.7-1.9-30.1c1.3-8.4,3.2-14.9,5.4-19.6
		c2.3-4.7,5.9-9.8,10.9-15.2s9.3-9.3,13.1-11.7c3.8-2.4,7.4-4.5,10.9-6.5C166.3,117.8,170,116.2,173.8,115.1z M125.7,230.1
		c-1.6-2.6-5.6,0.2-12,8.2c-6.5,8.1-9.5,13.6-9,16.6c0.5,3,1.4,4.7,2.9,5.1c1.5,0.4,3,0.4,4.6,0.1c1.6-0.4,2.9-1.2,4.2-2.5
		c1.2-1.3,2.9-2.9,5.1-4.9c2.2-2,3.9-4.4,5.1-7.4c1.2-3,1.8-5.6,1.6-7.9C128.1,235.1,127.3,232.7,125.7,230.1z"/>
	<path class="st9" d="M210.8,147.2c4.1-6.5,7.6-9.1,10.3-7.9c2.7,1.2,4.2,2.8,4.4,4.8c0.2,2-4.3,12-13.4,30.2
		c-9.1,18.2-15.8,35.1-19.8,50.8c-4.1,15.7-5.5,24.5-4.3,26.4c1.2,2,3.5,2.5,6.7,1.7c3.2-0.8,11.4-5.3,24.5-13.4
		c13.1-8.1,21.2-13.4,24.2-16c3-2.5,1.1-0.6-5.7,5.7c-6.8,6.4-12,11.1-15.4,14.3c-3.5,3.2-6.9,6.6-10.3,10.2
		c-3.4,3.7-7.6,6.8-12.5,9.5c-4.9,2.7-9.2,4.2-12.9,4.4c-3.7,0.3-6.4-0.6-8.1-2.6c-1.7-2-3.3-4.3-4.9-7.1c-1.6-2.8-1.7-7.9-0.4-15.4
		c1.3-7.5,4.9-19.7,10.8-36.7c5.9-16.9,10.8-29.4,14.7-37.4C202.7,160.8,206.7,153.6,210.8,147.2z"/>
	<path class="st9" d="M242.6,199.7c2-1.9,4.4-3,7.2-3.6c2.8-0.5,5.2-0.4,7.1,0.5c1.9,0.8,3.4,2.3,4.7,4.4c1.3,2.1,4.5,3.1,9.7,3
		c5.2-0.1,11.6-0.1,19.3,0.1c7.7,0.2,6.1,0.4-4.9,0.7c-11,0.3-17.2,0.8-18.7,1.3c-1.5,0.6-2.1,2.4-1.9,5.5c0.3,3.1,0.5,6.4,0.6,9.8
		c0.2,3.5,0.2,7.3,0.1,11.5c-0.1,4.2-0.4,7.4-0.9,9.5c-0.5,2.1-1.3,4.2-2.3,6.5c-1,2.3-2.6,4.7-4.6,7.2c-2,2.5-4.5,4.9-7.4,7.1
		c-2.9,2.2-5.7,3.8-8.1,4.9s-5.2,1.1-8.1,0.2c-2.9-1-5.2-2.5-7.1-4.7c-1.8-2.1-3.3-4.3-4.3-6.6c-1.1-2.3-1.6-6.3-1.4-11.9
		c0.2-5.7,10-32.4,10.5-33c0.5-0.5,0,0,3.1-3.9C238.3,204.3,240.8,201.5,242.6,199.7z M250.4,224.1c-2.3-2.8-5.1-2-8.5,2.3
		s-5.5,8.9-6.1,13.8c-0.7,4.9-0.4,8.3,0.8,10.2c1.2,2,2.4,3.1,3.7,3.4c1.3,0.3,3.1-0.5,5.5-2.6c2.4-2,4.3-6.4,5.8-13.1
		C253,231.5,252.6,226.8,250.4,224.1z"/>
	<path class="st9" d="M310.5,158.5c1.2-1.4,3.2-2.1,5.9-1.9c2.7,0.2,4.7,1,5.9,2.5c1.2,1.4,2.3,3.2,3.1,5.3c0.8,2.1,0.7,4.2-0.5,6.5
		c-1.1,2.3-2.2,5.2-3.3,8.9c-1,3.7-2.4,8.8-4,15.4c-1.7,6.6-1.6,10.3,0.3,11.2c1.9,0.8,5.1,1.7,9.6,2.5c4.5,0.8,11.8,1.2,21.8,0.9
		c6.1-0.1,3.2,1.4-1.6,2.2c-11,1.8-19.2,3.2-24.6,4.5c-5.3,1.3-8.8,2.3-10.5,2.9c-1.7,0.6-4.6,6.3-8.7,17.2
		c-4.1,10.9-6.8,18.2-8.1,21.8c-1.3,3.6-2.7,6-4.1,7.3c-1.4,1.2-3.3,2.2-5.6,2.8c-2.3,0.6-4.3,0.5-6.2-0.3
		c-1.9-0.8-1.8-4.2,0.1-10.1c1.9-5.9,4.5-12.9,7.8-20.9c3.3-8.1,5.1-13.1,5.4-15c0.3-2-1-2.7-4-2.2c-3,0.5-5.7,0.8-8,0.9
		c-2.3,0.1-3.5-1.4-3.4-4.3c0.1-2.9,1.9-5.3,5.7-7.2c3.7-1.9,7-2.8,9.9-2.9c2.9-0.1,5.5-4.1,7.8-12.1c2.3-8,3.6-13.3,4-16
		c0.4-2.6,1.1-6.2,2-10.8C308.2,162.9,309.3,159.9,310.5,158.5z"/>
	<path class="st9" d="M381.4,103.8c5.4-1.2,9.8-0.6,13.2,2c3.4,2.6,2.7,7.1-2,13.6c-4.8,6.5-11.4,20.2-20,41.2
		c-8.6,20.9-14.2,35.8-16.7,44.6c-2.6,8.8-2.8,12-0.6,9.6c2.2-2.4,4.3-4.5,6.4-6.4c2.1-1.9,4.5-3.9,7.1-5.9c2.6-2,4.9-3.5,7.1-4.4
		c2.1-0.9,4.5-1.6,7.1-2.1c2.6-0.5,4.9-0.1,7.1,1.1c2.1,1.2,3.8,2.7,5,4.6c1.2,1.9,1.9,5.2,2.2,10.1c0.3,4.9,0,9.9-0.9,15.3
		c-0.8,5.3-0.9,9.3-0.2,12c0.7,2.7,2,5.1,4,7.1c1.9,2.1,5.2,2.6,9.8,1.5c4.7-1.1,8.3-3,10.9-5.7c2.6-2.7,3.2-2.6,1.8,0.5
		s-3.5,5.9-6.2,8.3c-2.7,2.4-6.1,4.5-10,6.4c-3.9,1.8-7.1,2.7-9.6,2.8c-2.5,0.1-5-1-7.6-3.1c-2.6-2.1-4.3-5.2-5.3-9.1
		c-0.9-4-1.1-10.2-0.6-18.5c0.5-8.4-0.1-13.4-1.8-15c-1.7-1.6-6.1,0.2-13.2,5.5c-7.1,5.3-12.4,11.2-16,17.8
		c-3.6,6.6-6.3,12.2-8.1,16.8c-1.8,4.6-3.9,6.5-6.5,5.8c-2.6-0.7-4.6-1.9-6-3.6c-1.4-1.7-2.2-4-2.2-7.1c0-3,3.1-14.9,9.3-35.4
		c6.2-20.6,13.3-40.7,21.2-60.3c8-19.6,12.6-31.6,14-35.8C375.1,113.6,377.6,108.9,381.4,103.8z"/>
	<g>
		<path class="st9" d="M706.7,121c10.7,0.9,17.8,1.7,21.2,2.2c3.4,0.5,9.3,1.1,17.7,1.9c8.5,0.7,14.1,2.2,16.9,4.4
			c2.8,2.2,2.9,4.3,0.3,6.2c-2.6,1.9-6,2.9-10.3,2.9c-4.3,0-8.3-0.2-12-0.6c-3.7-0.4-6.6-0.7-8.6-0.8c-2-0.1-7.6-0.5-16.8-1.1
			c-9.2-0.6-15.5-0.9-18.8-0.8c-3.4,0.1-6,1.2-7.8,3.3c-1.9,2.1-4.2,4.7-7.1,7.9c-2.9,3.2-6.8,8.2-11.7,14.9
			c-4.9,6.7-9.9,14.3-15,22.6c-5.1,8.4-9.8,16.4-14.3,23.9s-6.7,13.5-6.7,17.7c0,4.2,1,7.1,3,8.6c2,1.5,4.6,1.6,7.8,0.2
			c3.2-1.3,5.7-2.2,7.5-2.7c1.8-0.5,4.4-1.6,7.8-3.5c3.4-1.9,6.9-4.2,10.8-7.1c3.8-2.9,3.6-2.1-0.5,2.4c-4.2,4.5-7.4,8.3-9.5,11.4
			c-2.2,3.1-6.3,7.1-12.2,11.9c-6,4.8-11,7.3-15,7.5c-4,0.2-7.6-0.7-10.8-2.9c-3.2-2.1-5.1-5.4-5.7-10c-0.7-4.5-1-8.6-1-12.2
			c0-3.6,0.8-7.6,2.5-11.9c1.7-4.3,3.8-8.9,6.5-13.6c2.7-4.7,7.8-12.7,15.2-24.1c7.4-11.4,14.4-22.1,20.8-32.2
			c6.4-10.1,6.9-15,1.5-14.7c-5.4,0.3-13.3,0.5-23.6,0.6c-10.3,0.2-18,0.4-23.2,0.8c-5.2,0.4-9.4,1.3-12.8,2.9
			c-3.4,1.6-6.8,1.4-10.4-0.3c-3.6-1.8-5.6-3.2-6.2-4.3c-0.6-1.1-0.6-1.8-0.2-2.2c0.5-0.4,2.2-1.8,5.3-4.3c3.1-2.4,6.3-4.5,9.7-6.1
			c3.4-1.7,14.9-2.3,34.5-2c19.6,0.3,31.5,0.6,35.6,0.8c4.1,0.2,8.4,0.4,12.9,0.7C688.3,119.5,696,120.1,706.7,121z"/>
		<path class="st9" d="M735.6,167.2c2.4-0.6,5-0.7,7.8-0.3c2.8,0.4,5.1,1.3,6.8,2.6c1.7,1.3,3.3,4,4.9,7.9c1.6,3.9,0.9,6.6-2.1,7.9
			c-2.9,1.3-5.6,0.9-8-1.4c-2.4-2.3-4.9-2.7-7.4-1.4c-2.6,1.3-5.1,2.7-7.7,4.1c-2.5,1.4-5.7,3.6-9.4,6.6c-3.7,3-7.5,6.8-11.5,11.5
			c-3.9,4.7-6.1,7.6-6.5,8.9c-0.4,1.3,0.6,1.1,3-0.5c2.4-1.7,6.1-4.2,11.2-7.5c5-3.4,11.3-6.8,18.9-10.3c7.6-3.5,12.4-4.9,14.4-4.1
			s3.7,2.2,5.2,4.3c1.4,2.1,2.3,3.9,2.5,5.3c0.2,1.5,0,2.7-0.7,3.6c-0.7,0.9-1.4,2.9-2.3,6c-0.9,3.1-0.8,6.1,0.2,9
			c1,2.9,2.3,4.9,4,6c1.6,1.1,3.8,1.4,6.6,0.9s6.2-2.6,10.3-6.4c4.1-3.8,3.9-2.9-0.5,2.6c-4.4,5.5-8,9-10.5,10.5
			c-2.6,1.5-4.6,2.2-6,2.2c-1.4-0.1-3.3-0.5-5.7-1.4c-2.3-0.9-4.5-2.2-6.6-4.1c-2.1-1.9-3.7-4.1-4.9-6.8c-1.2-2.7-2-4.7-2.4-6
			c-0.4-1.3-1.4-2.7-2.9-4.3c-1.5-1.6-3.3-1.9-5.5-1c-2.2,0.9-6,3.3-11.4,7.2c-5.4,3.9-10.5,7.2-15.2,9.7c-4.7,2.5-8.9,4.3-12.6,5.3
			c-3.7,1-6.1,1.3-7.2,1c-1.1-0.3-2.3-1.5-3.6-3.5c-1.3-2-2-4.2-2.2-6.6c-0.2-2.4,0.1-4.8,1-7.2c0.9-2.4,4.2-7.3,9.9-14.6
			s11.3-13.3,16.6-17.9c5.3-4.7,11-8.6,17-11.9C729.1,169.9,733.2,167.9,735.6,167.2z"/>
		<path class="st9" d="M813.8,121.8c4.1-6.5,7.6-9.1,10.3-7.9c2.7,1.2,4.2,2.8,4.4,4.8c0.2,2-4.3,12-13.4,30.2
			c-9.1,18.2-15.8,35.1-19.8,50.8c-4.1,15.7-5.5,24.5-4.3,26.4c1.2,2,3.5,2.5,6.7,1.7c3.2-0.8,11.4-5.3,24.5-13.4
			c13.1-8.1,5.7-5.6,8.7-8.1c3-2.5,9.1-2.7,2.3,3.7c-6.8,6.4-4.5,5.3-8,8.5c-3.5,3.2-6.9,6.6-10.3,10.2c-3.4,3.7-7.6,6.8-12.5,9.5
			c-4.9,2.7-9.2,4.2-12.9,4.4c-3.7,0.3-6.4-0.6-8.1-2.6c-1.7-2-3.3-4.3-4.9-7.1s-1.7-7.9-0.4-15.4c1.3-7.5,4.9-19.7,10.8-36.7
			c5.9-16.9,10.8-29.4,14.7-37.4C805.6,135.4,809.6,128.2,813.8,121.8z"/>
		<path class="st9" d="M858.4,166.2c6.9-0.5,11.1,0.6,12.6,3.5c1.5,2.8,2.2,6.5,2.1,10.9c-0.1,4.4-2.2,8.1-6.2,11.2
			c-4,3-9.4,6.1-16,9.1c-1.9,0.7-3.5,1.1-5,1.2c-1.5,0.1-2.7,0-3.7-0.2c-1-0.2-1.8-0.3-2.3-0.5c-0.6-0.2-0.9-0.1-1,0.2
			c-1.9,3-2.8,6-2.9,9c-0.1,3,0.9,5.8,2.9,8.3c2,2.5,4.3,4,6.7,4.4c2.5,0.4,5.1,0.3,7.8-0.2c2.7-0.6,7.6-2.3,14.9-5.3
			c7.2-3,12.3-5.8,15.1-8.4c2.8-2.6,5.6-5.2,8.1-7.7c2.6-2.5,2.9-2.5,1.1,0c-1.9,2.5-4.2,5.5-6.9,9c-2.7,3.5-6.1,7-10.2,10.5
			c-4.1,3.5-7.4,6.1-10,8c-2.6,1.9-6,3.5-10.3,5c-4.3,1.5-8.5,2-12.6,1.4c-4.1-0.6-7.2-1.5-9.3-2.9c-2.1-1.3-4-2.9-5.7-4.8
			c-1.8-1.9-3.2-4.1-4.3-6.6c-1.1-2.5-1.7-6-1.8-10.4c-0.1-4.4,1-9.2,3.1-14.3c2.1-5.2,4.5-9.5,7.2-12.9c2.7-3.4,6.3-6.8,10.9-10.3
			C847.3,169.8,852.5,167.5,858.4,166.2z M858.5,180.2c-0.7-0.7-2.5-0.4-5.3,1.1c-2.8,1.4-4.9,3.1-6.2,4.9c-1.3,1.8-1.5,3.1-0.7,4
			c0.8,0.8,2.6,0.5,5.3-1c2.7-1.5,4.8-3,6.4-4.5C859.6,183.1,859.8,181.6,858.5,180.2z"/>
		<path class="st9" d="M918,168.3c4.1-2.1,8.3-3.4,12.4-4c4.1-0.6,6.6,0.2,7.5,2.3c0.9,2.2,0.5,4.3-1.2,6.4c-1.7,2.1-4,3.2-7,3.5
			c-2.9,0.3-6.1,2.4-9.5,6.4c-3.4,4-5.4,8.7-5.9,14.1c-0.5,5.4-0.4,9.2,0.4,11.2c0.8,2.1,1.6,6.1,2.6,12.1c0.9,6,0.3,11.1-1.9,15.4
			c-2.2,4.3-4.5,7.4-7,9.4c-2.5,2-5.6,3.4-9.2,4.3c-3.7,0.9-6.8,1.4-9.4,1.4c-2.6,0-5.3-0.6-8.3-1.9c-2.9-1.2-4.8-3.8-5.4-7.7
			c-0.7-3.9,4.8-11.1,16.3-21.5c11.5-10.5,12.4-10.8,2.7-0.9c-9.7,9.9-13.5,16-11.4,18.4c2.1,2.4,4.7,3,7.6,1.9
			c2.9-1.1,5.3-2.7,7-4.6c1.7-1.9,3-4.2,3.8-7c0.8-2.7,1.2-5.3,1.1-7.6c-0.1-2.3-0.9-7.5-2.4-15.5c-1.5-8-1.5-14,0-18.1
			c1.5-4,3.7-7.5,6.7-10.5C910.3,172.8,913.9,170.3,918,168.3z"/>
	</g>
</g>
<g id="Layer_2">
	<path class="st9" d="M243.7,198.8c0,0-17.7,10.5-21.2,41.4"/>
</g>
</svg>
